<?xml version="1.0" encoding="UTF-8"?>
<!DOCTYPE svg PUBLIC "-//W3C//DTD SVG 1.1//EN" "http://www.w3.org/Graphics/SVG/1.1/DTD/svg11-flat-20030114.dtd">
<svg xmlns="http://www.w3.org/2000/svg" xmlns:xlink="http://www.w3.org/1999/xlink" xmlns:z="http://debeissat.nicolas.free.fr/svg3d/svg3d.rng" width="100%" height="100%" z:xinfinite="300" z:yinfinite="200" z:zratio="2">
  <script type="text/ecmascript" xlink:href="../jquery/jquery-2.0.3.js"></script>
    <script type="text/ecmascript" xlink:href="../svg3d/svg3d_parsing.js"></script>
    <script type="text/ecmascript" xlink:href="../svg3d/svg3d.js"></script>
    <script type="text/ecmascript" xlink:href="../svg3d/dom_utils.js"></script>
  <script type="text/ecmascript" xlink:href="../svg3d/jquery_svg3d.js"></script>
  <script type="text/ecmascript" xlink:href="js/cube_yellow.js"></script>
  <g id="svgTranslatableG_ad530959e0d04d6d9d2b83028be85eaf">
    <g id="svgVisualisationG_ad530959e0d04d6d9d2b83028be85eaf">
      <g id="g1" onclick="svg3d.toggleRotation()">
        <path id="face1" style="fill: yellow; opacity: 1.0;" d="M0,0,200 L123.6,0,200 L123.6,76.4,200 L0,76.4,200 Z" z:threeD="true">
          </path>
        <path id="face5" style="fill: goldenRod; opacity: 1.0;" d="M0,76.4,0 L123.6,76.4,0 L123.6,76.4,200 L0,76.4,200 Z" z:threeD="true">
          </path>
        <path id="face3" style="fill: gold; opacity: 1.0;" d="M123.6,0,0 L123.6,0,200 L123.6,76.4,200 L123.6,76.4,0 Z" z:threeD="true">
          </path>      
        <path id="face2" style="fill: gold; opacity: 1.0;" d="M0,0,0 L0,0,200 L0,76.4,200 L0,76.4,0 Z" z:threeD="true">
          </path>
        <path id="face4" style="fill: goldenRod; opacity: 1.0;" d="M0,0,0 L123.6,0,0 L123.6,0,200 L0,0,200 Z" z:threeD="true">
          </path>
       <path id="face0" style="fill: yellow; opacity: 0.9;" d="M0,0,0 L123.6,0,0 L123.6,76.4,0 L0,76.4,0 Z" z:threeD="true">
          </path>
      </g>
    </g>
    <g id="svgReferenceG_ad530959e0d04d6d9d2b83028be85eaf"></g>
  </g>
</svg>