<?xml version="1.0" encoding="UTF-8"?>
<!DOCTYPE svg PUBLIC "-//W3C//DTD SVG 1.1//EN" "http://www.w3.org/Graphics/SVG/1.1/DTD/svg11-flat-20030114.dtd">
<svg xmlns="http://www.w3.org/2000/svg"
 xmlns:xlink="http://www.w3.org/1999/xlink" 
 xmlns:z="http://debeissat.nicolas.free.fr/svg3d/svg3d.rng" z:xInfinite="300" z:yInfinite="200" z:zRatio="2">
  <script type="text/ecmascript" xlink:href="../jquery/jquery-2.0.3.js"></script>
    <script type="text/ecmascript" xlink:href="../svg3d/svg3d_parsing.js"></script>
    <script type="text/ecmascript" xlink:href="../svg3d/svg3d.js"></script>
    <script type="text/ecmascript" xlink:href="../svg3d/dom_utils.js"></script>
  <script type="text/ecmascript" xlink:href="../svg3d/jquery_svg3d.js"></script>
    <script type="text/ecmascript" xlink:href="js/declarative_cube_kierGroup.js" />
  <title>SVG animation - half pipe 3d</title>
  <g id="g1" onclick="svg3d.toggleRotation()">
      <path id="face1" style="fill: yellow; opacity: 1.0;" d="M0,0,150 L110,0,150 L110,75,150 L0,75,150 Z" z:threeD="true">
        </path>
      <path id="face5" style="fill: goldenRod; opacity: 1.0;" d="M0,75,0 L110,75,0 L110,75,150 L0,75,150 Z" z:threeD="true">
        </path>
      <path id="face3" style="fill: gold; opacity: 1.0;" d="M110,0,0 L110,0,150 L110,75,150 L110,75,0 Z" z:threeD="true">
        </path>      
      <path id="face2" style="fill: gold; opacity: 1.0;" d="M0,0,0 L0,0,150 L0,75,150 L0,75,0 Z" z:threeD="true">
        </path>
      <path id="face4" style="fill: goldenRod; opacity: 1.0;" d="M0,0,0 L110,0,0 L110,0,150 L0,0,150 Z" z:threeD="true">
        </path>
      <path id="face0" style="fill: yellow; opacity: 0.9;" d="M0,0,0 L110,0,0 L110,75,0 L0,75,0 Z" z:threeD="true">
        </path>
<!--
      <path
         
         id="path3078"
         d="m 12.310206,50.782132,0 c -7.0557841,-10.76739,0 -3.9760583,-26.515,0 6.578967,-33.86138,0 9.376091,-7.0406079,0 23.869544,-6.498188,0 32.232281,1.92888,0" z:threeD="true"
         style="fill:none;stroke:#000000;stroke-width:3.62126303" />
      <path
         
         id="polygon3080"
         d="m 41.354182,22.074232,0 c 0.357172,-1.42729,0 -1.033593,-4.6123,0 1.479268,-3.87189,0 2.55535,0.01,0 5.1107,0.015,0 7.666049,0.022,0 0.0087,-3.046018,0 0.01738,-6.092038,0 0.02607,-9.1380679,0 1.426389,0.35824,0 4.610043,-1.02991,0 3.868975,1.4823699,0 -0.01039,3.84685,0 -0.02078,7.693698,0 -0.03116,11.540598,0 -4.336363,-0.012,0 -8.673018,-0.024,0 -13.009198,-0.035,0 z" z:threeD="true" />
      <path
         
         id="path3082"
         d="m 55.691307,24.236532,0 c 7.011319,10.6916,0 4.024057,26.2941,0 -6.362403,33.70121,0 -9.383474,7.2027,0 -24.007887,6.7307,0 -32.448847,-1.7684,0" z:threeD="true"
         style="fill:none;stroke:#000000;stroke-width:3.62126303" />
      <path
         
         id="polygon3084"
         d="m 26.646967,52.944532,0 c -0.357102,1.4273,0 1.033806,4.6122,0 -1.479089,3.8717,0 -2.555409,-0.01,0 -5.11082,-0.014,0 -7.666229,-0.022,0 -0.0087,3.0461,0 -0.01738,6.0922,0 -0.02607,9.1383,0 -1.426343,-0.35789,0 -4.609894,1.03071,0 -3.868837,-1.4818,0 0.01028,-3.8469,0 0.02056,-7.6939,0 0.03084,-11.5408,0 4.336263,0.011,0 8.674126,0.024,0 13.009388,0.034,0 z" z:threeD="true" />
      <path
         
         id="path3088"
         d="m 15.93853,35.004932,0 c -0.100249,-6.0367,0 11.012157,-6.6005,0 11.62127,-0.7095,0 0.138746,2.8472,0 -0.339921,5.7507,0 0.05923,8.5594,0 4.192698,1.2664,0 -2.306619,4.20261,0 -2.347236,0.1742,0 -2.629094,5.1531,0 -12.853188,1.7916,0 -9.138415,-4.1075,0 2.389246,-2.9761,0 12.518495,-0.8611,0 7.635582,-6.5716,0 -3.539639,-2.1872,0 -4.802161,2.1227,0 -6.665387,2.655,0 -0.388347,0,0 -0.776694,0,0 -1.165042,0,0 z m 9.193843,2.7305,0 c -3.06848,0.25361,0 -10.46034,1.91751,0 -5.526503,5.8955,0 3.932545,1.0955,0 5.748984,-2.5182,0 5.526503,-5.8955,0 z" z:threeD="true"
         style="stroke:#000000;stroke-width:1.0265013" />
      <path
         
         id="path3090"
         d="m 34.813457,25.476832,0 c 0,6.5009,0 0,13.0015,0 0,19.50241,0 -2.495152,0.69869,0 -2.784889,-0.808,0 -2.451776,-2.9375,0 0,-5.5217,0 0,-11.0432,0 0,-16.5649,0 0.817259,0,0 1.634517,0,0 2.451776,0,0 z" z:threeD="true"
         style="stroke:#000000;stroke-width:1.0265013" />
      <path
         
         id="path3092"
         d="m 48.878806,44.987442,0 c 0.795022,-4.6668,0 -3.458396,2.76569,0 -6.257627,0.4072,0 -4.308448,-1.1614,0 -3.054786,-6.213,0 -3.252939,-9.5861,0 0.344701,-1.5119,0 -0.719047,-4.4325,0 0.58751,-4.9827,0 2.658119,-0.8616,0 1.731955,1.8612,0 1.864628,3.5251,0 0.295827,2.9974,0 -0.846456,6.5739,0 1.266425,9.0319,0 4.430896,2.1051,0 6.470255,-3.319,0 5.782001,-6.8961,0 0,-1.887,0 0,-3.7741,0 0,-5.6611,0 2.495152,-0.6987,0 2.784889,0.808,0 2.451776,2.9375,0 0,3.7386,0 0,7.4771,0 0,11.2157,0 -0.813347,0,0 -1.631019,0.01,0 -2.441774,0.01,0 z" z:threeD="true"
         style="stroke:#000000;stroke-width:1.0265013" />
      <path
         
         id="path3183"
         d="m 81.715245,51.092932,0 c -4.656089,2.0978,0 -10.409406,0.52061,0 -13.754374,-3.208,0 1.577825,-6.7654,0 3.155651,-13.5308,0 4.733475,-20.2962,0 3.714174,3.236,0 9.00913,4.2007,0 13.754375,3.2087,0 -1.577788,6.7649,0 -3.155878,13.5324,0 -4.733476,20.2956,0 z" z:threeD="true" />
      <path
         
         id="ellipse3185"
         d="m 87.453922,26.899342,0 c -3.299736,3.4646,0 -9.667953,1.5144,0 -13.152121,-1.04291,0 -2.678627,-5.16269,0 7.275566,-3.93489,0 10.021224,-2.2849,0 1.285618,0.67011,0 3.252313,1.59231,0 3.130898,3.32781,0 z" z:threeD="true" />
      <path
         
         id="rect3187"
         d="m 90.629031,25.251732,0 c 2.28547,-0.4541,0 3.447313,0.2156,0 2.850452,2.64391,0 -0.438118,1.3929,0 0.967776,4.6299,0 -0.881264,4.6119,0 -2.684791,0.85339,0 -1.891813,-1.771,0 -1.969188,-3.5251,0 0,-1.2435,0 0,-2.4871,0 0,-3.7306,0 z" z:threeD="true" />
      <path
         
         id="rect3189"
         d="m 95.725299,25.251732,0 c 2.28547,-0.4541,0 3.447313,0.2156,0 2.850451,2.64391,0 -0.438117,1.3929,0 0.967777,4.6299,0 -0.881264,4.6119,0 -2.68479,0.85339,0 -1.891812,-1.771,0 -1.969187,-3.5251,0 0,-1.2435,0 0,-2.4871,0 0,-3.7306,0 z" z:threeD="true" />
      <path
         
         id="rect3191"
         d="m 95.725299,43.391032,0 c 2.28547,-0.454,0 3.447313,0.2156,0 2.850451,2.6439,0 -0.438117,1.39291,0 0.967777,4.6299,0 -0.881264,4.61191,0 -2.68479,0.8534,0 -1.891812,-1.771,0 -1.969187,-3.5251,0 0,-1.24351,0 0,-2.48721,0 0,-3.73061,0 z" z:threeD="true" />
      <path
         
         id="rect3193"
         d="m 90.888165,43.391032,0 c 2.28547,-0.454,0 3.447311,0.2156,0 2.850449,2.6439,0 -0.438117,1.39291,0 0.967777,4.6299,0 -0.881264,4.61191,0 -2.68479,0.8534,0 -1.891811,-1.771,0 -1.969185,-3.5251,0 0,-1.24351,0 0,-2.48721,0 0,-3.73061,0 z" z:threeD="true" />
      <path       
         
         id="rect3195"
         d="m 85.964663,43.391032,0 c 2.285471,-0.454,0 3.447313,0.2156,0 2.850452,2.6439,0 -0.438117,1.39291,0 0.967777,4.6299,0 -0.881264,4.61191,0 -2.684791,0.8534,0 -1.891812,-1.771,0 -1.969188,-3.5251,0 0,-1.24351,0 0,-2.48721,0 0,-3.73061,0 z" z:threeD="true" />
      <path
         
         id="path3199"
         d="m 100.96926,25.214632,0 c 0.10003,2.44381,0 0.20005,4.88761,0 0.30008,7.3312,0 9.28273,-0.3123,0 18.6159,-0.8964,0 27.86695,-1.04,0 5.30528,0.6278,0 7.40811,8.1468,0 3.17974,11.418,0 -3.32008,2.7513,0 -7.75459,1.1321,0 -11.65755,1.3184,0 -6.46304,-0.2644,0 -12.92609,-0.5288,0 -19.38914,-0.7934,0 -0.1,2.4438,0 -0.19994,4.8876,0 -0.29991,7.3315,0 9.57744,0.2854,0 19.15817,0.89921,0 28.73352,0.97521,0 8.67245,-0.6039,0 14.8346,-10.5039,0 11.5687,-18.5579,0 -1.88882,-5.3465,0 -7.30495,-9.1493,0 -12.98176,-9.0684,0" z:threeD="true"/>
      <path
         
         id="rect3201"
         d="m 102.25081,44.456232,0 c 1.79148,0.073,0 3.58295,0.1466,0 5.37442,0.2199,0 -0.0733,1.79161,0 -0.14666,3.58321,0 -0.21999,5.37471,0 -1.79147,-0.073,0 -3.58295,-0.1467,0 -5.37443,-0.22,0 0.0733,-1.79151,0 0.14667,-3.58311,0 0.22,-5.37461,0 z" z:threeD="true"
         style="fill:#ffffff" />
      <path
         
         id="rect3203"
         d="m 102.03091,26.164742,0 c 1.79154,-0.073,0 3.58306,-0.1467,0 5.37459,-0.22001,0 0.0733,1.79151,0 0.14667,3.583,0 0.22,5.3745,0 -1.79153,0.073,0 -3.58306,0.1468,0 -5.3746,0.2201,0 -0.0733,-1.7916,0 -0.14666,-3.58309,0 -0.21999,-5.37459,0 z" z:threeD="true"
         style="fill:#ffffff" />
       -->
      </g>
</svg>
