<?xml version="1.0" encoding="UTF-8" standalone="no"?>
<!-- Created with Inkscape (http://www.inkscape.org/) -->

<svg
   xmlns:dc="http://purl.org/dc/elements/1.1/"
   xmlns:cc="http://creativecommons.org/ns#"
   xmlns:rdf="http://www.w3.org/1999/02/22-rdf-syntax-ns#"
   xmlns:svg="http://www.w3.org/2000/svg"
   xmlns="http://www.w3.org/2000/svg"
   xmlns:xlink="http://www.w3.org/1999/xlink"
   xmlns:sodipodi="http://sodipodi.sourceforge.net/DTD/sodipodi-0.dtd"
   xmlns:inkscape="http://www.inkscape.org/namespaces/inkscape"
   width="100%"
   height="100%"
   id="svg2"
   sodipodi:version="0.32"
   inkscape:version="0.48.4 r9939"
   sodipodi:docname="lightbulb_simple.svg"
   inkscape:output_extension="org.inkscape.output.svg.inkscape"
   sodipodi:modified="TRUE"
   version="1.1"
   xmlns:z="http://debeissat.nicolas.free.fr/svg3d/svg3d.rng">
  <script type="text/ecmascript" xlink:href="../jquery/jquery-2.0.3.js"></script>
    <script type="text/ecmascript" xlink:href="../svg3d/svg3d_parsing.js"></script>
    <script type="text/ecmascript" xlink:href="../svg3d/svg3d.js"></script>
    <script type="text/ecmascript" xlink:href="../svg3d/dom_utils.js"></script>
  <script type="text/ecmascript" xlink:href="../svg3d/jquery_svg3d.js"></script>
  <script type="text/ecmascript" xlink:href="js/lightbulb_simple.js"></script>
  <defs
     id="defs4">
    <linearGradient
       inkscape:collect="always"
       id="linearGradient12464">
      <stop
         style="stop-color:#917c6f;stop-opacity:1;"
         offset="0"
         id="stop12466" />
      <stop
         style="stop-color:#917c6f;stop-opacity:0;"
         offset="1"
         id="stop12468" />
    </linearGradient>
    <linearGradient
       id="linearGradient12456">
      <stop
         style="stop-color:#ffffff;stop-opacity:1;"
         offset="0"
         id="stop12458" />
      <stop
         style="stop-color:#ffff00;stop-opacity:1;"
         offset="1"
         id="stop12460" />
    </linearGradient>
    <linearGradient
       id="linearGradient8509">
      <stop
         style="stop-color:#666666;stop-opacity:1;"
         offset="0"
         id="stop8511" />
      <stop
         style="stop-color:#666666;stop-opacity:0;"
         offset="1"
         id="stop8513" />
    </linearGradient>
    <linearGradient
       id="linearGradient6327">
      <stop
         style="stop-color:#0954d6;stop-opacity:1;"
         offset="0"
         id="stop6329" />
      <stop
         style="stop-color:#4848cb;stop-opacity:0"
         offset="1"
         id="stop6331" />
    </linearGradient>
    <linearGradient
       id="linearGradient6315">
      <stop
         id="stop6317"
         offset="0"
         style="stop-color:#fffaf7;stop-opacity:1;" />
      <stop
         id="stop6319"
         offset="1"
         style="stop-color:#e7ed15;stop-opacity:0;" />
    </linearGradient>
    <linearGradient
       id="linearGradient5338">
      <stop
         style="stop-color:#fffaf7;stop-opacity:1;"
         offset="0"
         id="stop5340" />
      <stop
         style="stop-color:#e7ed15;stop-opacity:0;"
         offset="1"
         id="stop5342" />
    </linearGradient>
    <linearGradient
       id="linearGradient3376">
      <stop
         style="stop-color:#ffff00;stop-opacity:1;"
         offset="0"
         id="stop3378" />
      <stop
         style="stop-color:#fcffff;stop-opacity:0.24705882;"
         offset="1"
         id="stop3386" />
    </linearGradient>
    <radialGradient
       inkscape:collect="always"
       xlink:href="#linearGradient5338"
       id="radialGradient11478"
       gradientUnits="userSpaceOnUse"
       gradientTransform="matrix(1,0,0,0.6753247,0,154.59161)"
       cx="1262.8374"
       cy="476.14212"
       fx="1262.8374"
       fy="476.14212"
       r="207.33151" />
    <linearGradient
       inkscape:collect="always"
       xlink:href="#linearGradient8509"
       id="linearGradient11484"
       gradientUnits="userSpaceOnUse"
       gradientTransform="matrix(1.0323773,0,0,1.0568404,-69.016603,12.571454)"
       x1="344.65497"
       y1="853.10852"
       x2="526.1405"
       y2="850.41589" />
    <radialGradient
       inkscape:collect="always"
       xlink:href="#linearGradient12456"
       id="radialGradient12462"
       cx="311.28458"
       cy="369.99646"
       fx="311.28458"
       fy="369.99646"
       r="303.10434"
       gradientTransform="matrix(2.7681041,-0.1391871,0.04563002,0.9074736,-560.09642,46.856876)"
       gradientUnits="userSpaceOnUse" />
    <radialGradient
       inkscape:collect="always"
       xlink:href="#linearGradient12464"
       id="radialGradient12470"
       cx="311.28458"
       cy="369.99646"
       fx="311.28458"
       fy="369.99646"
       r="303.10434"
       gradientTransform="matrix(2.7681041,-0.1391871,0.04563002,0.9074736,-560.09642,46.856876)"
       gradientUnits="userSpaceOnUse" />
    <radialGradient
       inkscape:collect="always"
       xlink:href="#linearGradient12456"
       id="radialGradient3013"
       gradientUnits="userSpaceOnUse"
       gradientTransform="matrix(0.0873076,-0.00439004,0.00143919,0.02862224,-18.198123,268.50843)"
       cx="311.28458"
       cy="369.99646"
       fx="311.28458"
       fy="369.99646"
       r="303.10434" />
    <radialGradient
       inkscape:collect="always"
       xlink:href="#linearGradient12464"
       id="radialGradient3015"
       gradientUnits="userSpaceOnUse"
       gradientTransform="matrix(0.0873076,-0.00439004,0.00143919,0.02862224,-18.198123,268.50843)"
       cx="311.28458"
       cy="369.99646"
       fx="311.28458"
       fy="369.99646"
       r="303.10434" />
    <linearGradient
       inkscape:collect="always"
       xlink:href="#linearGradient8509"
       id="linearGradient3017"
       gradientUnits="userSpaceOnUse"
       gradientTransform="matrix(0.03256178,0,0,0.03333336,-2.7091824,267.42704)"
       x1="344.65497"
       y1="853.10852"
       x2="526.1405"
       y2="850.41589" />
    <radialGradient
       inkscape:collect="always"
       xlink:href="#linearGradient5338"
       id="radialGradient3019"
       gradientUnits="userSpaceOnUse"
       gradientTransform="matrix(1,0,0,0.6753247,0,154.59161)"
       cx="1262.8374"
       cy="476.14212"
       fx="1262.8374"
       fy="476.14212"
       r="207.33151" />
    <radialGradient
       inkscape:collect="always"
       xlink:href="#linearGradient12456"
       id="radialGradient3016"
       gradientUnits="userSpaceOnUse"
       gradientTransform="matrix(0.08391164,-0.00421928,0.00138321,0.02750894,-17.46711,0.53057706)"
       cx="311.28458"
       cy="369.99646"
       fx="311.28458"
       fy="369.99646"
       r="303.10434" />
    <radialGradient
       inkscape:collect="always"
       xlink:href="#linearGradient12464"
       id="radialGradient3018"
       gradientUnits="userSpaceOnUse"
       gradientTransform="matrix(0.08391164,-0.00421928,0.00138321,0.02750894,-17.46711,0.53057706)"
       cx="311.28458"
       cy="369.99646"
       fx="311.28458"
       fy="369.99646"
       r="303.10434" />
    <linearGradient
       inkscape:collect="always"
       xlink:href="#linearGradient8509"
       id="linearGradient3021"
       gradientUnits="userSpaceOnUse"
       gradientTransform="matrix(0.03129525,0,0,0.03203681,-2.5806344,-0.50875073)"
       x1="344.65497"
       y1="853.10852"
       x2="526.1405"
       y2="850.41589" />
    <radialGradient
       inkscape:collect="always"
       xlink:href="#linearGradient5338"
       id="radialGradient3024"
       gradientUnits="userSpaceOnUse"
       gradientTransform="matrix(0.02913223,0.01741648,-0.010826,0.02137428,-18.834665,-25.989729)"
       cx="1262.8374"
       cy="476.14212"
       fx="1262.8374"
       fy="476.14212"
       r="207.33151" />
    <radialGradient
       inkscape:collect="always"
       xlink:href="#linearGradient5338"
       id="radialGradient3492"
       gradientUnits="userSpaceOnUse"
       gradientTransform="matrix(0.02913223,0.01741648,-0.010826,0.02137428,-18.834665,-25.989729)"
       cx="1262.8374"
       cy="476.14212"
       fx="1262.8374"
       fy="476.14212"
       r="207.33151" />
    <linearGradient
       inkscape:collect="always"
       xlink:href="#linearGradient8509"
       id="linearGradient3495"
       gradientUnits="userSpaceOnUse"
       gradientTransform="matrix(0.03129525,0,0,0.03203681,-2.5806344,-0.50875073)"
       x1="344.65497"
       y1="853.10852"
       x2="526.1405"
       y2="850.41589" />
    <radialGradient
       inkscape:collect="always"
       xlink:href="#linearGradient12456"
       id="radialGradient3498"
       gradientUnits="userSpaceOnUse"
       gradientTransform="matrix(0.08391164,-0.00421928,0.00138321,0.02750894,-17.46711,0.53057706)"
       cx="311.28458"
       cy="369.99646"
       fx="311.28458"
       fy="369.99646"
       r="303.10434" />
    <radialGradient
       inkscape:collect="always"
       xlink:href="#linearGradient12464"
       id="radialGradient3500"
       gradientUnits="userSpaceOnUse"
       gradientTransform="matrix(0.08391164,-0.00421928,0.00138321,0.02750894,-17.46711,0.53057706)"
       cx="311.28458"
       cy="369.99646"
       fx="311.28458"
       fy="369.99646"
       r="303.10434" />
    <radialGradient
       inkscape:collect="always"
       xlink:href="#linearGradient5338"
       id="radialGradient3028"
       gradientUnits="userSpaceOnUse"
       gradientTransform="matrix(0.02913223,0.01741648,-0.010826,0.02137428,-19.035538,995.44057)"
       cx="1262.8374"
       cy="476.14212"
       fx="1262.8374"
       fy="476.14212"
       r="207.33151" />
    <linearGradient
       inkscape:collect="always"
       xlink:href="#linearGradient8509"
       id="linearGradient3031"
       gradientUnits="userSpaceOnUse"
       gradientTransform="matrix(0.03129525,0,0,0.03203681,-2.7815078,1020.9215)"
       x1="344.65497"
       y1="853.10852"
       x2="526.1405"
       y2="850.41589" />
    <radialGradient
       inkscape:collect="always"
       xlink:href="#linearGradient12456"
       id="radialGradient3034"
       gradientUnits="userSpaceOnUse"
       gradientTransform="matrix(0.08391164,-0.00421928,0.00138321,0.02750894,-17.667983,1021.9609)"
       cx="311.28458"
       cy="369.99646"
       fx="311.28458"
       fy="369.99646"
       r="303.10434" />
    <radialGradient
       inkscape:collect="always"
       xlink:href="#linearGradient12464"
       id="radialGradient3036"
       gradientUnits="userSpaceOnUse"
       gradientTransform="matrix(0.08391164,-0.00421928,0.00138321,0.02750894,-17.667983,1021.9609)"
       cx="311.28458"
       cy="369.99646"
       fx="311.28458"
       fy="369.99646"
       r="303.10434" />
  </defs>
  <sodipodi:namedview
     id="base"
     pagecolor="#ffffff"
     bordercolor="#666666"
     borderopacity="1.0"
     gridtolerance="10000"
     guidetolerance="10"
     objecttolerance="10"
     inkscape:pageopacity="0.0"
     inkscape:pageshadow="2"
     inkscape:zoom="2.2315112"
     inkscape:cx="83.772035"
     inkscape:cy="96.356796"
     inkscape:document-units="px"
     inkscape:current-layer="svg2"
     inkscape:window-width="938"
     inkscape:window-height="1041"
     inkscape:window-x="978"
     inkscape:window-y="18"
     showgrid="false"
     fit-margin-left="20"
     fit-margin-top="20"
     fit-margin-bottom="200"
     fit-margin-right="150"
     inkscape:window-maximized="0" />
  <metadata
     id="metadata7">
    <rdf:RDF>
      <cc:Work
         rdf:about="">
        <dc:format>image/svg+xml</dc:format>
        <dc:type
           rdf:resource="http://purl.org/dc/dcmitype/StillImage" />
        <dc:title />
      </cc:Work>
    </rdf:RDF>
  </metadata>
  <g
     id="g3038">
    <path
       inkscape:connector-curvature="0"
       id="path6323"
       d="M 9.5132256,1023.0214 C 3.3917699,1022.3122 -2.063723,1029.0503 0.88747106,1034.7519 2.3829018,1038.2571 6.6914016,1041.8058 4.6100876,1045.8924 11.10838,1047.9263 13.334544,1045.3012 14.203707,1039.6242 16.44594,1036.6329 19.683272,1033.3664 18.24253,1029.1956 17.764622,1025.0967 13.086919,1023.28 9.5132256,1023.0214 z"
       style="fill:url(#radialGradient3034);fill-opacity:1;stroke:url(#radialGradient3036);stroke-width:0.03031376" />
    <path
       inkscape:connector-curvature="0"
       id="path2393"
       d="M 4.5199431,1045.8804 C 4.4857381,1047.3863 4.1620479,1049.2528 5.213305,1050.4105 6.8172647,1050.9297 8.1145896,1053.2892 10.077759,1051.6497 11.50299,1050.3026 14.288632,1049.9315 13.575972,1047.4128 14.002025,1045.7726 12.960317,1045.5859 11.26125,1045.8809 9.0143296,1045.8805 6.7660036,1045.8816 4.5199431,1045.8804 z"
       style="fill:url(#linearGradient3031);fill-opacity:1" />
    <path
       inkscape:connector-curvature="0"
       id="path4367"
       d="M 18.639052,1031.2229 C 10.735287,1040.8769 -0.62887604,1018.319 13.580714,1022.5427 16.565475,1023.7844 20.194239,1027.3545 18.639052,1031.2229 z"
       style="fill:url(#radialGradient3028);fill-opacity:1" />
    <path
       inkscape:connector-curvature="0"
       id="path2223"
       d="M 7.645572,1052.198 C 4.3838222,1051.1577 3.5147289,1047.7202 4.8658398,1044.9942 4.0104838,1037.8281 -5.8736106,1028.209 5.3184689,1023.637 15.141816,1019.1547 23.767263,1032.7195 14.546486,1038.9282 10.261143,1043.0901 16.086183,1047.6258 11.590165,1050.4753 10.395744,1051.1702 9.3790016,1052.8992 7.645572,1052.198 z M 10.075492,1051.3235 C 9.8847896,1049.6319 5.8082551,1051.1058 9.2747596,1051.1855 10.201918,1050.4902 9.5068846,1051.4538 10.075485,1051.3234 L 10.075492,1051.3235 z M 7.9640766,1051.1188 C 7.7645311,1050.9933 7.7932092,1051.3447 7.9640766,1051.1188 z M 6.6488784,1050.7903 C 6.6207434,1050.3553 6.2415104,1051.0192 6.6488784,1050.7903 z M 7.6101801,1050.3451 C 16.274964,1050.2629 9.1640146,1049.2528 5.0041476,1050.0975 5.7790844,1050.4956 6.7762364,1050.3504 7.6101801,1050.3451 z M 6.2653828,1049.6259 C 11.383342,1049.8965 16.189267,1048.7475 7.7871234,1049.1222 6.0587877,1048.7846 2.7508481,1049.5137 6.2653828,1049.6259 z M 12.562435,1048.7915 C 12.118048,1047.5797 -1.2240088,1049.0193 9.2734846,1048.8781 L 11.196686,1048.9063 12.562435,1048.7916 12.562435,1048.7915 z M 6.1033176,1048.0967 C 11.91043,1048.5999 15.589575,1047.5577 7.4983808,1047.6929 5.0492201,1047.441 3.4955505,1048.0523 6.1033176,1048.0967 z M 12.716803,1047.5441 C 12.038438,1046.2198 -1.3521211,1047.4948 9.4150426,1047.6048 L 11.492052,1047.6725 12.716803,1047.5441 12.716803,1047.5442 z M 12.140031,1046.9139 C 15.950448,1044.9657 -0.28843604,1046.676 6.9033456,1046.4375 7.8529526,1047.3081 10.656964,1046.9351 12.140031,1046.9139 z M 12.177661,1046.0666 C 13.381885,1038.4206 24.744343,1026.9825 11.432244,1023.5752 7.470002,1021.827 0.71116026,1026.1563 1.2263338,1027.9973 -0.10284494,1029.2162 1.0953803,1030.0977 0.10761826,1031.1779 0.80069746,1031.6658 0.25564506,1033.0751 0.79326356,1033.6691 1.1104629,1034.4554 0.95694166,1035.2566 2.0434579,1035.6989 1.6092277,1036.6573 2.5171722,1037.0433 3.0552848,1038.0021 3.4702239,1038.9973 4.3494453,1039.0934 4.3262881,1040.3802 5.2730765,1041.1117 5.0860779,1042.0834 5.2150493,1043.1703 5.0376039,1044.3511 6.2917539,1047.9728 6.4054981,1042.4592 6.5348951,1037.5994 2.1442038,1028.462 4.0758365,1030.6708 1.6585823,1030.0691 8.3328416,1038.5195 6.9806704,1042.8569 9.2340166,1052.1337 10.67079,1037.7674 13.064734,1034.7562 16.411806,1028.4566 12.150297,1030.9333 12.887271,1030.0425 12.957922,1029.7207 12.97995,1030.09 14.698508,1029.4692 14.812954,1034.322 7.5153443,1043.0115 12.177659,1046.0666 z M 7.698476,1037.6688 C 5.8124128,1035.5957 7.4507155,1035.0487 8.3756656,1035.866 8.6127846,1038.5907 7.5265712,1035.534 7.698476,1037.6688 z M 7.657473,1036.2911 C 7.4396727,1035.8267 7.2900293,1037.1098 7.657473,1036.2911 z M 5.1756909,1031.4456 C 6.1823104,1037.7403 4.8591311,1026.5056 5.1756909,1031.4456 z M 6.3391013,1031.3883 C 6.9691278,1031.8039 5.4145804,1027.0073 6.3391013,1031.3883 z M 7.414249,1031.3186 C 7.1238834,1031.6099 7.5830935,1027.8368 7.414249,1031.3186 z M 9.4524736,1031.1924 C 8.9272406,1030.8906 10.129701,1028.6674 9.4524736,1031.1924 z M 8.3984936,1031.1218 C 8.2359526,1030.5024 8.9506076,1028.3164 8.3984936,1031.1218 z M 10.44134,1031.0477 C 9.0082176,1028.5749 13.876876,1030.15 10.441339,1031.0477 L 10.44134,1031.0477 z M 11.941784,1030.5272 C 10.763744,1027.6056 11.132935,1031.249 11.941784,1030.5272 z M 12.253244,1028.3662 C 10.377171,1024.7858 15.773039,1028.8475 12.253244,1028.3662 z M 12.897656,1028.1443 C 13.175428,1025.6407 11.253606,1028.2955 12.897656,1028.1443 z M 13.853728,1028.1032 C 11.858557,1024.3869 17.275082,1028.6156 13.853728,1028.1032 z M 14.559345,1027.7931 C 14.172792,1025.6474 13.167906,1028.0293 14.559345,1027.7931 z M 11.279048,1026.549 C 8.2879696,1022.7256 15.027837,1027.1915 11.279048,1026.549 z M 12.114887,1026.2771 C 10.273816,1022.4144 10.817571,1027.0479 12.114887,1026.2771 z M 13.165189,1026.4452 C 9.1405746,1023.0495 15.897589,1025.9508 13.165189,1026.4452 z M 13.484832,1026.0975 C 12.213837,1023.607 11.601708,1026.1376 13.484832,1026.0975 z M 10.645232,1044.6786 C 11.386565,1035.056 10.382278,1040.596 10.645232,1044.6786 z M 6.6661548,1045.0872 C 6.5427338,1045.151 6.7792403,1045.4449 6.6661548,1045.0872 z M 6.7625788,1042.5981 C 6.6922418,1037.4895 6.5129252,1046.5174 6.7625788,1042.5981 z M 6.8537668,1039.6455 C 6.3090528,1034.6238 6.5089541,1042.6107 6.8537668,1039.6455 z"
       style="fill:#000000" />
    <path
       inkscape:connector-curvature="0"
       id="rect2383"
       d="M 8.7302916,1033.1092 C 12.845682,1032.7257 9.7272516,1039.5761 10.695902,1042.3393 7.6923115,1045.6194 8.9439716,1037.4453 8.7302916,1035.1706 8.7302916,1034.4835 8.7302916,1033.7963 8.7302916,1033.1092 z"
       style="fill:#ffff00;fill-opacity:1" />
  </g>
</svg>
