<?xml version="1.0" encoding="UTF-8" standalone="no"?>
<!-- Created with Inkscape (http://www.inkscape.org/) -->

<svg
   xmlns:dc="http://purl.org/dc/elements/1.1/"
   xmlns:cc="http://creativecommons.org/ns#"
   xmlns:rdf="http://www.w3.org/1999/02/22-rdf-syntax-ns#"
   xmlns:svg="http://www.w3.org/2000/svg"
   xmlns="http://www.w3.org/2000/svg"
   xmlns:xlink="http://www.w3.org/1999/xlink"
   xmlns:sodipodi="http://sodipodi.sourceforge.net/DTD/sodipodi-0.dtd"
   xmlns:inkscape="http://www.inkscape.org/namespaces/inkscape"
   width="100%"
   height="100%"
   id="svg2"
   sodipodi:version="0.32"
   inkscape:version="0.48.4 r9939"
   sodipodi:docname="lightbulb_simple.svg"
   inkscape:output_extension="org.inkscape.output.svg.inkscape"
   sodipodi:modified="TRUE"
   version="1.1">
  <defs
     id="defs4">
    <linearGradient
       inkscape:collect="always"
       id="linearGradient12464">
      <stop
         style="stop-color:#917c6f;stop-opacity:1;"
         offset="0"
         id="stop12466" />
      <stop
         style="stop-color:#917c6f;stop-opacity:0;"
         offset="1"
         id="stop12468" />
    </linearGradient>
    <linearGradient
       id="linearGradient12456">
      <stop
         style="stop-color:#ffffff;stop-opacity:1;"
         offset="0"
         id="stop12458" />
      <stop
         style="stop-color:#ffff00;stop-opacity:1;"
         offset="1"
         id="stop12460" />
    </linearGradient>
    <linearGradient
       id="linearGradient8509">
      <stop
         style="stop-color:#666666;stop-opacity:1;"
         offset="0"
         id="stop8511" />
      <stop
         style="stop-color:#666666;stop-opacity:0;"
         offset="1"
         id="stop8513" />
    </linearGradient>
    <linearGradient
       id="linearGradient6327">
      <stop
         style="stop-color:#0954d6;stop-opacity:1;"
         offset="0"
         id="stop6329" />
      <stop
         style="stop-color:#4848cb;stop-opacity:0"
         offset="1"
         id="stop6331" />
    </linearGradient>
    <linearGradient
       id="linearGradient6315">
      <stop
         id="stop6317"
         offset="0"
         style="stop-color:#fffaf7;stop-opacity:1;" />
      <stop
         id="stop6319"
         offset="1"
         style="stop-color:#e7ed15;stop-opacity:0;" />
    </linearGradient>
    <linearGradient
       id="linearGradient5338">
      <stop
         style="stop-color:#fffaf7;stop-opacity:1;"
         offset="0"
         id="stop5340" />
      <stop
         style="stop-color:#e7ed15;stop-opacity:0;"
         offset="1"
         id="stop5342" />
    </linearGradient>
    <linearGradient
       id="linearGradient3376">
      <stop
         style="stop-color:#ffff00;stop-opacity:1;"
         offset="0"
         id="stop3378" />
      <stop
         style="stop-color:#fcffff;stop-opacity:0.24705882;"
         offset="1"
         id="stop3386" />
    </linearGradient>
    <radialGradient
       inkscape:collect="always"
       xlink:href="#linearGradient5338"
       id="radialGradient11478"
       gradientUnits="userSpaceOnUse"
       gradientTransform="matrix(1,0,0,0.6753247,0,154.59161)"
       cx="1262.8374"
       cy="476.14212"
       fx="1262.8374"
       fy="476.14212"
       r="207.33151" />
    <linearGradient
       inkscape:collect="always"
       xlink:href="#linearGradient8509"
       id="linearGradient11484"
       gradientUnits="userSpaceOnUse"
       gradientTransform="matrix(1.0323773,0,0,1.0568404,-69.016603,12.571454)"
       x1="344.65497"
       y1="853.10852"
       x2="526.1405"
       y2="850.41589" />
    <radialGradient
       inkscape:collect="always"
       xlink:href="#linearGradient12456"
       id="radialGradient12462"
       cx="311.28458"
       cy="369.99646"
       fx="311.28458"
       fy="369.99646"
       r="303.10434"
       gradientTransform="matrix(2.7681041,-0.1391871,0.04563002,0.9074736,-560.09642,46.856876)"
       gradientUnits="userSpaceOnUse" />
    <radialGradient
       inkscape:collect="always"
       xlink:href="#linearGradient12464"
       id="radialGradient12470"
       cx="311.28458"
       cy="369.99646"
       fx="311.28458"
       fy="369.99646"
       r="303.10434"
       gradientTransform="matrix(2.7681041,-0.1391871,0.04563002,0.9074736,-560.09642,46.856876)"
       gradientUnits="userSpaceOnUse" />
    <radialGradient
       inkscape:collect="always"
       xlink:href="#linearGradient12456"
       id="radialGradient3013"
       gradientUnits="userSpaceOnUse"
       gradientTransform="matrix(0.0873076,-0.00439004,0.00143919,0.02862224,-18.198123,268.50843)"
       cx="311.28458"
       cy="369.99646"
       fx="311.28458"
       fy="369.99646"
       r="303.10434" />
    <radialGradient
       inkscape:collect="always"
       xlink:href="#linearGradient12464"
       id="radialGradient3015"
       gradientUnits="userSpaceOnUse"
       gradientTransform="matrix(0.0873076,-0.00439004,0.00143919,0.02862224,-18.198123,268.50843)"
       cx="311.28458"
       cy="369.99646"
       fx="311.28458"
       fy="369.99646"
       r="303.10434" />
    <linearGradient
       inkscape:collect="always"
       xlink:href="#linearGradient8509"
       id="linearGradient3017"
       gradientUnits="userSpaceOnUse"
       gradientTransform="matrix(0.03256178,0,0,0.03333336,-2.7091824,267.42704)"
       x1="344.65497"
       y1="853.10852"
       x2="526.1405"
       y2="850.41589" />
    <radialGradient
       inkscape:collect="always"
       xlink:href="#linearGradient5338"
       id="radialGradient3019"
       gradientUnits="userSpaceOnUse"
       gradientTransform="matrix(1,0,0,0.6753247,0,154.59161)"
       cx="1262.8374"
       cy="476.14212"
       fx="1262.8374"
       fy="476.14212"
       r="207.33151" />
    <radialGradient
       inkscape:collect="always"
       xlink:href="#linearGradient12456"
       id="radialGradient3016"
       gradientUnits="userSpaceOnUse"
       gradientTransform="matrix(0.08391164,-0.00421928,0.00138321,0.02750894,-17.46711,0.53057706)"
       cx="311.28458"
       cy="369.99646"
       fx="311.28458"
       fy="369.99646"
       r="303.10434" />
    <radialGradient
       inkscape:collect="always"
       xlink:href="#linearGradient12464"
       id="radialGradient3018"
       gradientUnits="userSpaceOnUse"
       gradientTransform="matrix(0.08391164,-0.00421928,0.00138321,0.02750894,-17.46711,0.53057706)"
       cx="311.28458"
       cy="369.99646"
       fx="311.28458"
       fy="369.99646"
       r="303.10434" />
    <linearGradient
       inkscape:collect="always"
       xlink:href="#linearGradient8509"
       id="linearGradient3021"
       gradientUnits="userSpaceOnUse"
       gradientTransform="matrix(0.03129525,0,0,0.03203681,-2.5806344,-0.50875073)"
       x1="344.65497"
       y1="853.10852"
       x2="526.1405"
       y2="850.41589" />
    <radialGradient
       inkscape:collect="always"
       xlink:href="#linearGradient5338"
       id="radialGradient3024"
       gradientUnits="userSpaceOnUse"
       gradientTransform="matrix(0.02913223,0.01741648,-0.010826,0.02137428,-18.834665,-25.989729)"
       cx="1262.8374"
       cy="476.14212"
       fx="1262.8374"
       fy="476.14212"
       r="207.33151" />
  </defs>
  <sodipodi:namedview
     id="base"
     pagecolor="#ffffff"
     bordercolor="#666666"
     borderopacity="1.0"
     gridtolerance="10000"
     guidetolerance="10"
     objecttolerance="10"
     inkscape:pageopacity="0.0"
     inkscape:pageshadow="2"
     inkscape:zoom="1.1157556"
     inkscape:cx="-20.46517"
     inkscape:cy="166.54915"
     inkscape:document-units="px"
     inkscape:current-layer="svg2"
     inkscape:window-width="1276"
     inkscape:window-height="761"
     inkscape:window-x="0"
     inkscape:window-y="18"
     showgrid="false"
     fit-margin-left="20"
     fit-margin-top="20"
     fit-margin-bottom="200"
     fit-margin-right="150"
     inkscape:window-maximized="0" />
  <metadata
     id="metadata7">
    <rdf:RDF>
      <cc:Work
         rdf:about="">
        <dc:format>image/svg+xml</dc:format>
        <dc:type
           rdf:resource="http://purl.org/dc/dcmitype/StillImage" />
        <dc:title />
      </cc:Work>
    </rdf:RDF>
  </metadata>
  <g>
  <path
     style="fill:url(#radialGradient3016);fill-opacity:1;stroke:url(#radialGradient3018);stroke-width:0.03031376"
     d="M 9.7140988,1.5910876 C 3.5926433,0.88191805 -1.8628496,7.6199844 1.0883445,13.321597 2.5837752,16.826837 6.892275,20.375491 4.810961,24.462056 11.309253,26.495953 13.535417,23.870939 14.40458,18.193922 16.646813,15.20264 19.884145,11.93607 18.443403,7.7652648 17.965495,3.6664465 13.287792,1.8497206 9.7140988,1.5910876 z"
     id="path6323"
     inkscape:connector-curvature="0" />
  <path
     style="fill:url(#linearGradient3021);fill-opacity:1"
     d="m 4.7208165,24.450061 c -0.034205,1.505895 -0.3578952,3.372436 0.6933619,4.530123 1.6039597,0.519208 2.9012847,2.878736 4.8644536,1.239257 1.425231,-1.34715 4.210873,-1.718281 3.498213,-4.236919 0.426053,-1.640239 -0.615655,-1.826876 -2.314722,-1.531914 -2.2469201,-3.74e-4 -4.495246,7.41e-4 -6.7413065,-5.47e-4 z"
     id="path2393"
     inkscape:connector-curvature="0" />
  <path
     style="fill:url(#radialGradient3024);fill-opacity:1"
     d="M 18.839925,9.792636 C 10.93616,19.446565 -0.42800256,-3.111275 13.781587,1.1123811 c 2.984761,1.2417458 6.613525,4.8118034 5.058338,8.6802549 z"
     id="path4367"
     inkscape:connector-curvature="0" />
  <path
     style="fill:#000000"
     d="M 7.8464454,30.767712 C 4.5846956,29.727413 3.7156023,26.289863 5.0667132,23.563857 4.2113572,16.39782 -5.6727372,6.7786824 5.5193423,2.2067225 15.342689,-2.275605 23.968136,11.289238 14.747359,17.497948 c -4.285343,4.161857 1.539697,8.697535 -2.956321,11.547014 -1.194421,0.694945 -2.2111633,2.423961 -3.9445926,1.72275 z m 2.4299196,-0.874517 c -0.190702,-1.69164 -4.2672365,-0.217701 -0.8007322,-0.138022 0.9271582,-0.695224 0.2321255,0.268292 0.8007252,0.137925 l 7e-6,9.7e-5 z M 8.1649496,29.688451 c -0.1995451,-0.125492 -0.170867,0.225992 0,0 z M 6.8497518,29.359974 c -0.028135,-0.434967 -0.407368,0.228935 0,0 z m 0.9613017,-0.445126 c 8.6647835,-0.08227 1.553834,-1.092323 -2.6060325,-0.247656 0.7749368,0.398156 1.7720888,0.252903 2.6060325,0.247656 z M 6.4662562,28.195617 C 11.584215,28.466215 16.39014,27.317245 7.9879968,27.691921 6.2596611,27.354276 2.9517215,28.083408 6.4662562,28.195617 z m 6.2970518,-0.834374 c -0.444387,-1.211893 -13.7864434,0.227724 -3.2889504,0.08659 l 1.9232014,0.02816 1.365749,-0.114683 0,-7.8e-5 z M 6.304191,26.666414 c 5.807112,0.503147 9.486257,-0.538997 1.3950632,-0.403856 -2.4491607,-0.251904 -4.0028303,0.359473 -1.3950632,0.403856 z m 6.613485,-0.552616 c -0.678365,-1.324256 -14.0689237,-0.04931 -3.3017602,0.06075 l 2.0770092,0.06766 1.224751,-0.128397 0,4.9e-5 z m -0.576772,-0.630233 c 3.810417,-1.948176 -12.42846664,-0.237912 -5.236685,-0.476352 0.9496074,0.870596 3.753618,0.497612 5.236685,0.476352 z m 0.03763,-0.847262 C 13.582758,16.990331 24.945216,5.552247 11.633117,2.1448658 7.6708754,0.39666647 0.91203372,4.725996 1.4272072,6.5670283 0.09802854,7.7858612 1.2962537,8.6673855 0.30849174,9.7476082 1.0015709,10.235532 0.45651846,11.644779 0.99413702,12.23875 c 0.31719928,0.786394 0.16367808,1.587532 1.25019428,2.02988 -0.4342302,0.958355 0.4737143,1.344334 1.0118269,2.303169 0.4149391,0.995155 1.2941605,1.091275 1.2710033,2.378116 0.9467884,0.731477 0.7597898,1.703192 0.8887612,2.790132 C 5.2384773,22.920792 6.4926273,26.54249 6.6063715,21.028898 6.7357685,16.169068 2.3450772,7.0317411 4.2767099,9.2405203 1.8594557,8.6388311 8.533715,17.08922 7.1815438,21.426632 9.4348898,30.703442 10.871663,16.337088 13.265607,13.325883 16.612679,7.0263108 12.35117,9.5029881 13.088144,8.6122181 13.158795,8.290431 13.180823,8.6596967 14.899381,8.0388621 15.013827,12.891676 7.7162177,21.581158 12.378532,24.636303 z M 7.8993494,16.238517 c -1.8860632,-2.07311 -0.2477605,-2.62016 0.6771891,-1.802799 0.2371198,2.724718 -0.8490939,-0.332042 -0.6771891,1.802799 z m -0.041003,-1.377751 c -0.2178003,-0.464357 -0.3674437,0.818773 0,0 z M 5.3765643,10.015304 c 1.0066195,6.29471 -0.3165598,-4.9400046 0,0 z m 1.1634104,-0.057281 c 0.6300265,0.4156198 -0.9245209,-4.3810176 0,0 z m 1.0751477,-0.069679 c -0.2903656,0.2912433 0.1688445,-3.4818573 0,0 z m 2.038225,-0.1262498 c -0.525233,-0.3017769 0.6772266,-2.5249921 0,0 z M 8.5993668,9.6914511 c -0.1625411,-0.6193064 0.5521137,-2.8053365 0,0 z m 2.0428462,-0.074005 c -1.4331222,-2.4728427 3.435536,-0.8977862 -10e-7,-4.81e-5 l 10e-7,4.81e-5 z m 1.500444,-0.5205917 c -1.17804,-2.921524 -0.808849,0.7217986 0,0 z m 0.31146,-2.1609259 c -1.876073,-3.5804182 3.519795,0.4812631 0,0 z m 0.644412,-0.2219188 c 0.277772,-2.5036555 -1.64405,0.1511714 0,0 z m 0.956072,-0.041135 c -1.995171,-3.7162319 3.421354,0.5124509 0,0 z M 14.760218,6.362765 c -0.386553,-2.1456156 -1.391439,0.2362296 0,0 z M 11.479921,5.1187126 c -2.9910776,-3.8233853 3.748789,0.6424976 0,0 z M 12.31576,4.8468452 c -1.841071,-3.86275209 -1.297316,0.770757 0,0 z m 1.050302,0.1680297 c -4.0246144,-3.3956845 2.7324,-0.4944109 0,0 z m 0.319643,-0.34766 c -1.270995,-2.490546 -1.883124,0.040079 0,0 z m -2.8396,18.5811011 c 0.741333,-9.622665 -0.262954,-4.082575 0,0 z m -3.9790768,0.408537 c -0.123421,0.06382 0.1130855,0.35778 0,0 z m 0.096424,-2.489038 c -0.070337,-5.108611 -0.2496536,3.919285 0,0 z m 0.091188,-2.952655 c -0.544714,-5.02163 -0.3448127,2.965247 0,0 z"
     id="path2223"
     inkscape:connector-curvature="0" />
  <path
     style="fill:#ffff00;fill-opacity:1"
     d="m 106.62281,12.126998 c 4.11539,-0.383465 0.99696,6.466896 1.96561,9.230174 -3.00359,3.280026 -1.75193,-4.894091 -1.96561,-7.168707 0,-0.687156 0,-1.374311 0,-2.061467 z"
     id="rect2383"
     inkscape:connector-curvature="0" />
     
     </g>
</svg>
