<?xml version="1.0" encoding="UTF-8"?>
<!DOCTYPE svg PUBLIC "-//W3C//DTD SVG 1.1//EN" "http://www.w3.org/Graphics/SVG/1.1/DTD/svg11-flat-20030114.dtd">
<svg xmlns="http://www.w3.org/2000/svg"
 xmlns:xlink="http://www.w3.org/1999/xlink" 
 xmlns:z="http://debeissat.nicolas.free.fr/svg3d/svg3d.rng"
onload="svg3d.init(this)" z:rotationTime="300"  z:showNormal="true" z:xInfinite="120" z:yInfinite="120" z:focalDistance="1200" >
 	<script type="text/ecmascript" xlink:href="../svg3d/svg3d.js" />
    <script type="text/ecmascript" xlink:href="../svg3d/svg3d_parsing.js" />
    <script type="text/ecmascript" xlink:href="../svg3d/dom_utils.js" />
	<title>SVG Animation - Cube Demonstration</title>
	
	<g id="g2" onclick="svg3d.toggleRotation()">
		<path id="red" style="fill: red;" d="M-60,-60L60,-60L60,60L-60,60z">
            <z:rotation incRotX="0.07" incRotY="0.03" incRotZ="0.02"/>
            <z:translation z="-60"/>
        </path>
		<!-- html -->
		<path id="html" style="fill: none; stroke-width: 2px; stroke: black" d="M-40,-40L-40,40 M-40,0L-20,0 M-20,40L-20,-40 M-15,-40L-5,-40L-5,40 M-5,-40L5,-40 M10,40L10,-40L20,0L30,-40L30,40 M35,-40L35,40L55,40">
            <z:rotation incRotX="0.07" incRotY="0.03" incRotZ="0.02"/>
            <z:translation z="-61"/>
        </path>
		
		<path id="blue" style="fill: blue;" d="M-60,-60L60,-60L60,60L-60,60z">
            <z:rotation incRotX="0.07" incRotY="0.03" incRotZ="0.02"/>
            <z:translation y="-60"/>
            <z:optimizedrotation cosX="0" sinX="-1" cosY="1" sinY="0" cosZ="1" sinZ="0"/>
        </path>
		<!-- xml -->
		<path id="xml" style="fill: none; stroke-width: 2px; stroke: black" d="M-40,-40L-20,40 M-40,40L-20,-40 M-15,40L-15,-40L-5,0L5,-40L5,40 M10,-40L10,40L30,40">
            <z:rotation incRotX="0.07" incRotY="0.03" incRotZ="0.02"/>
            <z:translation y="-61"/>
            <z:optimizedrotation cosX="0" sinX="-1" cosY="1" sinY="0" cosZ="1" sinZ="0"/>
        </path>
		
		<path id="green" style="fill: green;" d="M-60,-60L60,-60L60,60L-60,60z">
            <z:rotation incRotX="0.07" incRotY="0.03" incRotZ="0.02"/>
            <z:translation x="-60"/>
            <z:optimizedrotation cosX="1" sinX="0" cosY="0" sinY="-1" cosZ="1" sinZ="0"/>
        </path>
		<!-- rng -->
		<path id="rng" style="fill: none; stroke-width: 2px; stroke: black" d="M-40,40 L-40,-40 C-15,-40 -15,0 -40,0 L-20,40 M-15,40 L-15,-40 L5,40 L5,-40 M30,-10 C5,-120 5,120 30,10 L20,10">
            <z:rotation incRotX="0.07" incRotY="0.03" incRotZ="0.02"/>
            <z:translation x="-61"/>
            <z:optimizedrotation cosX="1" sinX="0" cosY="0" sinY="-1" cosZ="1" sinZ="0"/>
        </path>
		
		<path id="yellow" style="fill: yellow;" d="M-60,-60L60,-60L60,60L-60,60z">
            <z:rotation incRotX="0.07" incRotY="0.03" incRotZ="0.02"/>
            <z:translation z="60"/>
        </path>
        <!-- xsd -->
		<path id="xsd" style="fill: none; stroke-width: 2px; stroke: black;" d="M-40,-40L-20,40 M-40,40L-20,-40 M5,-30C-20,-60 -20,-5 -5,0C10,5 10,60 -15,30 M10,-40C40,-40 40,40 10,40L10,-40">
            <z:rotation incRotX="0.07" incRotY="0.03" incRotZ="0.02"/>
            <z:translation z="61"/>
        </path>
		
		<path id="grey" style="fill: grey;" d="M-60,-60L60,-60L60,60L-60,60z">
            <z:rotation incRotX="0.07" incRotY="0.03" incRotZ="0.02"/>
            <z:translation y="60"/>
            <z:optimizedrotation cosX="0" sinX="-1" cosY="1" sinY="0" cosZ="1" sinZ="0"/>
        </path>
		
		<path id="purple" style="fill: purple;" d="M-60,-60L60,-60L60,60L-60,60z">
            <z:rotation incRotX="0.07" incRotY="0.03" incRotZ="0.02"/>
            <z:translation x="60"/>
            <z:optimizedrotation cosX="1" sinX="0" cosY="0" sinY="-1" cosZ="1" sinZ="0"/>
        </path>
		
	</g>
	
</svg>
