<?xml version="1.0" encoding="UTF-8"?>
<!DOCTYPE svg PUBLIC "-//W3C//DTD SVG 1.1//EN" "http://www.w3.org/Graphics/SVG/1.1/DTD/svg11-flat-20030114.dtd">
<svg xmlns="http://www.w3.org/2000/svg"
 xmlns:xlink="http://www.w3.org/1999/xlink" 
 xmlns:z="http://debeissat.nicolas.free.fr/svg3d/svg3d.rng"
onload="svg3d.init(this)" z:rotationTime="150" z:xInfinite="120" z:yInfinite="120" z:focalDistance="1200" z:sortAlgo="allToAll">
 	<script type="text/ecmascript" xlink:href="../svg3d/svg3d.js" />
    <script type="text/ecmascript" xlink:href="../svg3d/svg3d_parsing.js" />
    <script type="text/ecmascript" xlink:href="../svg3d/dom_utils.js" />    
	<title>SVG Animation - Cube Demonstration</title>
	
	<g id="g2" onclick="svg3d.toggleRotation()">
        <!-- behind face -->
	<path id="red" style="fill: red;" d="M-60,-60,-60L60,-60,-60L60,60,-60L-60,60,-60z" z:threeD="true">
            <z:rotation incRotX="0.07" incRotY="0.03" incRotZ="0.02"/>
        </path>
	<!-- html -->
	<text id="html" style="fill: none; stroke-width: 2px; stroke: black" font-size="120"
		x="-180" y="40" z:z="-61" width="80" height="80" z:threeD="true" transform="scale(0.25,-1)" writing-mode="lr">
		HTML
            <z:rotation incRotX="0.07" incRotY="0.03" incRotZ="0.02"/>
        </text>
		
        <!-- above face -->
	<path id="blue" style="fill: blue;" d="M-60,-60,-60L60,-60,-60L60,-60,60L-60,-60,60z" z:threeD="true">
            <z:rotation incRotX="0.07" incRotY="0.03" incRotZ="0.02"/>
        </path>
	<!-- xml -->
	<text id="xml" style="fill: none; stroke-width: 2px; stroke: black" font-size="120"
            x="-140" y="40" z:z="-61" width="80" height="80" z:threeD="true" transform="scale(0.3,1)">
		XML
            <z:rotation incRotX="0.07" incRotY="0.03" incRotZ="0.02"/>
            <z:rotation rotX="1.57"/>
        </text>
		
        <!-- left face -->
	<path id="green" style="fill: green;" d="M-60,-60,-60L-60,60,-60L-60,60,60L-60,-60,60z" z:threeD="true">
            <z:rotation incRotX="0.07" incRotY="0.03" incRotZ="0.02"/>
        </path>
	<!-- rng -->
	<text id="rng" style="fill: none; stroke-width: 2px; stroke: black" font-size="120"
	    x="-120" y="40" z:z="-61" width="80" height="80" z:threeD="true" transform="scale(0.3,1)">
            RNG
            <z:rotation incRotX="0.07" incRotY="0.03" incRotZ="0.02"/>
            <z:rotation rotY="1.57"/>
        </text>
		
        <!-- front face -->
	<path id="yellow" style="fill: yellow;" d="M-60,-60,60L60,-60,60L60,60,60L-60,60,60z" z:threeD="true">
            <z:rotation incRotX="0.07" incRotY="0.03" incRotZ="0.02"/>
        </path>
        <!-- xsd -->
	<text id="xsd" style="fill: none; stroke-width: 2px; stroke: black" font-size="120"
	    x="-120" y="40" z:z="61" width="80" height="80" z:threeD="true" transform="scale(0.3,1)">
            XSD
            <z:rotation incRotX="0.07" incRotY="0.03" incRotZ="0.02"/>
        </text>
		
        <!-- below face -->
	<path id="grey" style="fill: grey;" d="M-60,60,-60L60,60,-60L60,60,60L-60,60,60z" z:threeD="true">
            <z:rotation incRotX="0.07" incRotY="0.03" incRotZ="0.02"/>
        </path>
		
        <!-- right face -->
	<path id="purple" style="fill: purple;" d="M60,-60,-60L60,60,-60L60,60,60L60,-60,60z" z:threeD="true">
            <z:rotation incRotX="0.07" incRotY="0.03" incRotZ="0.02"/>
        </path>
		
	</g>
	
</svg>
