<?xml version="1.0" encoding="UTF-8"?>
<!DOCTYPE svg PUBLIC "-//W3C//DTD SVG 1.1//EN" "http://www.w3.org/Graphics/SVG/1.1/DTD/svg11-flat-20030114.dtd">
<svg xmlns="http://www.w3.org/2000/svg" xmlns:xlink="http://www.w3.org/1999/xlink" xmlns:z="http://debeissat.nicolas.free.fr/svg3d/svg3d.rng" width="100%" height="100%">
    <script type="text/ecmascript" xlink:href="../svg3d/svg3d_parsing.js"></script>
    <script type="text/ecmascript" xlink:href="js/man_custom/svg3d.js"></script>
    <script type="text/ecmascript" xlink:href="../svg3d/dom_utils.js"></script>
    <script type="text/ecmascript" xlink:href="js/man.js"></script>
<g onload="rotate('path3433_Clone')" transform="scale(0.2)">
<path d="M2635.6841034354225,2656.5523034354223C2640.5571734354226,2653.3070134354225,2680.0458334354225,2603.5430234354226,2680.0458334354225,2603.5430234354226C2680.0458334354225,2603.5430234354226,2682.2028334354227,2608.9553534354222,2681.1244334354224,2586.2376834354222C2680.0458334354225,2563.5151634354224,2685.9924334354223,2447.7603334354226,2678.413143435422,2428.8324034354223C2670.8491134354226,2409.8994234354222,2632.9830334354224,2333.6333634354223,2631.8996134354225,2329.8437134354226C2630.8210434354223,2326.0591034354225,2617.8346634354225,2308.2095434354223,2617.8346634354225,2308.2095434354223C2617.8346634354225,2308.2095434354223,2604.3140334354225,2301.7188234354226,2604.3140334354225,2301.7188234354226C2604.3140334354225,2301.7188234354226,2590.7933034354223,2295.2281234354223,2590.7933034354223,2295.2281234354223C2590.7933034354223,2295.2281234354223,2590.7933034354223,2290.3550434354224,2590.7933034354223,2287.119723435422C2590.7933034354223,2283.8693734354224,2586.4644534354225,2281.1681934354224,2582.1356234354225,2275.2166534354224C2577.8118534354226,2269.2702734354225,2570.7769134354226,2252.4991734354226,2569.1542034354225,2248.1653134354224C2567.5314734354224,2243.836493435422,2565.3746234354226,2240.0568234354223,2563.2077034354224,2238.9734034354224C2561.0407634354224,2237.8903234354225,2554.0159034354224,2238.9734034354224,2554.0159034354224,2238.9734034354224C2554.0159034354224,2238.9734034354224,2549.6869634354225,2241.1403334354222,2549.6869634354225,2241.1403334354222C2549.6869634354225,2241.1403334354222,2547.5200034354225,2238.9734034354224,2547.5200034354225,2238.9734034354224C2547.5200034354225,2238.9734034354224,2555.6335534354225,2232.4826834354226,2555.6335534354225,2228.6980744354223C2555.6335534354225,2224.9134704354224,2558.8788634354223,2219.5061744354225,2558.8788634354223,2219.5061744354225C2558.8788634354223,2219.5061744354225,2557.8002734354222,2211.9269934354224,2557.8002734354222,2211.9269934354224C2557.8002734354222,2211.9269934354224,2556.1775634354226,2209.2258994354224,2556.1775634354226,2209.2258994354224C2556.1775634354226,2209.2258994354224,2553.4663034354226,2207.0589774354225,2553.4663034354226,2207.0589774354225C2553.4663034354226,2207.0589774354225,2558.3394634354227,2201.6516684354224,2558.3394634354227,2194.6167174354223C2558.3394634354227,2187.5918634354225,2557.8001634354223,2171.3598524354225,2557.8001634354223,2171.3598524354225C2557.8001634354223,2171.3598524354225,2551.8486234354223,2154.0547234354226,2547.5196834354224,2150.804265435422C2543.1909734354226,2147.5639044354225,2545.8970934354224,2145.3919214354223,2531.8321134354223,2141.6123534354224C2517.7722034354224,2137.8277491354224,2511.8207734354223,2137.8277491354224,2502.6238234354223,2141.6123534354224C2493.4268634354225,2145.3919214354223,2483.1516634354225,2154.5938074354226,2483.1516634354225,2154.5938074354226C2483.1516634354225,2154.5938074354226,2477.7443534354225,2156.2165114354225,2476.1216434354224,2162.168038435422C2474.494003435422,2168.1145414354223,2470.7094034354222,2183.2629184354228,2470.7094034354222,2185.969034435422C2470.7094034354222,2188.6702264354226,2473.4104734354223,2192.9990484354225,2473.4104734354223,2192.9990484354225C2473.4104734354223,2192.9990484354225,2469.6309134354224,2194.6167174354223,2469.6309134354224,2194.6167174354223C2469.6309134354224,2194.6167174354223,2465.3071334354227,2197.8670644354224,2464.7629034354222,2201.6516684354224C2464.2191234354223,2205.4413204354223,2465.3066734354225,2214.6332084354226,2465.3066734354225,2214.6332084354226C2465.3066734354225,2214.6332084354226,2464.7629034354222,2221.6681844354225,2469.0912734354224,2222.7466464354225C2473.4100234354223,2223.8353414354224,2473.4100234354223,2222.207353435422,2473.4100234354223,2222.207353435422C2473.4100234354223,2222.207353435422,2474.4931134354224,2232.4828034354223,2474.4931134354224,2232.4828034354223C2474.4931134354224,2232.4828034354223,2475.0368934354224,2247.6311734354226,2475.0368934354224,2247.6311734354226C2475.0368934354224,2247.6311734354226,2477.2038134354225,2247.0929934354226,2467.4627434354225,2246.5525834354225C2457.731763435422,2246.003183435422,2448.5297634354224,2244.9248134354225,2448.5297634354224,2244.9248134354225C2448.5297634354224,2244.9248134354225,2441.5048934354227,2247.0917734354225,2441.5048934354227,2247.0917734354225C2441.5048934354227,2247.0917734354225,2437.1760734354225,2254.6609534354225,2437.1760734354225,2254.6609534354225C2437.1760734354225,2254.6609534354225,2439.8771434354226,2251.9548334354226,2435.0140834354224,2264.3969934354222C2430.1411234354223,2276.8343134354222,2428.5183134354224,2279.5404334354225,2426.3565234354223,2283.3250334354225C2424.189603435422,2287.1195934354223,2421.4934434354223,2290.9042034354225,2424.7338134354222,2296.3165734354225C2427.9740834354225,2301.7187334354226,2423.1161734354223,2303.8807134354224,2423.1161734354223,2303.8807134354224C2423.1161734354223,2303.8807134354224,2411.7523734354227,2306.0476434354223,2401.4719034354225,2314.1611034354223C2391.2017334354223,2322.2794434354223,2386.328573435422,2333.0889134354225,2379.8378534354224,2347.1539834354226C2373.3520534354225,2361.2188534354223,2349.0068434354225,2482.3759434354224,2346.3057734354225,2515.3737634354225C2343.5944734354225,2548.3717234354226,2340.8884834354226,2570.0057734354223,2349.0068434354225,2597.5965234354226C2357.1202734354224,2625.1821234354225,2360.9098934354224,2630.0450934354226,2360.9098934354224,2630.0450934354226C2360.9098934354224,2630.0450934354226,2374.4306534354223,2638.7027434354222,2374.4306534354223,2638.7027434354222C2374.4306534354223,2638.7027434354222,2379.8378534354224,2644.1049934354223,2379.8378534354224,2644.1049934354223C2379.8378534354224,2644.1049934354223,2383.6274834354226,2652.767693435422,2383.6274834354226,2652.767693435422C2383.6274834354226,2652.767693435422,2380.9212634354226,2657.0965334354223,2387.4120834354226,2652.767693435422C2393.9028034354224,2648.4338234354223,2396.6089334354224,2645.7276134354224,2396.6089334354224,2645.7276134354224C2396.6089334354224,2645.7276134354224,2399.8543434354224,2646.8162934354223,2399.8543434354224,2646.8162934354223C2399.8543434354224,2646.8162934354223,2402.5554434354226,2652.7678234354225,2402.5554434354226,2652.7678234354225C2402.5554434354226,2652.7678234354225,2407.9677734354223,2655.4739334354226,2407.9677734354223,2655.4739334354226C2407.9677734354223,2655.4739334354226,2409.0508634354223,2660.881243435422,2409.0508634354223,2660.881243435422C2409.0508634354223,2660.881243435422,2410.6735634354222,2673.3235034354225,2409.0508634354223,2684.6823634354223C2407.4229834354223,2696.041093435422,2405.2611934354222,2712.8071334354227,2404.7220234354227,2720.3812534354224C2404.1771334354225,2727.9555134354223,2402.0157834354222,2764.1938334354227,2407.4229834354223,2786.9112934354225C2412.8302934354224,2809.6288734354225,2413.9138334354225,2823.1546734354224,2414.4531134354224,2838.2981134354222C2414.996883435422,2853.4464934354223,2416.0757134354226,2863.177473435422,2416.0757134354226,2863.177473435422C2416.0757134354226,2863.177473435422,2417.164403435422,2882.6497334354226,2415.5420234354224,2908.6126134354226C2413.9142734354223,2934.5756234354226,2411.2130834354225,2947.012833435422,2415.5420234354224,2953.5084934354227C2419.8657034354223,2959.9993134354227,2422.5668934354226,2967.0292234354224,2422.5668934354226,2967.0292234354224C2422.5668934354226,2967.0292234354224,2419.8657034354223,2966.4854534354226,2417.7039234354224,2970.8138334354226C2415.5420234354224,2975.1426534354223,2412.8307434354224,2978.3880634354223,2412.8307434354224,2984.8838434354225C2412.8307434354224,2991.3745634354223,2418.7873234354224,3009.2240134354224,2418.7873234354224,3009.2240134354224C2418.7873234354224,3009.2240134354224,2413.3749834354226,3027.0685434354223,2413.3749834354226,3027.0685434354223C2413.3749834354226,3027.0685434354223,2413.3749834354226,3037.8880934354224,2413.3749834354226,3037.8880934354224C2413.3749834354226,3037.8880934354224,2416.6203934354226,3043.8396234354223,2416.6203934354226,3043.8396234354223C2416.6203934354226,3043.8396234354223,2416.0766134354226,3047.0900834354225,2410.6738834354223,3058.9880034354223C2405.2615534354222,3070.886033435422,2401.4719034354225,3071.9643934354226,2402.5554434354226,3080.0828834354224C2403.6441134354222,3088.1964034354223,2399.8543434354224,3094.681973435422,2406.3450634354226,3099.0159434354223C2412.8307434354224,3103.3345734354225,2434.4698334354225,3109.2861334354225,2434.4698334354225,3109.2861334354225C2434.4698334354225,3109.2861334354225,2437.1760734354225,3108.2131534354226,2442.039043435422,3106.0408134354225C2446.9122034354223,3103.8789134354224,2458.265893435422,3100.0892834354227,2458.265893435422,3092.5200834354223C2458.265893435422,3084.950873435422,2458.265893435422,3071.9643934354226,2460.4327334354225,3071.4253234354223C2462.5997734354223,3070.886033435422,2464.2173334354225,3070.342253435422,2464.2173334354225,3070.342253435422C2464.2173334354225,3070.342253435422,2474.4927634354226,3061.1504634354224,2474.4927634354226,3061.1504634354224C2474.4927634354226,3061.1504634354224,2473.4096934354225,3053.0371234354225,2473.4096934354225,3049.2475034354225C2473.4096934354225,3045.4679434354225,2477.2042534354223,3040.5897234354225,2477.2042534354223,3040.5897234354225C2477.2042534354223,3040.5897234354225,2483.6949934354225,3025.4463834354224,2483.6949934354225,3025.4463834354224C2483.6949934354225,3025.4463834354224,2485.8519534354223,3020.5783734354227,2485.8519534354223,3020.5783734354227C2485.8519534354223,3020.5783734354227,2488.5580734354226,3014.6268234354225,2490.1807734354225,3009.7638534354223C2491.8034834354225,3004.895863435422,2492.8868934354223,2998.4050234354227,2492.8868934354223,2998.4050234354227C2492.8868934354223,2998.4050234354227,2490.1807734354225,2996.7773834354225,2490.1807734354225,2996.7773834354225C2490.1807734354225,2996.7773834354225,2492.8868934354223,2992.4484334354224,2492.8868934354223,2992.4484334354224C2492.8868934354223,2992.4484334354224,2489.1023034354225,2978.9226534354225,2489.1023034354225,2978.9226534354225C2489.1023034354225,2978.9226534354225,2475.5766234354223,2915.6482434354225,2479.9053534354225,2890.7686634354222C2484.1789034354224,2866.2016734354224,2488.5580734354226,2843.5143634354226,2495.5930234354223,2824.2286534354225C2499.110543435422,2814.5731234354225,2497.2157234354227,2802.5944934354225,2497.2157234354227,2802.5944934354225C2497.2157234354227,2802.5944934354225,2506.4125634354223,2759.3212234354223,2506.4125634354223,2759.3212234354223C2506.4125634354223,2759.3212234354223,2503.7064434354224,2738.2264734354226,2503.7064434354224,2738.2264734354226C2503.7064434354224,2738.2264734354226,2508.5745834354225,2738.2264734354226,2508.5745834354225,2738.2264734354226C2508.5745834354225,2738.2264734354226,2508.0307834354226,2753.9190734354224,2509.1138634354224,2757.6986234354226C2510.1969334354226,2761.4881634354224,2521.5561234354223,2815.0367534354223,2521.5561234354223,2815.0367534354223C2521.5561234354223,2815.0367534354223,2522.6448034354225,2824.2286534354225,2522.6448034354225,2824.2286534354225C2522.6448034354225,2824.2286534354225,2529.1304834354223,2908.0740034354226,2525.8850734354223,2915.6482434354225C2522.6448034354225,2923.2173334354225,2523.1740134354222,2931.8749834354226,2521.5563634354226,2941.0618634354223C2519.9386934354225,2950.2687934354226,2518.315863435422,2968.1133034354225,2521.5563634354226,2974.0647334354226C2524.7966234354226,2980.011213435422,2532.9100434354223,2983.8008734354225,2532.9100434354223,2983.8008734354225C2532.9100434354223,2983.8008734354225,2536.1655434354225,2989.2081734354224,2532.3763634354223,2993.5319734354225C2528.5867034354224,2997.8608034354224,2524.7970634354224,3005.9792534354224,2524.7970634354224,3005.9792534354224C2524.7970634354224,3005.9792534354224,2527.5083434354224,3007.6018734354225,2529.6702434354224,3008.6804434354226C2531.8320134354226,3009.7635334354227,2535.0824734354223,3011.3864734354224,2535.0824734354223,3011.3864734354224C2535.0824734354223,3011.3864734354224,2536.1655434354225,3021.122603435422,2536.1655434354225,3021.122603435422C2536.1655434354225,3021.122603435422,2536.6992434354224,3030.8587334354224,2538.8615834354223,3035.187443435422C2541.0285134354226,3039.5163934354223,2543.1904134354227,3045.4679434354225,2543.1904134354227,3045.4679434354225C2543.1904134354227,3045.4679434354225,2543.1904134354227,3063.8465934354226,2545.3523034354225,3066.0135234354225C2547.5192334354224,3068.180353435422,2555.0883234354224,3074.6712034354223,2555.0883234354224,3074.6712034354223C2555.0883234354224,3074.6712034354223,2563.2068034354224,3083.862993435422,2563.2068034354224,3083.862993435422C2563.2068034354224,3083.862993435422,2561.0398534354226,3087.1133334354226,2564.2898634354224,3093.6041834354223C2567.5302534354223,3100.0898534354224,2570.2363734354226,3110.9196034354227,2582.6735734354224,3112.5371634354224C2595.1158534354227,3114.1548034354223,2617.8334134354222,3113.0719534354225,2617.8334134354222,3113.0719534354225C2617.8334134354222,3113.0719534354225,2622.7066034354225,3101.1739234354227,2622.7066034354225,3101.1739234354227C2622.7066034354225,3101.1739234354227,2623.7851734354226,3091.977083435422,2621.6235134354224,3086.025543435422C2619.4616134354224,3080.0841034354225,2603.2297234354223,3049.2480534354227,2603.2297234354223,3049.2480534354227C2603.2297234354223,3049.2480534354227,2607.0193634354223,3038.9727334354225,2607.0193634354223,3038.9727334354225C2607.0193634354223,3038.9727334354225,2608.6420734354224,3022.7459934354224,2608.6420734354224,3022.7459934354224C2608.6420734354224,3022.7459934354224,2604.8524334354224,3005.4356034354223,2604.8524334354224,3005.4356034354223C2604.8524334354224,3005.4356034354223,2614.0492834354222,3000.0333434354225,2614.0492834354222,2995.1552434354226C2614.0492834354222,2990.2872234354227,2610.2596234354223,2975.6881334354225,2610.2596234354223,2975.6881334354225C2610.2596234354223,2975.6881334354225,2609.1866434354224,2974.0654034354225,2613.5150234354223,2967.569643435422C2617.8338834354226,2961.083973435422,2619.9956334354224,2938.9005334354224,2615.1377234354222,2914.5652634354224C2610.2596234354223,2890.2200534354224,2604.3131234354223,2860.4724534354223,2604.3131234354223,2860.4724534354223C2604.3131234354223,2860.4724534354223,2601.0678234354223,2844.789943435422,2601.0678234354223,2844.789943435422C2601.0678234354223,2844.789943435422,2602.6954634354224,2821.528133435422,2603.2297234354223,2806.9239834354225C2603.7791034354223,2792.3148034354226,2608.0977234354223,2733.9032334354224,2608.0977234354223,2733.9032334354224C2608.0977234354223,2733.9032334354224,2604.3131234354223,2711.1856534354224,2604.3131234354223,2711.1856534354224C2604.3131234354223,2711.1856534354224,2605.3962034354226,2690.0857534354227,2603.2300534354226,2676.5651034354223C2601.0681534354226,2663.0443634354224,2606.475463435422,2655.4751834354224,2606.475463435422,2655.4751834354224C2606.475463435422,2655.4751834354224,2617.8342034354223,2665.2062634354224,2617.8342034354223,2665.2062634354224C2617.8342034354223,2665.2062634354224,2628.1095434354224,2659.7990834354223,2628.1095434354224,2659.7990834354223" style="fill:#2e3436;fill-opacity:1;fill-rule:evenodd;stroke:none" id="path3433">
    </path>
<path d="M2635.6841034354225,2656.5523034354223C2640.5571734354226,2653.3070134354225,2680.0458334354225,2603.5430234354226,2680.0458334354225,2603.5430234354226C2680.0458334354225,2603.5430234354226,2682.2028334354227,2608.9553534354222,2681.1244334354224,2586.2376834354222C2680.0458334354225,2563.5151634354224,2685.9924334354223,2447.7603334354226,2678.413143435422,2428.8324034354223C2670.8491134354226,2409.8994234354222,2632.9830334354224,2333.6333634354223,2631.8996134354225,2329.8437134354226C2630.8210434354223,2326.0591034354225,2617.8346634354225,2308.2095434354223,2617.8346634354225,2308.2095434354223C2617.8346634354225,2308.2095434354223,2604.3140334354225,2301.7188234354226,2604.3140334354225,2301.7188234354226C2604.3140334354225,2301.7188234354226,2590.7933034354223,2295.2281234354223,2590.7933034354223,2295.2281234354223C2590.7933034354223,2295.2281234354223,2590.7933034354223,2290.3550434354224,2590.7933034354223,2287.119723435422C2590.7933034354223,2283.8693734354224,2586.4644534354225,2281.1681934354224,2582.1356234354225,2275.2166534354224C2577.8118534354226,2269.2702734354225,2570.7769134354226,2252.4991734354226,2569.1542034354225,2248.1653134354224C2567.5314734354224,2243.836493435422,2565.3746234354226,2240.0568234354223,2563.2077034354224,2238.9734034354224C2561.0407634354224,2237.8903234354225,2554.0159034354224,2238.9734034354224,2554.0159034354224,2238.9734034354224C2554.0159034354224,2238.9734034354224,2549.6869634354225,2241.1403334354222,2549.6869634354225,2241.1403334354222C2549.6869634354225,2241.1403334354222,2547.5200034354225,2238.9734034354224,2547.5200034354225,2238.9734034354224C2547.5200034354225,2238.9734034354224,2555.6335534354225,2232.4826834354226,2555.6335534354225,2228.6980744354223C2555.6335534354225,2224.9134704354224,2558.8788634354223,2219.5061744354225,2558.8788634354223,2219.5061744354225C2558.8788634354223,2219.5061744354225,2557.8002734354222,2211.9269934354224,2557.8002734354222,2211.9269934354224C2557.8002734354222,2211.9269934354224,2556.1775634354226,2209.2258994354224,2556.1775634354226,2209.2258994354224C2556.1775634354226,2209.2258994354224,2553.4663034354226,2207.0589774354225,2553.4663034354226,2207.0589774354225C2553.4663034354226,2207.0589774354225,2558.3394634354227,2201.6516684354224,2558.3394634354227,2194.6167174354223C2558.3394634354227,2187.5918634354225,2557.8001634354223,2171.3598524354225,2557.8001634354223,2171.3598524354225C2557.8001634354223,2171.3598524354225,2551.8486234354223,2154.0547234354226,2547.5196834354224,2150.804265435422C2543.1909734354226,2147.5639044354225,2545.8970934354224,2145.3919214354223,2531.8321134354223,2141.6123534354224C2517.7722034354224,2137.8277491354224,2511.8207734354223,2137.8277491354224,2502.6238234354223,2141.6123534354224C2493.4268634354225,2145.3919214354223,2483.1516634354225,2154.5938074354226,2483.1516634354225,2154.5938074354226C2483.1516634354225,2154.5938074354226,2477.7443534354225,2156.2165114354225,2476.1216434354224,2162.168038435422C2474.494003435422,2168.1145414354223,2470.7094034354222,2183.2629184354228,2470.7094034354222,2185.969034435422C2470.7094034354222,2188.6702264354226,2473.4104734354223,2192.9990484354225,2473.4104734354223,2192.9990484354225C2473.4104734354223,2192.9990484354225,2469.6309134354224,2194.6167174354223,2469.6309134354224,2194.6167174354223C2469.6309134354224,2194.6167174354223,2465.3071334354227,2197.8670644354224,2464.7629034354222,2201.6516684354224C2464.2191234354223,2205.4413204354223,2465.3066734354225,2214.6332084354226,2465.3066734354225,2214.6332084354226C2465.3066734354225,2214.6332084354226,2464.7629034354222,2221.6681844354225,2469.0912734354224,2222.7466464354225C2473.4100234354223,2223.8353414354224,2473.4100234354223,2222.207353435422,2473.4100234354223,2222.207353435422C2473.4100234354223,2222.207353435422,2474.4931134354224,2232.4828034354223,2474.4931134354224,2232.4828034354223C2474.4931134354224,2232.4828034354223,2475.0368934354224,2247.6311734354226,2475.0368934354224,2247.6311734354226C2475.0368934354224,2247.6311734354226,2477.2038134354225,2247.0929934354226,2467.4627434354225,2246.5525834354225C2457.731763435422,2246.003183435422,2448.5297634354224,2244.9248134354225,2448.5297634354224,2244.9248134354225C2448.5297634354224,2244.9248134354225,2441.5048934354227,2247.0917734354225,2441.5048934354227,2247.0917734354225C2441.5048934354227,2247.0917734354225,2437.1760734354225,2254.6609534354225,2437.1760734354225,2254.6609534354225C2437.1760734354225,2254.6609534354225,2439.8771434354226,2251.9548334354226,2435.0140834354224,2264.3969934354222C2430.1411234354223,2276.8343134354222,2428.5183134354224,2279.5404334354225,2426.3565234354223,2283.3250334354225C2424.189603435422,2287.1195934354223,2421.4934434354223,2290.9042034354225,2424.7338134354222,2296.3165734354225C2427.9740834354225,2301.7187334354226,2423.1161734354223,2303.8807134354224,2423.1161734354223,2303.8807134354224C2423.1161734354223,2303.8807134354224,2411.7523734354227,2306.0476434354223,2401.4719034354225,2314.1611034354223C2391.2017334354223,2322.2794434354223,2386.328573435422,2333.0889134354225,2379.8378534354224,2347.1539834354226C2373.3520534354225,2361.2188534354223,2349.0068434354225,2482.3759434354224,2346.3057734354225,2515.3737634354225C2343.5944734354225,2548.3717234354226,2340.8884834354226,2570.0057734354223,2349.0068434354225,2597.5965234354226C2357.1202734354224,2625.1821234354225,2360.9098934354224,2630.0450934354226,2360.9098934354224,2630.0450934354226C2360.9098934354224,2630.0450934354226,2374.4306534354223,2638.7027434354222,2374.4306534354223,2638.7027434354222C2374.4306534354223,2638.7027434354222,2379.8378534354224,2644.1049934354223,2379.8378534354224,2644.1049934354223C2379.8378534354224,2644.1049934354223,2383.6274834354226,2652.767693435422,2383.6274834354226,2652.767693435422C2383.6274834354226,2652.767693435422,2380.9212634354226,2657.0965334354223,2387.4120834354226,2652.767693435422C2393.9028034354224,2648.4338234354223,2396.6089334354224,2645.7276134354224,2396.6089334354224,2645.7276134354224C2396.6089334354224,2645.7276134354224,2399.8543434354224,2646.8162934354223,2399.8543434354224,2646.8162934354223C2399.8543434354224,2646.8162934354223,2402.5554434354226,2652.7678234354225,2402.5554434354226,2652.7678234354225C2402.5554434354226,2652.7678234354225,2407.9677734354223,2655.4739334354226,2407.9677734354223,2655.4739334354226C2407.9677734354223,2655.4739334354226,2409.0508634354223,2660.881243435422,2409.0508634354223,2660.881243435422C2409.0508634354223,2660.881243435422,2410.6735634354222,2673.3235034354225,2409.0508634354223,2684.6823634354223C2407.4229834354223,2696.041093435422,2405.2611934354222,2712.8071334354227,2404.7220234354227,2720.3812534354224C2404.1771334354225,2727.9555134354223,2402.0157834354222,2764.1938334354227,2407.4229834354223,2786.9112934354225C2412.8302934354224,2809.6288734354225,2413.9138334354225,2823.1546734354224,2414.4531134354224,2838.2981134354222C2414.996883435422,2853.4464934354223,2416.0757134354226,2863.177473435422,2416.0757134354226,2863.177473435422C2416.0757134354226,2863.177473435422,2417.164403435422,2882.6497334354226,2415.5420234354224,2908.6126134354226C2413.9142734354223,2934.5756234354226,2411.2130834354225,2947.012833435422,2415.5420234354224,2953.5084934354227C2419.8657034354223,2959.9993134354227,2422.5668934354226,2967.0292234354224,2422.5668934354226,2967.0292234354224C2422.5668934354226,2967.0292234354224,2419.8657034354223,2966.4854534354226,2417.7039234354224,2970.8138334354226C2415.5420234354224,2975.1426534354223,2412.8307434354224,2978.3880634354223,2412.8307434354224,2984.8838434354225C2412.8307434354224,2991.3745634354223,2418.7873234354224,3009.2240134354224,2418.7873234354224,3009.2240134354224C2418.7873234354224,3009.2240134354224,2413.3749834354226,3027.0685434354223,2413.3749834354226,3027.0685434354223C2413.3749834354226,3027.0685434354223,2413.3749834354226,3037.8880934354224,2413.3749834354226,3037.8880934354224C2413.3749834354226,3037.8880934354224,2416.6203934354226,3043.8396234354223,2416.6203934354226,3043.8396234354223C2416.6203934354226,3043.8396234354223,2416.0766134354226,3047.0900834354225,2410.6738834354223,3058.9880034354223C2405.2615534354222,3070.886033435422,2401.4719034354225,3071.9643934354226,2402.5554434354226,3080.0828834354224C2403.6441134354222,3088.1964034354223,2399.8543434354224,3094.681973435422,2406.3450634354226,3099.0159434354223C2412.8307434354224,3103.3345734354225,2434.4698334354225,3109.2861334354225,2434.4698334354225,3109.2861334354225C2434.4698334354225,3109.2861334354225,2437.1760734354225,3108.2131534354226,2442.039043435422,3106.0408134354225C2446.9122034354223,3103.8789134354224,2458.265893435422,3100.0892834354227,2458.265893435422,3092.5200834354223C2458.265893435422,3084.950873435422,2458.265893435422,3071.9643934354226,2460.4327334354225,3071.4253234354223C2462.5997734354223,3070.886033435422,2464.2173334354225,3070.342253435422,2464.2173334354225,3070.342253435422C2464.2173334354225,3070.342253435422,2474.4927634354226,3061.1504634354224,2474.4927634354226,3061.1504634354224C2474.4927634354226,3061.1504634354224,2473.4096934354225,3053.0371234354225,2473.4096934354225,3049.2475034354225C2473.4096934354225,3045.4679434354225,2477.2042534354223,3040.5897234354225,2477.2042534354223,3040.5897234354225C2477.2042534354223,3040.5897234354225,2483.6949934354225,3025.4463834354224,2483.6949934354225,3025.4463834354224C2483.6949934354225,3025.4463834354224,2485.8519534354223,3020.5783734354227,2485.8519534354223,3020.5783734354227C2485.8519534354223,3020.5783734354227,2488.5580734354226,3014.6268234354225,2490.1807734354225,3009.7638534354223C2491.8034834354225,3004.895863435422,2492.8868934354223,2998.4050234354227,2492.8868934354223,2998.4050234354227C2492.8868934354223,2998.4050234354227,2490.1807734354225,2996.7773834354225,2490.1807734354225,2996.7773834354225C2490.1807734354225,2996.7773834354225,2492.8868934354223,2992.4484334354224,2492.8868934354223,2992.4484334354224C2492.8868934354223,2992.4484334354224,2489.1023034354225,2978.9226534354225,2489.1023034354225,2978.9226534354225C2489.1023034354225,2978.9226534354225,2475.5766234354223,2915.6482434354225,2479.9053534354225,2890.7686634354222C2484.1789034354224,2866.2016734354224,2488.5580734354226,2843.5143634354226,2495.5930234354223,2824.2286534354225C2499.110543435422,2814.5731234354225,2497.2157234354227,2802.5944934354225,2497.2157234354227,2802.5944934354225C2497.2157234354227,2802.5944934354225,2506.4125634354223,2759.3212234354223,2506.4125634354223,2759.3212234354223C2506.4125634354223,2759.3212234354223,2503.7064434354224,2738.2264734354226,2503.7064434354224,2738.2264734354226C2503.7064434354224,2738.2264734354226,2508.5745834354225,2738.2264734354226,2508.5745834354225,2738.2264734354226C2508.5745834354225,2738.2264734354226,2508.0307834354226,2753.9190734354224,2509.1138634354224,2757.6986234354226C2510.1969334354226,2761.4881634354224,2521.5561234354223,2815.0367534354223,2521.5561234354223,2815.0367534354223C2521.5561234354223,2815.0367534354223,2522.6448034354225,2824.2286534354225,2522.6448034354225,2824.2286534354225C2522.6448034354225,2824.2286534354225,2529.1304834354223,2908.0740034354226,2525.8850734354223,2915.6482434354225C2522.6448034354225,2923.2173334354225,2523.1740134354222,2931.8749834354226,2521.5563634354226,2941.0618634354223C2519.9386934354225,2950.2687934354226,2518.315863435422,2968.1133034354225,2521.5563634354226,2974.0647334354226C2524.7966234354226,2980.011213435422,2532.9100434354223,2983.8008734354225,2532.9100434354223,2983.8008734354225C2532.9100434354223,2983.8008734354225,2536.1655434354225,2989.2081734354224,2532.3763634354223,2993.5319734354225C2528.5867034354224,2997.8608034354224,2524.7970634354224,3005.9792534354224,2524.7970634354224,3005.9792534354224C2524.7970634354224,3005.9792534354224,2527.5083434354224,3007.6018734354225,2529.6702434354224,3008.6804434354226C2531.8320134354226,3009.7635334354227,2535.0824734354223,3011.3864734354224,2535.0824734354223,3011.3864734354224C2535.0824734354223,3011.3864734354224,2536.1655434354225,3021.122603435422,2536.1655434354225,3021.122603435422C2536.1655434354225,3021.122603435422,2536.6992434354224,3030.8587334354224,2538.8615834354223,3035.187443435422C2541.0285134354226,3039.5163934354223,2543.1904134354227,3045.4679434354225,2543.1904134354227,3045.4679434354225C2543.1904134354227,3045.4679434354225,2543.1904134354227,3063.8465934354226,2545.3523034354225,3066.0135234354225C2547.5192334354224,3068.180353435422,2555.0883234354224,3074.6712034354223,2555.0883234354224,3074.6712034354223C2555.0883234354224,3074.6712034354223,2563.2068034354224,3083.862993435422,2563.2068034354224,3083.862993435422C2563.2068034354224,3083.862993435422,2561.0398534354226,3087.1133334354226,2564.2898634354224,3093.6041834354223C2567.5302534354223,3100.0898534354224,2570.2363734354226,3110.9196034354227,2582.6735734354224,3112.5371634354224C2595.1158534354227,3114.1548034354223,2617.8334134354222,3113.0719534354225,2617.8334134354222,3113.0719534354225C2617.8334134354222,3113.0719534354225,2622.7066034354225,3101.1739234354227,2622.7066034354225,3101.1739234354227C2622.7066034354225,3101.1739234354227,2623.7851734354226,3091.977083435422,2621.6235134354224,3086.025543435422C2619.4616134354224,3080.0841034354225,2603.2297234354223,3049.2480534354227,2603.2297234354223,3049.2480534354227C2603.2297234354223,3049.2480534354227,2607.0193634354223,3038.9727334354225,2607.0193634354223,3038.9727334354225C2607.0193634354223,3038.9727334354225,2608.6420734354224,3022.7459934354224,2608.6420734354224,3022.7459934354224C2608.6420734354224,3022.7459934354224,2604.8524334354224,3005.4356034354223,2604.8524334354224,3005.4356034354223C2604.8524334354224,3005.4356034354223,2614.0492834354222,3000.0333434354225,2614.0492834354222,2995.1552434354226C2614.0492834354222,2990.2872234354227,2610.2596234354223,2975.6881334354225,2610.2596234354223,2975.6881334354225C2610.2596234354223,2975.6881334354225,2609.1866434354224,2974.0654034354225,2613.5150234354223,2967.569643435422C2617.8338834354226,2961.083973435422,2619.9956334354224,2938.9005334354224,2615.1377234354222,2914.5652634354224C2610.2596234354223,2890.2200534354224,2604.3131234354223,2860.4724534354223,2604.3131234354223,2860.4724534354223C2604.3131234354223,2860.4724534354223,2601.0678234354223,2844.789943435422,2601.0678234354223,2844.789943435422C2601.0678234354223,2844.789943435422,2602.6954634354224,2821.528133435422,2603.2297234354223,2806.9239834354225C2603.7791034354223,2792.3148034354226,2608.0977234354223,2733.9032334354224,2608.0977234354223,2733.9032334354224C2608.0977234354223,2733.9032334354224,2604.3131234354223,2711.1856534354224,2604.3131234354223,2711.1856534354224C2604.3131234354223,2711.1856534354224,2605.3962034354226,2690.0857534354227,2603.2300534354226,2676.5651034354223C2601.0681534354226,2663.0443634354224,2606.475463435422,2655.4751834354224,2606.475463435422,2655.4751834354224C2606.475463435422,2655.4751834354224,2617.8342034354223,2665.2062634354224,2617.8342034354223,2665.2062634354224C2617.8342034354223,2665.2062634354224,2628.1095434354224,2659.7990834354223,2628.1095434354224,2659.7990834354223" style="fill:#2e3436;fill-opacity:1;fill-rule:evenodd;stroke:none" id="path3433_Clone">
    </path>
</g>
</svg>