<?xml version="1.0" encoding="UTF-8"?>
<!DOCTYPE svg PUBLIC "-//W3C//DTD SVG 1.1//EN" "http://www.w3.org/Graphics/SVG/1.1/DTD/svg11-flat-20030114.dtd">
<svg xmlns="http://www.w3.org/2000/svg" xmlns:xlink="http://www.w3.org/1999/xlink" xmlns:z="http://debeissat.nicolas.free.fr/svg3d/svg3d.rng" width="100%" height="100%">
    <script type="text/ecmascript" xlink:href="../svg3d/svg3d_parsing.js"></script>
    <script type="text/ecmascript" xlink:href="js/man_custom/svg3d.js"></script>
    <script type="text/ecmascript" xlink:href="../svg3d/svg3d.js"></script>
    <script type="text/ecmascript" xlink:href="../svg3d/matrix.js"></script>
    <script type="text/ecmascript" xlink:href="../svg3d/dom_utils.js"></script>
    <script type="text/ecmascript" xlink:href="js/man.js"></script>
<g onload="rotate('path3433_Clone')" transform="scale(0.2)">
<path d="M2635.6841034354225,2656.5523034354223C2640.5571734354226,2653.3070134354225,2680.0458334354225,2603.5430234354226,2680.0458334354225,2603.5430234354226C2680.0458334354225,2603.5430234354226,2682.2028334354227,2608.9553534354222,2681.1244334354224,2586.2376834354222C2680.0458334354225,2563.5151634354224,2685.9924334354223,2447.7603334354226,2678.413143435422,2428.8324034354223C2670.8491134354226,2409.8994234354222,2632.9830334354224,2333.6333634354223,2631.8996134354225,2329.8437134354226C2630.8210434354223,2326.0591034354225,2617.8346634354225,2308.2095434354223,2617.8346634354225,2308.2095434354223C2617.8346634354225,2308.2095434354223,2604.3140334354225,2301.7188234354226,2604.3140334354225,2301.7188234354226C2604.3140334354225,2301.7188234354226,2590.7933034354223,2295.2281234354223,2590.7933034354223,2295.2281234354223C2590.7933034354223,2295.2281234354223,2590.7933034354223,2290.3550434354224,2590.7933034354223,2287.119723435422C2590.7933034354223,2283.8693734354224,2586.4644534354225,2281.1681934354224,2582.1356234354225,2275.2166534354224C2577.8118534354226,2269.2702734354225,2570.7769134354226,2252.4991734354226,2569.1542034354225,2248.1653134354224C2567.5314734354224,2243.836493435422,2565.3746234354226,2240.0568234354223,2563.2077034354224,2238.9734034354224C2561.0407634354224,2237.8903234354225,2554.0159034354224,2238.9734034354224,2554.0159034354224,2238.9734034354224C2554.0159034354224,2238.9734034354224,2549.6869634354225,2241.1403334354222,2549.6869634354225,2241.1403334354222C2549.6869634354225,2241.1403334354222,2547.5200034354225,2238.9734034354224,2547.5200034354225,2238.9734034354224C2547.5200034354225,2238.9734034354224,2555.6335534354225,2232.4826834354226,2555.6335534354225,2228.6980744354223C2555.6335534354225,2224.9134704354224,2558.8788634354223,2219.5061744354225,2558.8788634354223,2219.5061744354225C2558.8788634354223,2219.5061744354225,2557.8002734354222,2211.9269934354224,2557.8002734354222,2211.9269934354224C2557.8002734354222,2211.9269934354224,2556.1775634354226,2209.2258994354224,2556.1775634354226,2209.2258994354224C2556.1775634354226,2209.2258994354224,2553.4663034354226,2207.0589774354225,2553.4663034354226,2207.0589774354225C2553.4663034354226,2207.0589774354225,2558.3394634354227,2201.6516684354224,2558.3394634354227,2194.6167174354223C2558.3394634354227,2187.5918634354225,2557.8001634354223,2171.3598524354225,2557.8001634354223,2171.3598524354225C2557.8001634354223,2171.3598524354225,2551.8486234354223,2154.0547234354226,2547.5196834354224,2150.804265435422C2543.1909734354226,2147.5639044354225,2545.8970934354224,2145.3919214354223,2531.8321134354223,2141.6123534354224C2517.7722034354224,2137.8277491354224,2511.8207734354223,2137.8277491354224,2502.6238234354223,2141.6123534354224C2493.4268634354225,2145.3919214354223,2483.1516634354225,2154.5938074354226,2483.1516634354225,2154.5938074354226C2483.1516634354225,2154.5938074354226,2477.7443534354225,2156.2165114354225,2476.1216434354224,2162.168038435422C2474.494003435422,2168.1145414354223,2470.7094034354222,2183.2629184354228,2470.7094034354222,2185.969034435422C2470.7094034354222,2188.6702264354226,2473.4104734354223,2192.9990484354225,2473.4104734354223,2192.9990484354225C2473.4104734354223,2192.9990484354225,2469.6309134354224,2194.6167174354223,2469.6309134354224,2194.6167174354223C2469.6309134354224,2194.6167174354223,2465.3071334354227,2197.8670644354224,2464.7629034354222,2201.6516684354224C2464.2191234354223,2205.4413204354223,2465.3066734354225,2214.6332084354226,2465.3066734354225,2214.6332084354226C2465.3066734354225,2214.6332084354226,2464.7629034354222,2221.6681844354225,2469.0912734354224,2222.7466464354225C2473.4100234354223,2223.8353414354224,2473.4100234354223,2222.207353435422,2473.4100234354223,2222.207353435422C2473.4100234354223,2222.207353435422,2474.4931134354224,2232.4828034354223,2474.4931134354224,2232.4828034354223C2474.4931134354224,2232.4828034354223,2475.0368934354224,2247.6311734354226,2475.0368934354224,2247.6311734354226C2475.0368934354224,2247.6311734354226,2477.2038134354225,2247.0929934354226,2467.4627434354225,2246.5525834354225C2457.731763435422,2246.003183435422,2448.5297634354224,2244.9248134354225,2448.5297634354224,2244.9248134354225C2448.5297634354224,2244.9248134354225,2441.5048934354227,2247.0917734354225,2441.5048934354227,2247.0917734354225C2441.5048934354227,2247.0917734354225,2437.1760734354225,2254.6609534354225,2437.1760734354225,2254.6609534354225C2437.1760734354225,2254.6609534354225,2439.8771434354226,2251.9548334354226,2435.0140834354224,2264.3969934354222C2430.1411234354223,2276.8343134354222,2428.5183134354224,2279.5404334354225,2426.3565234354223,2283.3250334354225C2424.189603435422,2287.1195934354223,2421.4934434354223,2290.9042034354225,2424.7338134354222,2296.3165734354225C2427.9740834354225,2301.7187334354226,2423.1161734354223,2303.8807134354224,2423.1161734354223,2303.8807134354224C2423.1161734354223,2303.8807134354224,2411.7523734354227,2306.0476434354223,2401.4719034354225,2314.1611034354223C2391.2017334354223,2322.2794434354223,2386.328573435422,2333.0889134354225,2379.8378534354224,2347.1539834354226C2373.3520534354225,2361.2188534354223,2349.0068434354225,2482.3759434354224,2346.3057734354225,2515.3737634354225C2343.5944734354225,2548.3717234354226,2340.8884834354226,2570.0057734354223,2349.0068434354225,2597.5965234354226C2357.1202734354224,2625.1821234354225,2360.9098934354224,2630.0450934354226,2360.9098934354224,2630.0450934354226C2360.9098934354224,2630.0450934354226,2374.4306534354223,2638.7027434354222,2374.4306534354223,2638.7027434354222C2374.4306534354223,2638.7027434354222,2379.8378534354224,2644.1049934354223,2379.8378534354224,2644.1049934354223C2379.8378534354224,2644.1049934354223,2383.6274834354226,2652.767693435422,2383.6274834354226,2652.767693435422C2383.6274834354226,2652.767693435422,2380.9212634354226,2657.0965334354223,2387.4120834354226,2652.767693435422C2393.9028034354224,2648.4338234354223,2396.6089334354224,2645.7276134354224,2396.6089334354224,2645.7276134354224C2396.6089334354224,2645.7276134354224,2399.8543434354224,2646.8162934354223,2399.8543434354224,2646.8162934354223C2399.8543434354224,2646.8162934354223,2402.5554434354226,2652.7678234354225,2402.5554434354226,2652.7678234354225C2402.5554434354226,2652.7678234354225,2407.9677734354223,2655.4739334354226,2407.9677734354223,2655.4739334354226C2407.9677734354223,2655.4739334354226,2409.0508634354223,2660.881243435422,2409.0508634354223,2660.881243435422C2409.0508634354223,2660.881243435422,2410.6735634354222,2673.3235034354225,2409.0508634354223,2684.6823634354223C2407.4229834354223,2696.041093435422,2405.2611934354222,2712.8071334354227,2404.7220234354227,2720.3812534354224C2404.1771334354225,2727.9555134354223,2402.0157834354222,2764.1938334354227,2407.4229834354223,2786.9112934354225C2412.8302934354224,2809.6288734354225,2413.9138334354225,2823.1546734354224,2414.4531134354224,2838.2981134354222C2414.996883435422,2853.4464934354223,2416.0757134354226,2863.177473435422,2416.0757134354226,2863.177473435422C2416.0757134354226,2863.177473435422,2417.164403435422,2882.6497334354226,2415.5420234354224,2908.6126134354226C2413.9142734354223,2934.5756234354226,2411.2130834354225,2947.012833435422,2415.5420234354224,2953.5084934354227C2419.8657034354223,2959.9993134354227,2422.5668934354226,2967.0292234354224,2422.5668934354226,2967.0292234354224C2422.5668934354226,2967.0292234354224,2419.8657034354223,2966.4854534354226,2417.7039234354224,2970.8138334354226C2415.5420234354224,2975.1426534354223,2412.8307434354224,2978.3880634354223,2412.8307434354224,2984.8838434354225C2412.8307434354224,2991.3745634354223,2418.7873234354224,3009.2240134354224,2418.7873234354224,3009.2240134354224C2418.7873234354224,3009.2240134354224,2413.3749834354226,3027.0685434354223,2413.3749834354226,3027.0685434354223C2413.3749834354226,3027.0685434354223,2413.3749834354226,3037.8880934354224,2413.3749834354226,3037.8880934354224C2413.3749834354226,3037.8880934354224,2416.6203934354226,3043.8396234354223,2416.6203934354226,3043.8396234354223C2416.6203934354226,3043.8396234354223,2416.0766134354226,3047.0900834354225,2410.6738834354223,3058.9880034354223C2405.2615534354222,3070.886033435422,2401.4719034354225,3071.9643934354226,2402.5554434354226,3080.0828834354224C2403.6441134354222,3088.1964034354223,2399.8543434354224,3094.681973435422,2406.3450634354226,3099.0159434354223C2412.8307434354224,3103.3345734354225,2434.4698334354225,3109.2861334354225,2434.4698334354225,3109.2861334354225C2434.4698334354225,3109.2861334354225,2437.1760734354225,3108.2131534354226,2442.039043435422,3106.0408134354225C2446.9122034354223,3103.8789134354224,2458.265893435422,3100.0892834354227,2458.265893435422,3092.5200834354223C2458.265893435422,3084.950873435422,2458.265893435422,3071.9643934354226,2460.4327334354225,3071.4253234354223C2462.5997734354223,3070.886033435422,2464.2173334354225,3070.342253435422,2464.2173334354225,3070.342253435422C2464.2173334354225,3070.342253435422,2474.4927634354226,3061.1504634354224,2474.4927634354226,3061.1504634354224C2474.4927634354226,3061.1504634354224,2473.4096934354225,3053.0371234354225,2473.4096934354225,3049.2475034354225C2473.4096934354225,3045.4679434354225,2477.2042534354223,3040.5897234354225,2477.2042534354223,3040.5897234354225C2477.2042534354223,3040.5897234354225,2483.6949934354225,3025.4463834354224,2483.6949934354225,3025.4463834354224C2483.6949934354225,3025.4463834354224,2485.8519534354223,3020.5783734354227,2485.8519534354223,3020.5783734354227C2485.8519534354223,3020.5783734354227,2488.5580734354226,3014.6268234354225,2490.1807734354225,3009.7638534354223C2491.8034834354225,3004.895863435422,2492.8868934354223,2998.4050234354227,2492.8868934354223,2998.4050234354227C2492.8868934354223,2998.4050234354227,2490.1807734354225,2996.7773834354225,2490.1807734354225,2996.7773834354225C2490.1807734354225,2996.7773834354225,2492.8868934354223,2992.4484334354224,2492.8868934354223,2992.4484334354224C2492.8868934354223,2992.4484334354224,2489.1023034354225,2978.9226534354225,2489.1023034354225,2978.9226534354225C2489.1023034354225,2978.9226534354225,2475.5766234354223,2915.6482434354225,2479.9053534354225,2890.7686634354222C2484.1789034354224,2866.2016734354224,2488.5580734354226,2843.5143634354226,2495.5930234354223,2824.2286534354225C2499.110543435422,2814.5731234354225,2497.2157234354227,2802.5944934354225,2497.2157234354227,2802.5944934354225C2497.2157234354227,2802.5944934354225,2506.4125634354223,2759.3212234354223,2506.4125634354223,2759.3212234354223C2506.4125634354223,2759.3212234354223,2503.7064434354224,2738.2264734354226,2503.7064434354224,2738.2264734354226C2503.7064434354224,2738.2264734354226,2508.5745834354225,2738.2264734354226,2508.5745834354225,2738.2264734354226C2508.5745834354225,2738.2264734354226,2508.0307834354226,2753.9190734354224,2509.1138634354224,2757.6986234354226C2510.1969334354226,2761.4881634354224,2521.5561234354223,2815.0367534354223,2521.5561234354223,2815.0367534354223C2521.5561234354223,2815.0367534354223,2522.6448034354225,2824.2286534354225,2522.6448034354225,2824.2286534354225C2522.6448034354225,2824.2286534354225,2529.1304834354223,2908.0740034354226,2525.8850734354223,2915.6482434354225C2522.6448034354225,2923.2173334354225,2523.1740134354222,2931.8749834354226,2521.5563634354226,2941.0618634354223C2519.9386934354225,2950.2687934354226,2518.315863435422,2968.1133034354225,2521.5563634354226,2974.0647334354226C2524.7966234354226,2980.011213435422,2532.9100434354223,2983.8008734354225,2532.9100434354223,2983.8008734354225C2532.9100434354223,2983.8008734354225,2536.1655434354225,2989.2081734354224,2532.3763634354223,2993.5319734354225C2528.5867034354224,2997.8608034354224,2524.7970634354224,3005.9792534354224,2524.7970634354224,3005.9792534354224C2524.7970634354224,3005.9792534354224,2527.5083434354224,3007.6018734354225,2529.6702434354224,3008.6804434354226C2531.8320134354226,3009.7635334354227,2535.0824734354223,3011.3864734354224,2535.0824734354223,3011.3864734354224C2535.0824734354223,3011.3864734354224,2536.1655434354225,3021.122603435422,2536.1655434354225,3021.122603435422C2536.1655434354225,3021.122603435422,2536.6992434354224,3030.8587334354224,2538.8615834354223,3035.187443435422C2541.0285134354226,3039.5163934354223,2543.1904134354227,3045.4679434354225,2543.1904134354227,3045.4679434354225C2543.1904134354227,3045.4679434354225,2543.1904134354227,3063.8465934354226,2545.3523034354225,3066.0135234354225C2547.5192334354224,3068.180353435422,2555.0883234354224,3074.6712034354223,2555.0883234354224,3074.6712034354223C2555.0883234354224,3074.6712034354223,2563.2068034354224,3083.862993435422,2563.2068034354224,3083.862993435422C2563.2068034354224,3083.862993435422,2561.0398534354226,3087.1133334354226,2564.2898634354224,3093.6041834354223C2567.5302534354223,3100.0898534354224,2570.2363734354226,3110.9196034354227,2582.6735734354224,3112.5371634354224C2595.1158534354227,3114.1548034354223,2617.8334134354222,3113.0719534354225,2617.8334134354222,3113.0719534354225C2617.8334134354222,3113.0719534354225,2622.7066034354225,3101.1739234354227,2622.7066034354225,3101.1739234354227C2622.7066034354225,3101.1739234354227,2623.7851734354226,3091.977083435422,2621.6235134354224,3086.025543435422C2619.4616134354224,3080.0841034354225,2603.2297234354223,3049.2480534354227,2603.2297234354223,3049.2480534354227C2603.2297234354223,3049.2480534354227,2607.0193634354223,3038.9727334354225,2607.0193634354223,3038.9727334354225C2607.0193634354223,3038.9727334354225,2608.6420734354224,3022.7459934354224,2608.6420734354224,3022.7459934354224C2608.6420734354224,3022.7459934354224,2604.8524334354224,3005.4356034354223,2604.8524334354224,3005.4356034354223C2604.8524334354224,3005.4356034354223,2614.0492834354222,3000.0333434354225,2614.0492834354222,2995.1552434354226C2614.0492834354222,2990.2872234354227,2610.2596234354223,2975.6881334354225,2610.2596234354223,2975.6881334354225C2610.2596234354223,2975.6881334354225,2609.1866434354224,2974.0654034354225,2613.5150234354223,2967.569643435422C2617.8338834354226,2961.083973435422,2619.9956334354224,2938.9005334354224,2615.1377234354222,2914.5652634354224C2610.2596234354223,2890.2200534354224,2604.3131234354223,2860.4724534354223,2604.3131234354223,2860.4724534354223C2604.3131234354223,2860.4724534354223,2601.0678234354223,2844.789943435422,2601.0678234354223,2844.789943435422C2601.0678234354223,2844.789943435422,2602.6954634354224,2821.528133435422,2603.2297234354223,2806.9239834354225C2603.7791034354223,2792.3148034354226,2608.0977234354223,2733.9032334354224,2608.0977234354223,2733.9032334354224C2608.0977234354223,2733.9032334354224,2604.3131234354223,2711.1856534354224,2604.3131234354223,2711.1856534354224C2604.3131234354223,2711.1856534354224,2605.3962034354226,2690.0857534354227,2603.2300534354226,2676.5651034354223C2601.0681534354226,2663.0443634354224,2606.475463435422,2655.4751834354224,2606.475463435422,2655.4751834354224C2606.475463435422,2655.4751834354224,2617.8342034354223,2665.2062634354224,2617.8342034354223,2665.2062634354224C2617.8342034354223,2665.2062634354224,2628.1095434354224,2659.7990834354223,2628.1095434354224,2659.7990834354223" style="fill:#2e3436;fill-opacity:1;fill-rule:evenodd;stroke:none" id="path3433">
    </path>
<path d="M2635.6841034354225,2656.5523034354223C2640.5571734354226,2653.3070134354225,2680.0458334354225,2603.5430234354226,2680.0458334354225,2603.5430234354226C2680.0458334354225,2603.5430234354226,2682.2028334354227,2608.9553534354222,2681.1244334354224,2586.2376834354222C2680.0458334354225,2563.5151634354224,2685.9924334354223,2447.7603334354226,2678.413143435422,2428.8324034354223C2670.8491134354226,2409.8994234354222,2632.9830334354224,2333.6333634354223,2631.8996134354225,2329.8437134354226C2630.8210434354223,2326.0591034354225,2617.8346634354225,2308.2095434354223,2617.8346634354225,2308.2095434354223C2617.8346634354225,2308.2095434354223,2604.3140334354225,2301.7188234354226,2604.3140334354225,2301.7188234354226C2604.3140334354225,2301.7188234354226,2590.7933034354223,2295.2281234354223,2590.7933034354223,2295.2281234354223C2590.7933034354223,2295.2281234354223,2590.7933034354223,2290.3550434354224,2590.7933034354223,2287.119723435422C2590.7933034354223,2283.8693734354224,2586.4644534354225,2281.1681934354224,2582.1356234354225,2275.2166534354224C2577.8118534354226,2269.2702734354225,2570.7769134354226,2252.4991734354226,2569.1542034354225,2248.1653134354224C2567.5314734354224,2243.836493435422,2565.3746234354226,2240.0568234354223,2563.2077034354224,2238.9734034354224C2561.0407634354224,2237.8903234354225,2554.0159034354224,2238.9734034354224,2554.0159034354224,2238.9734034354224C2554.0159034354224,2238.9734034354224,2549.6869634354225,2241.1403334354222,2549.6869634354225,2241.1403334354222C2549.6869634354225,2241.1403334354222,2547.5200034354225,2238.9734034354224,2547.5200034354225,2238.9734034354224C2547.5200034354225,2238.9734034354224,2555.6335534354225,2232.4826834354226,2555.6335534354225,2228.6980744354223C2555.6335534354225,2224.9134704354224,2558.8788634354223,2219.5061744354225,2558.8788634354223,2219.5061744354225C2558.8788634354223,2219.5061744354225,2557.8002734354222,2211.9269934354224,2557.8002734354222,2211.9269934354224C2557.8002734354222,2211.9269934354224,2556.1775634354226,2209.2258994354224,2556.1775634354226,2209.2258994354224C2556.1775634354226,2209.2258994354224,2553.4663034354226,2207.0589774354225,2553.4663034354226,2207.0589774354225C2553.4663034354226,2207.0589774354225,2558.3394634354227,2201.6516684354224,2558.3394634354227,2194.6167174354223C2558.3394634354227,2187.5918634354225,2557.8001634354223,2171.3598524354225,2557.8001634354223,2171.3598524354225C2557.8001634354223,2171.3598524354225,2551.8486234354223,2154.0547234354226,2547.5196834354224,2150.804265435422C2543.1909734354226,2147.5639044354225,2545.8970934354224,2145.3919214354223,2531.8321134354223,2141.6123534354224C2517.7722034354224,2137.8277491354224,2511.8207734354223,2137.8277491354224,2502.6238234354223,2141.6123534354224C2493.4268634354225,2145.3919214354223,2483.1516634354225,2154.5938074354226,2483.1516634354225,2154.5938074354226C2483.1516634354225,2154.5938074354226,2477.7443534354225,2156.2165114354225,2476.1216434354224,2162.168038435422C2474.494003435422,2168.1145414354223,2470.7094034354222,2183.2629184354228,2470.7094034354222,2185.969034435422C2470.7094034354222,2188.6702264354226,2473.4104734354223,2192.9990484354225,2473.4104734354223,2192.9990484354225C2473.4104734354223,2192.9990484354225,2469.6309134354224,2194.6167174354223,2469.6309134354224,2194.6167174354223C2469.6309134354224,2194.6167174354223,2465.3071334354227,2197.8670644354224,2464.7629034354222,2201.6516684354224C2464.2191234354223,2205.4413204354223,2465.3066734354225,2214.6332084354226,2465.3066734354225,2214.6332084354226C2465.3066734354225,2214.6332084354226,2464.7629034354222,2221.6681844354225,2469.0912734354224,2222.7466464354225C2473.4100234354223,2223.8353414354224,2473.4100234354223,2222.207353435422,2473.4100234354223,2222.207353435422C2473.4100234354223,2222.207353435422,2474.4931134354224,2232.4828034354223,2474.4931134354224,2232.4828034354223C2474.4931134354224,2232.4828034354223,2475.0368934354224,2247.6311734354226,2475.0368934354224,2247.6311734354226C2475.0368934354224,2247.6311734354226,2477.2038134354225,2247.0929934354226,2467.4627434354225,2246.5525834354225C2457.731763435422,2246.003183435422,2448.5297634354224,2244.9248134354225,2448.5297634354224,2244.9248134354225C2448.5297634354224,2244.9248134354225,2441.5048934354227,2247.0917734354225,2441.5048934354227,2247.0917734354225C2441.5048934354227,2247.0917734354225,2437.1760734354225,2254.6609534354225,2437.1760734354225,2254.6609534354225C2437.1760734354225,2254.6609534354225,2439.8771434354226,2251.9548334354226,2435.0140834354224,2264.3969934354222C2430.1411234354223,2276.8343134354222,2428.5183134354224,2279.5404334354225,2426.3565234354223,2283.3250334354225C2424.189603435422,2287.1195934354223,2421.4934434354223,2290.9042034354225,2424.7338134354222,2296.3165734354225C2427.9740834354225,2301.7187334354226,2423.1161734354223,2303.8807134354224,2423.1161734354223,2303.8807134354224C2423.1161734354223,2303.8807134354224,2411.7523734354227,2306.0476434354223,2401.4719034354225,2314.1611034354223C2391.2017334354223,2322.2794434354223,2386.328573435422,2333.0889134354225,2379.8378534354224,2347.1539834354226C2373.3520534354225,2361.2188534354223,2349.0068434354225,2482.3759434354224,2346.3057734354225,2515.3737634354225C2343.5944734354225,2548.3717234354226,2340.8884834354226,2570.0057734354223,2349.0068434354225,2597.5965234354226C2357.1202734354224,2625.1821234354225,2360.9098934354224,2630.0450934354226,2360.9098934354224,2630.0450934354226C2360.9098934354224,2630.0450934354226,2374.4306534354223,2638.7027434354222,2374.4306534354223,2638.7027434354222C2374.4306534354223,2638.7027434354222,2379.8378534354224,2644.1049934354223,2379.8378534354224,2644.1049934354223C2379.8378534354224,2644.1049934354223,2383.6274834354226,2652.767693435422,2383.6274834354226,2652.767693435422C2383.6274834354226,2652.767693435422,2380.9212634354226,2657.0965334354223,2387.4120834354226,2652.767693435422C2393.9028034354224,2648.4338234354223,2396.6089334354224,2645.7276134354224,2396.6089334354224,2645.7276134354224C2396.6089334354224,2645.7276134354224,2399.8543434354224,2646.8162934354223,2399.8543434354224,2646.8162934354223C2399.8543434354224,2646.8162934354223,2402.5554434354226,2652.7678234354225,2402.5554434354226,2652.7678234354225C2402.5554434354226,2652.7678234354225,2407.9677734354223,2655.4739334354226,2407.9677734354223,2655.4739334354226C2407.9677734354223,2655.4739334354226,2409.0508634354223,2660.881243435422,2409.0508634354223,2660.881243435422C2409.0508634354223,2660.881243435422,2410.6735634354222,2673.3235034354225,2409.0508634354223,2684.6823634354223C2407.4229834354223,2696.041093435422,2405.2611934354222,2712.8071334354227,2404.7220234354227,2720.3812534354224C2404.1771334354225,2727.9555134354223,2402.0157834354222,2764.1938334354227,2407.4229834354223,2786.9112934354225C2412.8302934354224,2809.6288734354225,2413.9138334354225,2823.1546734354224,2414.4531134354224,2838.2981134354222C2414.996883435422,2853.4464934354223,2416.0757134354226,2863.177473435422,2416.0757134354226,2863.177473435422C2416.0757134354226,2863.177473435422,2417.164403435422,2882.6497334354226,2415.5420234354224,2908.6126134354226C2413.9142734354223,2934.5756234354226,2411.2130834354225,2947.012833435422,2415.5420234354224,2953.5084934354227C2419.8657034354223,2959.9993134354227,2422.5668934354226,2967.0292234354224,2422.5668934354226,2967.0292234354224C2422.5668934354226,2967.0292234354224,2419.8657034354223,2966.4854534354226,2417.7039234354224,2970.8138334354226C2415.5420234354224,2975.1426534354223,2412.8307434354224,2978.3880634354223,2412.8307434354224,2984.8838434354225C2412.8307434354224,2991.3745634354223,2418.7873234354224,3009.2240134354224,2418.7873234354224,3009.2240134354224C2418.7873234354224,3009.2240134354224,2413.3749834354226,3027.0685434354223,2413.3749834354226,3027.0685434354223C2413.3749834354226,3027.0685434354223,2413.3749834354226,3037.8880934354224,2413.3749834354226,3037.8880934354224C2413.3749834354226,3037.8880934354224,2416.6203934354226,3043.8396234354223,2416.6203934354226,3043.8396234354223C2416.6203934354226,3043.8396234354223,2416.0766134354226,3047.0900834354225,2410.6738834354223,3058.9880034354223C2405.2615534354222,3070.886033435422,2401.4719034354225,3071.9643934354226,2402.5554434354226,3080.0828834354224C2403.6441134354222,3088.1964034354223,2399.8543434354224,3094.681973435422,2406.3450634354226,3099.0159434354223C2412.8307434354224,3103.3345734354225,2434.4698334354225,3109.2861334354225,2434.4698334354225,3109.2861334354225C2434.4698334354225,3109.2861334354225,2437.1760734354225,3108.2131534354226,2442.039043435422,3106.0408134354225C2446.9122034354223,3103.8789134354224,2458.265893435422,3100.0892834354227,2458.265893435422,3092.5200834354223C2458.265893435422,3084.950873435422,2458.265893435422,3071.9643934354226,2460.4327334354225,3071.4253234354223C2462.5997734354223,3070.886033435422,2464.2173334354225,3070.342253435422,2464.2173334354225,3070.342253435422C2464.2173334354225,3070.342253435422,2474.4927634354226,3061.1504634354224,2474.4927634354226,3061.1504634354224C2474.4927634354226,3061.1504634354224,2473.4096934354225,3053.0371234354225,2473.4096934354225,3049.2475034354225C2473.4096934354225,3045.4679434354225,2477.2042534354223,3040.5897234354225,2477.2042534354223,3040.5897234354225C2477.2042534354223,3040.5897234354225,2483.6949934354225,3025.4463834354224,2483.6949934354225,3025.4463834354224C2483.6949934354225,3025.4463834354224,2485.8519534354223,3020.5783734354227,2485.8519534354223,3020.5783734354227C2485.8519534354223,3020.5783734354227,2488.5580734354226,3014.6268234354225,2490.1807734354225,3009.7638534354223C2491.8034834354225,3004.895863435422,2492.8868934354223,2998.4050234354227,2492.8868934354223,2998.4050234354227C2492.8868934354223,2998.4050234354227,2490.1807734354225,2996.7773834354225,2490.1807734354225,2996.7773834354225C2490.1807734354225,2996.7773834354225,2492.8868934354223,2992.4484334354224,2492.8868934354223,2992.4484334354224C2492.8868934354223,2992.4484334354224,2489.1023034354225,2978.9226534354225,2489.1023034354225,2978.9226534354225C2489.1023034354225,2978.9226534354225,2475.5766234354223,2915.6482434354225,2479.9053534354225,2890.7686634354222C2484.1789034354224,2866.2016734354224,2488.5580734354226,2843.5143634354226,2495.5930234354223,2824.2286534354225C2499.110543435422,2814.5731234354225,2497.2157234354227,2802.5944934354225,2497.2157234354227,2802.5944934354225C2497.2157234354227,2802.5944934354225,2506.4125634354223,2759.3212234354223,2506.4125634354223,2759.3212234354223C2506.4125634354223,2759.3212234354223,2503.7064434354224,2738.2264734354226,2503.7064434354224,2738.2264734354226C2503.7064434354224,2738.2264734354226,2508.5745834354225,2738.2264734354226,2508.5745834354225,2738.2264734354226C2508.5745834354225,2738.2264734354226,2508.0307834354226,2753.9190734354224,2509.1138634354224,2757.6986234354226C2510.1969334354226,2761.4881634354224,2521.5561234354223,2815.0367534354223,2521.5561234354223,2815.0367534354223C2521.5561234354223,2815.0367534354223,2522.6448034354225,2824.2286534354225,2522.6448034354225,2824.2286534354225C2522.6448034354225,2824.2286534354225,2529.1304834354223,2908.0740034354226,2525.8850734354223,2915.6482434354225C2522.6448034354225,2923.2173334354225,2523.1740134354222,2931.8749834354226,2521.5563634354226,2941.0618634354223C2519.9386934354225,2950.2687934354226,2518.315863435422,2968.1133034354225,2521.5563634354226,2974.0647334354226C2524.7966234354226,2980.011213435422,2532.9100434354223,2983.8008734354225,2532.9100434354223,2983.8008734354225C2532.9100434354223,2983.8008734354225,2536.1655434354225,2989.2081734354224,2532.3763634354223,2993.5319734354225C2528.5867034354224,2997.8608034354224,2524.7970634354224,3005.9792534354224,2524.7970634354224,3005.9792534354224C2524.7970634354224,3005.9792534354224,2527.5083434354224,3007.6018734354225,2529.6702434354224,3008.6804434354226C2531.8320134354226,3009.7635334354227,2535.0824734354223,3011.3864734354224,2535.0824734354223,3011.3864734354224C2535.0824734354223,3011.3864734354224,2536.1655434354225,3021.122603435422,2536.1655434354225,3021.122603435422C2536.1655434354225,3021.122603435422,2536.6992434354224,3030.8587334354224,2538.8615834354223,3035.187443435422C2541.0285134354226,3039.5163934354223,2543.1904134354227,3045.4679434354225,2543.1904134354227,3045.4679434354225C2543.1904134354227,3045.4679434354225,2543.1904134354227,3063.8465934354226,2545.3523034354225,3066.0135234354225C2547.5192334354224,3068.180353435422,2555.0883234354224,3074.6712034354223,2555.0883234354224,3074.6712034354223C2555.0883234354224,3074.6712034354223,2563.2068034354224,3083.862993435422,2563.2068034354224,3083.862993435422C2563.2068034354224,3083.862993435422,2561.0398534354226,3087.1133334354226,2564.2898634354224,3093.6041834354223C2567.5302534354223,3100.0898534354224,2570.2363734354226,3110.9196034354227,2582.6735734354224,3112.5371634354224C2595.1158534354227,3114.1548034354223,2617.8334134354222,3113.0719534354225,2617.8334134354222,3113.0719534354225C2617.8334134354222,3113.0719534354225,2622.7066034354225,3101.1739234354227,2622.7066034354225,3101.1739234354227C2622.7066034354225,3101.1739234354227,2623.7851734354226,3091.977083435422,2621.6235134354224,3086.025543435422C2619.4616134354224,3080.0841034354225,2603.2297234354223,3049.2480534354227,2603.2297234354223,3049.2480534354227C2603.2297234354223,3049.2480534354227,2607.0193634354223,3038.9727334354225,2607.0193634354223,3038.9727334354225C2607.0193634354223,3038.9727334354225,2608.6420734354224,3022.7459934354224,2608.6420734354224,3022.7459934354224C2608.6420734354224,3022.7459934354224,2604.8524334354224,3005.4356034354223,2604.8524334354224,3005.4356034354223C2604.8524334354224,3005.4356034354223,2614.0492834354222,3000.0333434354225,2614.0492834354222,2995.1552434354226C2614.0492834354222,2990.2872234354227,2610.2596234354223,2975.6881334354225,2610.2596234354223,2975.6881334354225C2610.2596234354223,2975.6881334354225,2609.1866434354224,2974.0654034354225,2613.5150234354223,2967.569643435422C2617.8338834354226,2961.083973435422,2619.9956334354224,2938.9005334354224,2615.1377234354222,2914.5652634354224C2610.2596234354223,2890.2200534354224,2604.3131234354223,2860.4724534354223,2604.3131234354223,2860.4724534354223C2604.3131234354223,2860.4724534354223,2601.0678234354223,2844.789943435422,2601.0678234354223,2844.789943435422C2601.0678234354223,2844.789943435422,2602.6954634354224,2821.528133435422,2603.2297234354223,2806.9239834354225C2603.7791034354223,2792.3148034354226,2608.0977234354223,2733.9032334354224,2608.0977234354223,2733.9032334354224C2608.0977234354223,2733.9032334354224,2604.3131234354223,2711.1856534354224,2604.3131234354223,2711.1856534354224C2604.3131234354223,2711.1856534354224,2605.3962034354226,2690.0857534354227,2603.2300534354226,2676.5651034354223C2601.0681534354226,2663.0443634354224,2606.475463435422,2655.4751834354224,2606.475463435422,2655.4751834354224C2606.475463435422,2655.4751834354224,2617.8342034354223,2665.2062634354224,2617.8342034354223,2665.2062634354224C2617.8342034354223,2665.2062634354224,2628.1095434354224,2659.7990834354223,2628.1095434354224,2659.7990834354223" style="fill:#2e3436;fill-opacity:1;fill-rule:evenodd;stroke:none" id="path3433_Clone">
    </path>

    <path d="M2635.6841034354225, 3100, 88.68953931291554 ,2640.5571734354226, 3100, 89.33859731291551 2680.0458334354225, 3100, 99.29139531291548 2680.0458334354225, 3100, 99.29139531291548 ,2680.0458334354225, 3100, 99.29139531291548 2682.2028334354227, 3100, 98.20892931291556 2681.1244334354224, 3100, 102.75246331291555 ,2680.0458334354225, 3100, 107.29696731291551 2685.9924334354223, 3100, 130.4479333129155 2678.413143435422, 3100, 134.23351931291555 ,2670.8491134354226, 3100, 138.02011531291555 2632.9830334354224, 3100, 153.27332731291554 2631.8996134354225, 3100, 154.0312573129155 ,2630.8210434354223, 3100, 154.78817931291553 2617.8346634354225, 3100, 158.35809131291555 2617.8346634354225, 3100, 158.35809131291555 ,2617.8346634354225, 3100, 158.35809131291555 2604.3140334354225, 3100, 159.6562353129155 2604.3140334354225, 3100, 159.6562353129155 ,2604.3140334354225, 3100, 159.6562353129155 2590.7933034354223, 3100, 160.95437531291554 2590.7933034354223, 3100, 160.95437531291554 ,2590.7933034354223, 3100, 160.95437531291554 2590.7933034354223, 3100, 161.9289913129155 2590.7933034354223, 3100, 162.57605531291557 ,2590.7933034354223, 3100, 163.22612531291554 2586.4644534354225, 3100, 163.76636131291554 2582.1356234354225, 3100, 164.95666931291555 ,2577.8118534354226, 3100, 166.1459453129155 2570.7769134354226, 3100, 169.5001653129155 2569.1542034354225, 3100, 170.36693731291552 ,2567.5314734354224, 3100, 171.23270131291557 2565.3746234354226, 3100, 171.98863531291556 2563.2077034354224, 3100, 172.20531931291555 ,2561.0407634354224, 3100, 172.4219353129155 2554.0159034354224, 3100, 172.20531931291555 2554.0159034354224, 3100, 172.20531931291555 ,2554.0159034354224, 3100, 172.20531931291555 2549.6869634354225, 3100, 171.77193331291556 2549.6869634354225, 3100, 171.77193331291556 ,2549.6869634354225, 3100, 171.77193331291556 2547.5200034354225, 3100, 172.20531931291555 2547.5200034354225, 3100, 172.20531931291555 ,2547.5200034354225, 3100, 172.20531931291555 2555.6335534354225, 3100, 173.5034633129155 2555.6335534354225, 3100, 174.26038511291554 ,2555.6335534354225, 3100, 175.01730591291553 2558.8788634354223, 3100, 176.09876511291552 2558.8788634354223, 3100, 176.09876511291552 ,2558.8788634354223, 3100, 176.09876511291552 2557.8002734354222, 3100, 177.6146013129155 2557.8002734354222, 3100, 177.6146013129155 ,2557.8002734354222, 3100, 177.6146013129155 2556.1775634354226, 3100, 178.15482011291553 2556.1775634354226, 3100, 178.15482011291553 ,2556.1775634354226, 3100, 178.15482011291553 2553.4663034354226, 3100, 178.5882045129155 2553.4663034354226, 3100, 178.5882045129155 ,2553.4663034354226, 3100, 178.5882045129155 2558.3394634354227, 3100, 179.66966631291552 2558.3394634354227, 3100, 181.07665651291555 ,2558.3394634354227, 3100, 182.48162731291552 2557.8001634354223, 3100, 185.72802951291553 2557.8001634354223, 3100, 185.72802951291553 ,2557.8001634354223, 3100, 185.72802951291553 2551.8486234354223, 3100, 189.18905531291549 2547.5196834354224, 3100, 189.83914691291557 ,2543.1909734354226, 3100, 190.4872191129155 2545.8970934354224, 3100, 190.92161571291555 2531.8321134354223, 3100, 191.67752931291554 ,2517.7722034354224, 3100, 192.43445017291552 2511.8207734354223, 3100, 192.43445017291552 2502.6238234354223, 3100, 191.67752931291554 ,2493.4268634354225, 3100, 190.92161571291555 2483.1516634354225, 3100, 189.0812385129155 2483.1516634354225, 3100, 189.0812385129155 ,2483.1516634354225, 3100, 189.0812385129155 2477.7443534354225, 3100, 188.75669771291552 2476.1216434354224, 3100, 187.56639231291558 ,2474.494003435422, 3100, 186.37709171291556 2470.7094034354222, 3100, 183.34741631291547 2470.7094034354222, 3100, 182.8061931129156 ,2470.7094034354222, 3100, 182.2659547129155 2473.4104734354223, 3100, 181.4001903129155 2473.4104734354223, 3100, 181.4001903129155 ,2473.4104734354223, 3100, 181.4001903129155 2469.6309134354224, 3100, 181.07665651291555 2469.6309134354224, 3100, 181.07665651291555 ,2469.6309134354224, 3100, 181.07665651291555 2465.3071334354227, 3100, 180.4265871129155 2464.7629034354222, 3100, 179.66966631291552 ,2464.2191234354223, 3100, 178.91173591291556 2465.3066734354225, 3100, 177.0733583129155 2465.3066734354225, 3100, 177.0733583129155 ,2465.3066734354225, 3100, 177.0733583129155 2464.7629034354222, 3100, 175.66636311291552 2469.0912734354224, 3100, 175.45067071291552 ,2473.4100234354223, 3100, 175.23293171291553 2473.4100234354223, 3100, 175.55852931291557 2473.4100234354223, 3100, 175.55852931291557 ,2473.4100234354223, 3100, 175.55852931291557 2474.4931134354224, 3100, 173.50343931291556 2474.4931134354224, 3100, 173.50343931291556 ,2474.4931134354224, 3100, 173.50343931291556 2475.0368934354224, 3100, 170.47376531291548 2475.0368934354224, 3100, 170.47376531291548 ,2475.0368934354224, 3100, 170.47376531291548 2477.2038134354225, 3100, 170.5814013129155 2467.4627434354225, 3100, 170.6894833129155 ,2457.731763435422, 3100, 170.79936331291557 2448.5297634354224, 3100, 171.01503731291552 2448.5297634354224, 3100, 171.01503731291552 ,2448.5297634354224, 3100, 171.01503731291552 2441.5048934354227, 3100, 170.5816453129155 2441.5048934354227, 3100, 170.5816453129155 ,2441.5048934354227, 3100, 170.5816453129155 2437.1760734354225, 3100, 169.06780931291553 2437.1760734354225, 3100, 169.06780931291553 ,2437.1760734354225, 3100, 169.06780931291553 2439.8771434354226, 3100, 169.60903331291547 2435.0140834354224, 3100, 167.12060131291557 ,2430.1411234354223, 3100, 164.63313731291555 2428.5183134354224, 3100, 164.0919133129155 2426.3565234354223, 3100, 163.33499331291551 ,2424.189603435422, 3100, 162.57608131291556 2421.4934434354223, 3100, 161.81915931291553 2424.7338134354222, 3100, 160.7366853129155 ,2427.9740834354225, 3100, 159.6562533129155 2423.1161734354223, 3100, 159.22385731291553 2423.1161734354223, 3100, 159.22385731291553 ,2423.1161734354223, 3100, 159.22385731291553 2411.7523734354227, 3100, 158.79047131291554 2401.4719034354225, 3100, 157.16777931291554 ,2391.2017334354223, 3100, 155.54411131291556 2386.328573435422, 3100, 153.38221731291551 2379.8378534354224, 3100, 150.5692033129155 ,2373.3520534354225, 3100, 147.75622931291556 2349.0068434354225, 3100, 123.52481131291552 2346.3057734354225, 3100, 116.92524731291552 ,2343.5944734354225, 3100, 110.32565531291549 2340.8884834354226, 3100, 105.99884531291555 2349.0068434354225, 3100, 100.48069531291549 ,2357.1202734354224, 3100, 94.96357531291551 2360.9098934354224, 3100, 93.9909813129155 2360.9098934354224, 3100, 93.9909813129155 ,2360.9098934354224, 3100, 93.9909813129155 2374.4306534354223, 3100, 92.25945131291556 2374.4306534354223, 3100, 92.25945131291556 ,2374.4306534354223, 3100, 92.25945131291556 2379.8378534354224, 3100, 91.17900131291555 2379.8378534354224, 3100, 91.17900131291555 ,2379.8378534354224, 3100, 91.17900131291555 2383.6274834354226, 3100, 89.44646131291557 2383.6274834354226, 3100, 89.44646131291557 ,2383.6274834354226, 3100, 89.44646131291557 2380.9212634354226, 3100, 88.58069331291554 2387.4120834354226, 3100, 89.44646131291557 ,2393.9028034354224, 3100, 90.31323531291555 2396.6089334354224, 3100, 90.85447731291552 2396.6089334354224, 3100, 90.85447731291552 ,2396.6089334354224, 3100, 90.85447731291552 2399.8543434354224, 3100, 90.63674131291555 2399.8543434354224, 3100, 90.63674131291555 ,2399.8543434354224, 3100, 90.63674131291555 2402.5554434354226, 3100, 89.4464353129155 2402.5554434354226, 3100, 89.4464353129155 ,2402.5554434354226, 3100, 89.4464353129155 2407.9677734354223, 3100, 88.90521331291548 2407.9677734354223, 3100, 88.90521331291548 ,2407.9677734354223, 3100, 88.90521331291548 2409.0508634354223, 3100, 87.82375131291556 2409.0508634354223, 3100, 87.82375131291556 ,2409.0508634354223, 3100, 87.82375131291556 2410.6735634354222, 3100, 85.33529931291551 2409.0508634354223, 3100, 83.06352731291554 ,2407.4229834354223, 3100, 80.79178131291556 2405.2611934354222, 3100, 77.43857331291548 2404.7220234354227, 3100, 75.92374931291552 ,2404.1771334354225, 3100, 74.40889731291554 2402.0157834354222, 3100, 67.16123331291547 2407.4229834354223, 3100, 62.6177413129155 ,2412.8302934354224, 3100, 58.0742253129155 2413.9138334354225, 3100, 55.369065312915524 2414.4531134354224, 3100, 52.34037731291556 ,2414.996883435422, 3100, 49.31070131291554 2416.0757134354226, 3100, 47.364505312915576 2416.0757134354226, 3100, 47.364505312915576 ,2416.0757134354226, 3100, 47.364505312915576 2417.164403435422, 3100, 43.47005331291548 2415.5420234354224, 3100, 38.27747731291547 ,2413.9142734354223, 3100, 33.084875312915486 2411.2130834354225, 3100, 30.597433312915566 2415.5420234354224, 3100, 29.298301312915466 ,2419.8657034354223, 3100, 28.00013731291547 2422.5668934354226, 3100, 26.594155312915518 2422.5668934354226, 3100, 26.594155312915518 ,2422.5668934354226, 3100, 26.594155312915518 2419.8657034354223, 3100, 26.702909312915473 2417.7039234354224, 3100, 25.837233312915487 ,2415.5420234354224, 3100, 24.971469312915545 2412.8307434354224, 3100, 24.322387312915545 2412.8307434354224, 3100, 23.023231312915506 ,2412.8307434354224, 3100, 21.725087312915548 2418.7873234354224, 3100, 18.155197312915515 2418.7873234354224, 3100, 18.155197312915515 ,2418.7873234354224, 3100, 18.155197312915515 2413.3749834354226, 3100, 14.586291312915547 2413.3749834354226, 3100, 14.586291312915547 ,2413.3749834354226, 3100, 14.586291312915547 2413.3749834354226, 3100, 12.422381312915514 2413.3749834354226, 3100, 12.422381312915514 ,2413.3749834354226, 3100, 12.422381312915514 2416.6203934354226, 3100, 11.23207531291555 2416.6203934354226, 3100, 11.23207531291555 ,2416.6203934354226, 3100, 11.23207531291555 2416.0766134354226, 3100, 10.58198331291551 2410.6738834354223, 3100, 8.202399312915531 ,2405.2615534354222, 3100, 5.8227933129155645 2401.4719034354225, 3100, 5.607121312915479 2402.5554434354226, 3100, 3.983423312915511 ,2403.6441134354222, 3100, 2.360719312915535 2399.8543434354224, 3100, 1.0636053129155698 2406.3450634354226, 3100, 0.19681131291554266 ,2412.8307434354224, 3100, -0.6669146870844997 2434.4698334354225, 3100, -1.8572266870844942 2434.4698334354225, 3100, -1.8572266870844942 ,2434.4698334354225, 3100, -1.8572266870844942 2437.1760734354225, 3100, -1.642630687084511 2442.039043435422, 3100, -1.2081626870844957 ,2446.9122034354223, 3100, -0.7757826870844838 2458.265893435422, 3100, -0.017856687084531586 2458.265893435422, 3100, 1.4959833129155413 ,2458.265893435422, 3100, 3.009825312915564 2458.265893435422, 3100, 5.607121312915479 2460.4327334354225, 3100, 5.714935312915532 ,2462.5997734354223, 3100, 5.8227933129155645 2464.2173334354225, 3100, 5.931549312915559 2464.2173334354225, 3100, 5.931549312915559 ,2464.2173334354225, 3100, 5.931549312915559 2474.4927634354226, 3100, 7.76990731291553 2474.4927634354226, 3100, 7.76990731291553 ,2474.4927634354226, 3100, 7.76990731291553 2473.4096934354225, 3100, 9.392575312915506 2473.4096934354225, 3100, 10.150499312915509 ,2473.4096934354225, 3100, 10.906411312915498 2477.2042534354223, 3100, 11.88205531291551 2477.2042534354223, 3100, 11.88205531291551 ,2477.2042534354223, 3100, 11.88205531291551 2483.6949934354225, 3100, 14.910723312915525 2483.6949934354225, 3100, 14.910723312915525 ,2483.6949934354225, 3100, 14.910723312915525 2485.8519534354223, 3100, 15.884325312915463 2485.8519534354223, 3100, 15.884325312915463 ,2485.8519534354223, 3100, 15.884325312915463 2488.5580734354226, 3100, 17.074635312915508 2490.1807734354225, 3100, 18.047229312915533 ,2491.8034834354225, 3100, 19.02082731291557 2492.8868934354223, 3100, 20.31899531291547 2492.8868934354223, 3100, 20.31899531291547 ,2492.8868934354223, 3100, 20.31899531291547 2490.1807734354225, 3100, 20.6445233129155 2490.1807734354225, 3100, 20.6445233129155 ,2490.1807734354225, 3100, 20.6445233129155 2492.8868934354223, 3100, 21.510313312915514 2492.8868934354223, 3100, 21.510313312915514 ,2492.8868934354223, 3100, 21.510313312915514 2489.1023034354225, 3100, 24.215469312915502 2489.1023034354225, 3100, 24.215469312915502 ,2489.1023034354225, 3100, 24.215469312915502 2475.5766234354223, 3100, 36.8703513129155 2479.9053534354225, 3100, 41.84626731291556 ,2484.1789034354224, 3100, 46.759665312915516 2488.5580734354226, 3100, 51.29712731291548 2495.5930234354223, 3100, 55.154269312915496 ,2499.110543435422, 3100, 57.085375312915495 2497.2157234354227, 3100, 59.48110131291551 2497.2157234354227, 3100, 59.48110131291551 ,2497.2157234354227, 3100, 59.48110131291551 2506.4125634354223, 3100, 68.13575531291553 2506.4125634354223, 3100, 68.13575531291553 ,2506.4125634354223, 3100, 68.13575531291553 2503.7064434354224, 3100, 72.35470531291548 2503.7064434354224, 3100, 72.35470531291548 ,2503.7064434354224, 3100, 72.35470531291548 2508.5745834354225, 3100, 72.35470531291548 2508.5745834354225, 3100, 72.35470531291548 ,2508.5745834354225, 3100, 72.35470531291548 2508.0307834354226, 3100, 69.21618531291551 2509.1138634354224, 3100, 68.46027531291547 ,2510.1969334354226, 3100, 67.70236731291553 2521.5561234354223, 3100, 56.992649312915546 2521.5561234354223, 3100, 56.992649312915546 ,2521.5561234354223, 3100, 56.992649312915546 2522.6448034354225, 3100, 55.154269312915496 2522.6448034354225, 3100, 55.154269312915496 ,2522.6448034354225, 3100, 55.154269312915496 2529.1304834354223, 3100, 38.38519931291548 2525.8850734354223, 3100, 36.8703513129155 ,2522.6448034354225, 3100, 35.35653331291551 2523.1740134354222, 3100, 33.62500331291549 2521.5563634354226, 3100, 31.78762731291554 ,2519.9386934354225, 3100, 29.946241312915483 2518.315863435422, 3100, 26.377339312915502 2521.5563634354226, 3100, 25.187053312915488 ,2524.7966234354226, 3100, 23.997757312915567 2532.9100434354223, 3100, 23.239825312915492 2532.9100434354223, 3100, 23.239825312915492 ,2532.9100434354223, 3100, 23.239825312915492 2536.1655434354225, 3100, 22.15836531291552 2532.3763634354223, 3100, 21.2936053129155 ,2528.5867034354224, 3100, 20.427839312915513 2524.7970634354224, 3100, 18.804149312915523 2524.7970634354224, 3100, 18.804149312915523 ,2524.7970634354224, 3100, 18.804149312915523 2527.5083434354224, 3100, 18.479625312915505 2529.6702434354224, 3100, 18.26391131291548 ,2531.8320134354226, 3100, 18.047293312915464 2535.0824734354223, 3100, 17.722705312915515 2535.0824734354223, 3100, 17.722705312915515 ,2535.0824734354223, 3100, 17.722705312915515 2536.1655434354225, 3100, 15.775479312915559 2536.1655434354225, 3100, 15.775479312915559 ,2536.1655434354225, 3100, 15.775479312915559 2536.6992434354224, 3100, 13.828253312915514 2538.8615834354223, 3100, 12.96251131291556 ,2541.0285134354226, 3100, 12.096721312915543 2543.1904134354227, 3100, 10.906411312915498 2543.1904134354227, 3100, 10.906411312915498 ,2543.1904134354227, 3100, 10.906411312915498 2543.1904134354227, 3100, 7.230681312915476 2545.3523034354225, 3100, 6.797295312915503 ,2547.5192334354224, 3100, 6.3639293129155705 2555.0883234354224, 3100, 5.065759312915543 2555.0883234354224, 3100, 5.065759312915543 ,2555.0883234354224, 3100, 5.065759312915543 2563.2068034354224, 3100, 3.227401312915572 2563.2068034354224, 3100, 3.227401312915572 ,2563.2068034354224, 3100, 3.227401312915572 2561.0398534354226, 3100, 2.5773333129154707 2564.2898634354224, 3100, 1.2791633129155344 ,2567.5302534354223, 3100, -0.017970687084471137 2570.2363734354226, 3100, -2.1839206870845373 2582.6735734354224, 3100, -2.5074326870844743 ,2595.1158534354227, 3100, -2.830960687084462 2617.8334134354222, 3100, -2.614390687084506 2617.8334134354222, 3100, -2.614390687084506 ,2617.8334134354222, 3100, -2.614390687084506 2622.7066034354225, 3100, -0.23478468708453876 2622.7066034354225, 3100, -0.23478468708453876 ,2622.7066034354225, 3100, -0.23478468708453876 2623.7851734354226, 3100, 1.6045833129155653 2621.6235134354224, 3100, 2.79489131291557 ,2619.4616134354224, 3100, 3.9831793129154907 2603.2297234354223, 3100, 10.150389312915468 2603.2297234354223, 3100, 10.150389312915468 ,2603.2297234354223, 3100, 10.150389312915468 2607.0193634354223, 3100, 12.205453312915507 2607.0193634354223, 3100, 12.205453312915507 ,2607.0193634354223, 3100, 12.205453312915507 2608.6420734354224, 3100, 15.45080131291552 2608.6420734354224, 3100, 15.45080131291552 ,2608.6420734354224, 3100, 15.45080131291552 2604.8524334354224, 3100, 18.91287931291554 2604.8524334354224, 3100, 18.91287931291554 ,2604.8524334354224, 3100, 18.91287931291554 2614.0492834354222, 3100, 19.993331312915508 2614.0492834354222, 3100, 20.96895131291549 ,2614.0492834354222, 3100, 21.942555312915466 2610.2596234354223, 3100, 24.862373312915498 2610.2596234354223, 3100, 24.862373312915498 ,2610.2596234354223, 3100, 24.862373312915498 2609.1866434354224, 3100, 25.186919312915506 2613.5150234354223, 3100, 26.486071312915556 ,2617.8338834354226, 3100, 27.783205312915563 2619.9956334354224, 3100, 32.219893312915524 2615.1377234354222, 3100, 37.08694731291553 ,2610.2596234354223, 3100, 41.95598931291552 2604.3131234354223, 3100, 47.90550931291555 2604.3131234354223, 3100, 47.90550931291555 ,2604.3131234354223, 3100, 47.90550931291555 2601.0678234354223, 3100, 51.04201131291557 2601.0678234354223, 3100, 51.04201131291557 ,2601.0678234354223, 3100, 51.04201131291557 2602.6954634354224, 3100, 55.69437331291556 2603.2297234354223, 3100, 58.6152033129155 ,2603.7791034354223, 3100, 61.53703931291548 2608.0977234354223, 3100, 73.21935331291552 2608.0977234354223, 3100, 73.21935331291552 ,2608.0977234354223, 3100, 73.21935331291552 2604.3131234354223, 3100, 77.76286931291553 2604.3131234354223, 3100, 77.76286931291553 ,2604.3131234354223, 3100, 77.76286931291553 2605.3962034354226, 3100, 81.98284931291546 2603.2300534354226, 3100, 84.68697931291554 ,2601.0681534354226, 3100, 87.39112731291553 2606.475463435422, 3100, 88.90496331291553 2606.475463435422, 3100, 88.90496331291553 ,2606.475463435422, 3100, 88.90496331291553 2617.8342034354223, 3100, 86.95874731291552 2617.8342034354223, 3100, 86.95874731291552 ,2617.8342034354223, 3100, 86.95874731291552 2628.1095434354224, 3100, 88.04018331291554 2628.1095434354224, 3100, 88.04018331291554 "
    	z:threeD="true"
    	style="fill:#2e3436;fill-opacity:1;fill-rule:evenodd;stroke:none" id="path3433_Clone3d"></path>
</g>
</svg>