<?xml version="1.0" encoding="UTF-8" standalone="no"?>
<!-- Created with Inkscape (http://www.inkscape.org/) -->

<svg
   xmlns:dc="http://purl.org/dc/elements/1.1/"
   xmlns:cc="http://creativecommons.org/ns#"
   xmlns:rdf="http://www.w3.org/1999/02/22-rdf-syntax-ns#"
   xmlns:svg="http://www.w3.org/2000/svg"
   xmlns="http://www.w3.org/2000/svg"
   xmlns:xlink="http://www.w3.org/1999/xlink"
   xmlns:sodipodi="http://sodipodi.sourceforge.net/DTD/sodipodi-0.dtd"
   xmlns:inkscape="http://www.inkscape.org/namespaces/inkscape"
   width="744.09448819"
   height="1052.3622047"
   id="svg2"
   version="1.1"
   inkscape:version="0.48.4 r9939"
   sodipodi:docname="piece of coal.svg"
   xmlns:z="http://debeissat.nicolas.free.fr/svg3d/svg3d.rng">
  <script type="text/ecmascript" xlink:href="../jquery/jquery-2.0.3.js"></script>
    <script type="text/ecmascript" xlink:href="../svg3d/svg3d_parsing.js"></script>
    <script type="text/ecmascript" xlink:href="../svg3d/svg3d.js"></script>
    <script type="text/ecmascript" xlink:href="../svg3d/dom_utils.js"></script>
  <script type="text/ecmascript" xlink:href="../svg3d/jquery_svg3d.js"></script>
  <script type="text/ecmascript" xlink:href="js/pieceOfCoal.js"></script>
  <defs
     id="defs4" />
  <sodipodi:namedview
     id="base"
     pagecolor="#ffffff"
     bordercolor="#666666"
     borderopacity="1.0"
     inkscape:pageopacity="0.0"
     inkscape:pageshadow="2"
     inkscape:zoom="0.49497475"
     inkscape:cx="511.66252"
     inkscape:cy="572.03103"
     inkscape:document-units="px"
     inkscape:current-layer="svg2"
     showgrid="false"
     inkscape:window-width="1276"
     inkscape:window-height="761"
     inkscape:window-x="0"
     inkscape:window-y="18"
     inkscape:window-maximized="0" />
  <metadata
     id="metadata7">
    <rdf:RDF>
      <cc:Work
         rdf:about="">
        <dc:format>image/svg+xml</dc:format>
        <dc:type
           rdf:resource="http://purl.org/dc/dcmitype/StillImage" />
        <dc:title />
      </cc:Work>
    </rdf:RDF>
  </metadata>
  <g
     id="g3172">
    <path
       inkscape:connector-curvature="0"
       id="path2985"
       d="m 62.235968,5.3274483 c -3.40891,0.8486604 -6.81782,1.6973208 -10.22673,2.5459811 -2.52084,4.9037086 -8.742418,0.5476775 -11.912445,5.0135516 6.168968,-0.49983 0.234735,4.967381 -2.819672,2.45569 -2.638712,2.929903 -6.242352,2.564269 -8.914345,5.336405 -4.744415,-1.517889 1.133327,8.252694 -5.203973,4.805268 -3.586558,-0.961513 -0.08617,4.637943 -3.297856,1.951387 -2.973377,2.02795 1.201387,7.030003 -3.960039,6.398649 2.260167,4.870296 -4.187306,6.857392 -1.927143,11.727688 -5.5723765,0.282494 -1.791346,9.081663 -2.832874,13.543231 1.440215,3.813116 -1.7763327,6.072953 -2.6252253,5.406323 0.0068,1.778381 0.3575463,10.623164 -0.3441104,4.610058 2.5478947,2.199089 3.7133707,8.53481 8.2136087,8.059894 -1.180998,4.878507 6.55682,-0.58243 7.500563,4.525377 5.102758,0.135619 10.335835,-1.037099 14.056042,2.697442 2.318545,-1.107484 4.859317,-0.501008 3.840738,2.394529 5.964345,1.77e-4 11.933362,0.07521 17.896781,0 -0.149857,-3.181063 -0.651258,-5.670773 2.726168,-5.658554 -1.575751,-3.170622 3.925364,-4.578899 2.465945,-0.300738 3.542091,-2.387535 1.364896,-7.125994 3.046902,-9.485386 4.064185,2.604398 1.078763,-9.085466 1.748026,-2.775016 5.317238,2.091152 0.46475,-9.797735 4.264469,-6.434579 2.183325,-1.200228 -0.08673,-4.622669 3.64527,-3.351545 0.785453,-3.373671 -2.127919,-8.509745 2.87145,-8.139066 -1.808502,-4.150418 2.307294,-6.757151 2.810881,-9.851598 4.886595,1.856081 -1.034364,-7.1818 4.5444,-4.923192 -0.06082,-3.248484 -0.201986,-6.257246 2.935752,-8.419966 -0.70933,-3.910221 -5.273874,-6.79516 -8.218605,-7.422519 1.303449,-3.822176 -4.09576,-1.338438 -6.291958,-1.979401 -2.364151,0.0018 -5.655931,-0.0072 -0.901639,0.01548 8.042652,0.172911 -4.746426,-5.360622 -6.75309,-7.756226 -2.157192,-1.6056374 -4.268383,-3.27227 -6.337291,-4.989164 z"
       style="fill:#483737;stroke:#000000;stroke-width:0.89296466px;stroke-linecap:butt;stroke-linejoin:miter;stroke-opacity:1" />
    <path
       inkscape:connector-curvature="0"
       id="path2987"
       d="m 90.99137,26.353958 c 1.408799,4.3965 0.602862,10.172145 4.545711,13.273319 1.229464,4.63164 4.844859,8.471305 2.993585,14.122174 -1.378097,3.319784 1.565974,3.662187 2.625514,4.205356 -1.07843,2.229638 5.17017,6.965866 1.01152,3.35039 -2.383937,-3.909507 0.61299,7.251907 4.15121,4.35696 -0.007,3.298487 -0.91681,6.259587 2.80861,6.201746 -0.44346,4.420191 -0.3171,9.011516 -0.01,13.370096 -1.511,-1.624369 0.31917,-4.161607 -0.24448,-0.376195 -0.21283,2.929076 1.47731,7.738877 -3.31299,6.205526 -5.11218,0.41566 3.55733,-2.280949 -0.11499,1.546619 -2.15916,1.887338 -7.586007,1.268794 -9.200288,0.860788 5.337208,0.168123 -0.489834,0.377869 -2.30838,0.26871 -4.356211,0.07316 -8.853765,-0.207278 -13.08901,0.268709 1.537171,-1.60691 3.760013,0.345745 0.120613,-0.268709 -3.444227,0.03867 -7.013563,-0.154257 -10.338968,0.268709 1.537172,-1.60691 3.760013,0.345745 0.120613,-0.268709 -4.992558,0.137852 -10.036027,-0.30512 -14.989564,0.279189 -1.640769,-1.010679 -0.0593,-4.121187 -0.533427,-5.894639"
       style="fill:#6c5353;stroke:#000000;stroke-width:0.93735951px;stroke-linecap:butt;stroke-linejoin:miter;stroke-opacity:1" />
    <path
       inkscape:connector-curvature="0"
       id="path2991"
       d="m 4.1644769,66.562448 c 7.2037611,-2.45583 8.9519421,5.11388 4.7810748,9.561857 -1.6927714,2.396002 -4.540431,9.36624 0.6923513,7.791357 -1.277916,3.992305 1.723242,4.558296 4.822633,3.240659 2.262574,1.113003 8.154306,4.343949 2.172746,4.072842 -1.259561,5.042293 6.136605,0.98891 3.770051,5.796693 0.1638,1.952895 10.677828,0.315946 7.023205,0.772365 -4.172335,0.214754 2.457859,5.899439 5.169049,3.481189 5.543698,-2.20549 6.633715,6.11503 12.507972,3.7207 4.380361,0.70104 12.449315,-2.98399 11.519244,3.25014 3.492832,0.79412 12.066434,-1.28356 12.666901,0.44795 -5.16308,-0.63284 1.264359,-0.4902 2.874484,-0.48805 1.96385,0 3.9277,0 5.89155,0 -1.180068,0 -5.86255,0 -4.799395,0 4.302497,-0.0781 8.795556,0.23703 12.929365,-0.33216 -1.169869,1.97619 -4.306991,-0.37088 -0.297412,0.33216 2.31642,-0.17967 9.196792,-0.049 3.157058,0.16269 2.614908,0.59696 7.089184,0.56096 5.707006,-3.83466 4.63983,2.67828 0.35271,-6.072904 5.197091,-3.26933 4.806549,2.49619 0.721279,-6.738361 6.317679,-3.266916 4.26151,-0.846932 0.8634,-9.054394 1.91744,-12.838694 -0.008,-1.572742 -0.0197,-3.145466 -0.025,-4.718221"
       style="fill:#280b0b;stroke:#000000;stroke-width:1.07866728px;stroke-linecap:butt;stroke-linejoin:miter;stroke-opacity:1" />
    <path
       inkscape:connector-curvature="0"
       id="path2993"
       d="m 34.751623,44.79019 c 1.843786,-0.219679 4.394695,0.427456 5.809031,-0.294944 0.289768,-3.067423 0.05277,-5.402586 -3.891516,-4.160527 0.226745,1.740067 -1.096438,2.985196 -1.917515,4.455471 z"
       style="fill:#241c1c;stroke:#000000;stroke-width:0.89296466px;stroke-linecap:butt;stroke-linejoin:miter;stroke-opacity:1" />
    <path
       inkscape:connector-curvature="0"
       id="path2995"
       d="m 57.122599,33.969757 c -1.879534,2.425011 -6.340187,9.166571 0,8.910943 1.908505,-0.447831 5.104701,1.105997 5.5833,-1.256855 2.210199,-2.700586 1.066278,-12.369336 -3.177682,-7.566316 -0.804006,0.02887 -1.602324,-0.08756 -2.405618,-0.08777 z"
       style="fill:#241c1c;stroke:#000000;stroke-width:0.89296466px;stroke-linecap:butt;stroke-linejoin:miter;stroke-opacity:1" />
    <path
       inkscape:connector-curvature="0"
       id="path2997"
       d="m 75.019379,58.156604 c 1.27552,4.97785 -5.179901,-1.649629 -3.203573,4.187437 0.917532,2.402232 4.779505,2.890696 8.300189,2.818075 4.512464,1.31994 3.016412,-7.323467 0.01675,-7.005512 -1.272643,-3.339386 -2.810539,-1.329697 -5.11337,0 z"
       style="fill:#241c1c;stroke:#000000;stroke-width:0.89296466px;stroke-linecap:butt;stroke-linejoin:miter;stroke-opacity:1" />
    <path
       inkscape:connector-curvature="0"
       id="path2999"
       d="m 50.091723,65.794556 c -1.375746,2.956573 -1.530267,9.144293 3.195855,5.728462 4.070504,-0.01538 2.196016,-7.757903 -2.359141,-5.728462 -0.278904,0 -0.55781,0 -0.836714,0 z"
       style="fill:none;stroke:#000000;stroke-width:0.89296466px;stroke-linecap:butt;stroke-linejoin:miter;stroke-opacity:1" />
    <path
       inkscape:connector-curvature="0"
       id="path3001"
       d="m 27.081573,60.702585 c -2.941477,3.474594 -3.127658,-0.856087 0,0 -2.866202,3.257622 -4.890833,9.983328 1.278349,10.183942 3.523279,-0.260885 9.036896,2.714259 10.865896,-1.272999 0.858628,-4.901711 -0.996785,-10.665749 -6.391701,-11.456924 -2.614685,-0.629799 -3.931025,1.02065 -5.752544,2.545981 z"
       style="fill:#241c1c;stroke:#000000;stroke-width:0.89296466px;stroke-linecap:butt;stroke-linejoin:miter;stroke-opacity:1" />
    <path
       inkscape:connector-curvature="0"
       id="path3003"
       d="m 42.421673,86.798922 c 1.560265,4.117066 5.934181,2.97937 4.474195,-1.110997 0.191635,-2.515416 -3.803738,0.700503 -4.474195,1.110997 z"
       style="fill:#6c5353;stroke:#000000;stroke-width:0.89296466px;stroke-linecap:butt;stroke-linejoin:miter;stroke-opacity:1" />
    <path
       inkscape:connector-curvature="0"
       id="path3005"
       d="m 34.751623,67.067547 c -4.424903,0.938935 -3.304654,6.618279 -2.436741,9.868824 2.022496,1.300808 4.627642,2.783601 9.170302,2.269487 4.036861,0.549159 4.459942,-2.992102 4.132344,-6.213137 0.03844,-2.845912 -0.08781,-6.895019 -1.868225,-8.084561 -3.492927,-0.230168 -5.017331,-2.311216 -8.99768,-1.659585"
       style="fill:#483737;stroke:#000000;stroke-width:0.89296466px;stroke-linecap:butt;stroke-linejoin:miter;stroke-opacity:1" />
    <path
       inkscape:connector-curvature="0"
       id="path3007"
       d="m 67.349329,60.066094 c -3.91277,-2.01652 -7.574063,-0.423495 -6.39171,3.923149 0.522511,2.929219 -1.460987,4.329827 1.643964,5.622811 1.382243,0.665662 5.89324,2.394384 5.728034,3.441979 1.642747,0.881991 4.087243,0.12827 6.050588,0.378475 3.649938,0.677231 3.582514,-2.421661 5.125601,-3.64972 0.365775,-3.809279 -1.338833,-7.936007 -4.729886,-8.404457 -0.368021,-0.7393 -8.483816,-1.745568 -11.661096,-0.596183 -0.734984,-0.06291 0.427399,-0.304061 0.399484,-0.07957"
       style="fill:#483737;stroke:#000000;stroke-width:0.89296466px;stroke-linecap:butt;stroke-linejoin:miter;stroke-opacity:1" />
    <path
       inkscape:connector-curvature="0"
       id="path3013"
       d="m 100.94053,67.934359 c -2.956763,3.592231 2.89495,4.736061 1.8713,5.275376 -2.40747,1.551472 -4.648334,3.682278 -7.160353,4.87019 -4.882824,0.22492 -4.621763,-7.093988 -0.210055,-7.490212 1.833024,-0.885101 3.666138,-1.770338 5.499108,-2.655354 z"
       style="fill:#241c1c" />
    <path
       inkscape:connector-curvature="0"
       id="path3015"
       d="m 99.786233,86.412677 c 3.248687,2.377625 4.912367,4.059929 0.566017,5.669522 -2.404679,1.268 -5.004929,4.488317 -7.035185,0.751967 -3.452432,-1.854233 1.917265,-2.967103 3.29614,-4.422979 1.057682,-0.666169 2.115355,-1.33234 3.173028,-1.99851 z"
       style="fill:#241c1c" />
    <path
       inkscape:connector-curvature="0"
       id="path3017"
       d="m 117.64135,104.08406 c 2.16596,1.24264 -2.84585,2.63692 -3.99831,3.94967 -1.90869,2.18141 -5.45545,1.57398 -1.68114,-0.22842 1.89314,-1.24042 3.7863,-2.48084 5.67945,-3.72125 z"
       style="fill:#241c1c" />
    <path
       inkscape:connector-curvature="0"
       id="path3019"
       d="m 113.75315,107.57372 c 2.51731,0.98983 10.86364,3.4744 5.30587,5.51623 -1.7491,1.12804 -3.4982,2.25606 -5.2473,3.3841 -1.69209,-2.8139 -10.84391,-2.5109 -5.27721,-5.12464 1.73954,-1.25856 3.47909,-2.51713 5.21864,-3.77569 z"
       style="fill:#241c1c" />
    <path
       inkscape:connector-curvature="0"
       id="path3021"
       d="m 117.6881,95.14562 c 4.66003,1.393779 3.58171,3.131867 0.14091,4.674957 -2.67256,2.152613 -5.11914,3.410523 -8.01331,0.577033 2.62414,-1.750657 5.24827,-3.501328 7.8724,-5.25199 z"
       style="fill:#241c1c" />
    <path
       inkscape:connector-curvature="0"
       id="path3023"
       d="m 81.889452,113.1455 c 4.162531,2.15193 4.140658,3.56507 0.253343,5.30606 -2.800834,2.47338 -5.61736,3.35795 -8.26847,-0.25778 2.671709,-1.68276 5.343418,-3.36552 8.015127,-5.04828 z"
       style="fill:#241c1c" />
    <path
       inkscape:connector-curvature="0"
       id="path3025"
       d="m 7.718867,90.394404 c 5.128535,0.34873 0.7413706,2.300271 -1.2674199,3.723856 C 4.9597232,95.780766 0.73144219,97.349466 0.60843547,95.538816 2.9785793,93.824012 5.3487232,92.109208 7.718867,90.394404 z"
       style="fill:#782121" />
    <path
       inkscape:connector-curvature="0"
       id="path3029"
       d="m 74.863668,23.221592 c 4.795497,1.148193 3.285463,3.160869 -0.0093,4.536028 -2.668602,1.993115 -4.996783,3.382288 -7.863136,0.715966 2.624133,-1.750664 5.248267,-3.501329 7.8724,-5.251994 z"
       style="fill:#6c5353" />
    <path
       inkscape:connector-curvature="0"
       id="path3031"
       d="m 50.679391,35.193346 c 2.078695,2.827084 6.796312,5.572282 1.479397,7.153081 -1.968056,0.558486 -4.377244,4.323517 -5.884908,1.536441 -3.548392,-2.539921 -4.193984,-4.63769 0.08092,-6.103912 1.441529,-0.86187 2.883058,-1.72374 4.324586,-2.58561 z"
       style="fill:#6c5353" />
    <path
       inkscape:connector-curvature="0"
       id="path3033"
       d="m 32.766995,47.170267 c 2.381472,2.580018 7.989268,4.598889 2.431551,6.490979 -2.058219,0.688117 -4.264083,4.281496 -6.159413,1.823908 -3.998897,-2.033742 -5.032981,-4.0983 -0.586092,-5.682359 1.437985,-0.877509 2.875969,-1.755018 4.313954,-2.632528 z"
       style="fill:#6c5353" />
    <path
       inkscape:connector-curvature="0"
       id="path3035"
       d="m 78.765623,45.136772 c 1.101615,3.079293 11.23252,5.501006 6.536607,7.827688 -1.947484,1.244132 -3.894969,2.488266 -5.842454,3.732398 -1.719852,-2.359173 -11.375514,-5.53656 -6.702677,-7.801768 2.002841,-1.252773 4.005682,-2.505545 6.008524,-3.758318 z"
       style="fill:#6c5353" />
    <path
       inkscape:connector-curvature="0"
       id="path3037"
       d="m 65.9681,49.936883 c 2.182112,1.747472 10.076916,2.982153 4.653416,5.170677 -1.739694,1.145705 -3.479386,2.291411 -5.219079,3.437116 -2.112095,-1.76878 -10.209978,-2.764929 -4.749493,-5.016603 1.771719,-1.197063 3.543438,-2.394127 5.315156,-3.59119 z"
       style="fill:#6c5353" />
    <path
       inkscape:connector-curvature="0"
       id="path3039"
       d="m 55.588612,57.29055 c 7.756043,-2.332603 -9.880577,6.702436 -3.478862,2.634205 3.018579,-4.663123 13.405871,-9.244035 14.60877,-10.199482 -2.26555,1.300988 -9.58977,5.516733 -3.76783,2.025919 2.299102,-1.251136 9.280184,-5.177313 3.458414,-1.820585 -2.247599,1.324772 -7.063383,4.069334 -2.125145,0.940519 3.978694,-3.338516 9.117217,-3.837154 13.990245,-4.833047 2.942682,-1.399204 9.505293,1.677313 4.084622,3.328365 -1.822823,1.12352 -3.645648,2.24704 -5.468473,3.370561 -3.952197,-3.07997 -9.675202,0.05706 -14.037903,0.853873 1.696648,-0.993245 8.225777,-4.700386 6.934476,-4.009699 -3.245633,1.847726 -8.703343,4.868098 -10.600331,6.037734 2.638281,-1.479593 9.888857,-5.413463 9.708112,-5.530651 -3.532798,2.046383 -7.627339,4.452645 -10.767217,6.236731 2.17824,-1.142607 11.25259,-6.952974 5.390398,-2.694532 -4.044434,4.120375 -8.4031,9.140628 -14.73535,9.207073 -1.453261,-0.268765 2.975729,-2.456273 4.041329,-3.54667 0.921577,-0.666774 1.843192,-1.333528 2.764745,-2.000314 z"
       style="fill:#6c5353" />
    <path
       inkscape:connector-curvature="0"
       id="path3041"
       d="m 70.845904,50.221428 c -0.246494,-4.773744 10.112651,-7.631288 9.4603,-8.059246 -2.395589,1.363558 -7.675503,4.367591 -8.4654,4.808783 2.792309,-1.581788 10.528267,-6.000761 10.294568,-5.839904 -2.923081,1.316667 -9.542595,6.508235 -4.498553,1.064156 1.77483,-4.547802 3.725592,-9.6924 9.003374,-11.210449 4.329504,-1.804555 3.40084,-0.41365 0.452988,1.469439 -1.879264,1.206146 -3.386689,3.101884 -5.586745,3.714716 2.98975,-0.746981 10.517614,-7.439124 6.56434,-2.452024 -1.097728,5.58317 -5.011533,9.601876 -10.281071,11.436274 -8.159256,5.059957 9.822319,-5.38747 3.022679,-1.653388 -2.085086,1.236804 -10.224933,5.875417 -4.101129,2.278619 2.313214,-0.944411 6.245201,-4.58227 2.91072,-0.657932 -0.82125,2.112246 -3.907224,2.335824 -5.726114,3.616087 -1.016652,0.494956 -2.033305,0.989912 -3.049957,1.484869 z"
       style="fill:#6c5353" />
    <path
       inkscape:connector-curvature="0"
       id="path3043"
       d="m 76.635065,55.875946 c -4.402644,5.07693 -5.670795,13.099114 -12.611138,15.688548 -3.327812,1.543588 -9.081932,1.941968 -11.504527,1.101679 4.639881,-3.452657 9.615491,-5.329785 14.763349,-7.695287 -0.813864,-0.225908 -11.938419,8.469687 -6.637169,2.039069 3.115299,-5.03992 4.232939,-11.75443 9.159795,-15.372346 2.968129,-1.781575 9.824903,-5.208634 5.6435,0.899489 -3.943378,4.323042 -9.235479,7.087917 -14.358685,9.803871 2.44765,-1.956469 4.8953,-3.912938 7.34295,-5.869406 -2.350378,1.219183 -12.896949,7.83842 -5.931154,3.269416 4.824709,-4.004549 8.138721,-7.86793 14.194321,-10.363756 -3.669118,4.428814 -5.565727,10.3293 -8.189723,15.501476 -3.238047,3.785377 -8.468084,5.949585 -13.06732,7.929071 -5.119012,1.346684 2.998666,-4.361994 4.910258,-5.289494 2.200096,0.485977 8.426588,-0.782121 7.971602,-0.727739 -2.868941,1.124813 -10.381146,7.256434 -5.436563,1.380782 2.14359,-3.518958 3.391854,-8.479991 7.863444,-9.643023 1.962354,-0.884116 3.924706,-1.768233 5.88706,-2.65235 z"
       style="fill:#6c5353" />
    <path
       inkscape:connector-curvature="0"
       id="path3045"
       d="m 67.100188,69.759935 c 0.842545,5.316582 8.94341,4.036626 12.630383,7.059786 4.064899,0.553444 7.823605,0.573686 2.786533,3.193386 -2.231576,1.284942 -4.097199,4.09829 -6.989251,2.82826 C 69.929644,81.1529 63.30038,79.74971 59.023532,75.953196 c -1.462295,-2.92704 3.043788,-3.070713 4.731437,-4.495918 1.115073,-0.565782 2.230146,-1.131563 3.345219,-1.697343 z"
       style="fill:#6c5353" />
    <path
       inkscape:connector-curvature="0"
       id="path3051"
       d="m 65.868764,94.359969 c 8.18411,1.864419 16.723889,1.361842 24.936014,0.149196 2.565844,-0.757662 6.158703,-2.558608 1.915788,-0.286344 -1.64416,0.943972 -7.727723,4.365845 -2.694665,1.479724 2.263209,-1.2968 9.366298,-5.360885 3.498329,-1.999793 -1.940083,1.132981 -7.326867,4.168218 -2.298573,1.27561 2.216561,-1.361752 9.472983,-5.296014 3.552385,-1.900018 -2.838707,1.700048 -6.990357,3.846106 -1.681358,0.810762 2.498489,-1.404872 8.179376,-4.620942 2.687578,-1.486915 -2.270869,1.2347 -7.025292,4.297756 -2.594989,0.974251 4.39843,-3.689968 9.795937,-5.871467 14.796087,-8.599059 -2.22811,1.204524 -8.522415,4.833042 -8.08789,4.540237 3.96688,-2.767162 -1.270976,-6.574315 -4.127042,-3.522954 2.76516,-0.859365 9.338442,-5.13584 9.394472,-4.556038 -2.36809,5.195775 -6.504599,9.212334 -11.372084,12.123913 -2.250467,1.061605 -10.123383,5.746907 -4.158416,2.294042 1.553199,-0.895666 7.082848,-4.07125 2.533638,-1.438823 -2.497513,1.43852 -10.109837,6.07421 -8.960429,4.249869 3.187045,-2.323814 6.010709,-5.230055 9.847528,-6.459445 -1.995643,1.160891 -11.181106,6.405017 -5.008575,2.919359 2.484798,-1.422445 7.675034,-4.29773 8.819471,-5.030878 -2.659668,1.492271 -10.054961,5.532288 -9.51026,5.427682 4.70841,-2.762544 7.533605,-7.394429 10.311114,-11.697176 3.087363,-3.158866 11.062913,-7.586705 12.097813,-0.346734 -1.7396,5.011328 -8.38805,6.276827 -12.560141,9.085335 -0.710403,0.178807 7.465701,-4.355439 7.890481,-4.818562 -3.46591,3.061306 -12.765268,8.721358 -12.842135,8.604884 2.5132,-1.356442 9.740025,-5.656702 3.304605,-1.973391 -2.443546,1.554033 -8.1854,4.600541 -2.663784,1.488377 3.082398,-1.729774 6.741261,-3.85932 2.00333,-1.118341 -1.95287,1.131814 -3.905749,2.263629 -5.858619,3.395443 1.776256,-1.034525 11.010283,-6.378007 5.167105,-2.966827 -5.066569,3.650154 -10.919853,5.722975 -17.155662,5.969495 -6.34265,0.25063 -12.728169,0.1327 -18.960497,-1.188329 2.592985,-1.799591 5.187105,-3.598595 7.779381,-5.398552 z"
       style="fill:#483737" />
    <path
       inkscape:connector-curvature="0"
       id="path3055"
       d="m 111.15029,86.427755 c -1.12848,5.644062 -4.56633,10.563161 -9.36699,13.811885 -4.306307,1.93605 7.24326,-1.972463 1.36034,0.38786 -1.83807,0.99254 -9.51909,5.38498 -3.592616,2.15977 2.243806,-1.35362 9.813626,-5.617957 3.738006,-2.14747 -2.61601,1.18913 -6.729175,4.63225 -2.95261,0.45375 0.89109,-2.429765 5.49397,-7.535432 0.64267,-3.863544 -4.083009,2.373002 3.96306,-2.395734 5.38371,-3.136064 5.65831,-4.142795 -2.59405,4.312575 -4.73454,4.872958 -3.138667,3.57348 -11.233363,5.00241 -6.963997,-1.693133 2.047007,-0.894311 11.676337,-6.501129 6.978137,-0.983322 -4.90322,4.141625 -10.651558,8.720835 -17.526096,7.918645 -4.387945,0.41402 -6.026735,-0.0426 -1.847768,-2.38219 2.348671,-1.55436 4.388337,-4.0632 7.543257,-3.132996 3.115964,0.720004 10.792517,-2.112223 4.083974,1.150911 -2.115274,1.220795 -8.831364,5.303305 -3.193305,1.762485 2.496592,-3.266224 11.043318,-8.179451 11.951228,-7.161099 -0.84152,2.81076 0.0545,2.517056 -3.242422,4.137127 -1.646307,0.851771 -6.874842,4.268052 -2.347905,0.959638 2.934964,-4.285086 7.931607,-6.395357 12.379037,-8.812833 5.7573,-0.569116 -1.83665,7.577179 -2.19687,9.451627 3.41653,-2.053531 -4.70945,2.37893 -5.638,3.02288 -2.927542,1.68738 -3.548713,2.09345 -0.16322,0.12707 2.47598,-1.41832 6.82973,-3.96732 2.01957,-1.15422 -2.7136,1.88668 -10.026835,6.60156 -11.101277,2.06463 4.801698,-3.34546 9.390697,-7.857763 10.137117,-13.917275 2.88343,-1.298883 5.76762,-2.598941 8.65057,-3.89709 z"
       style="fill:#280b0b" />
    <path
       inkscape:connector-curvature="0"
       id="path3057"
       d="m 32.034131,88.958659 c 5.743496,3.515995 9.80348,10.264912 16.996001,10.903835 6.722242,1.024346 13.213315,3.658286 20.221716,2.651296 6.962762,0.13304 13.96067,2.52512 20.896709,0.63598 3.106935,-0.37026 13.065313,-3.55038 6.11141,-0.62392 -2.741581,1.36826 -8.601874,5.52953 -2.926821,1.17001 2.884809,-1.2492 5.769617,-2.49839 8.654424,-3.747589 -3.817989,3.756129 -8.961318,7.256019 -14.535016,7.730389 -7.157219,2.38109 -14.804386,1.84427 -22.07628,0.38726 -6.329595,-0.28755 -12.921041,0.68563 -18.882752,-2.03137 -7.045013,-0.14907 -13.041431,-3.55772 -17.835979,-8.544131 -3.505929,-2.156065 -5.878871,-3.905942 -1.220577,-5.63643 1.53234,-0.965028 3.065064,-1.930742 4.597165,-2.89533 z"
       style="fill:#280b0b" />
    <path
       inkscape:connector-curvature="0"
       id="path3059"
       d="m 65.176177,92.934317 c 8.702126,0.09275 17.430047,0.101477 26.118776,-0.09266 4.506848,-1.373328 -3.662299,3.477468 -5.005329,4.801207 -5.97314,0.12134 -12.1375,-0.106468 -17.550862,2.917651 -2.233862,1.12444 4.566472,-4.160407 6.320331,-4.926855 4.78003,0.152395 13.135663,-0.24596 15.634644,-1.825558 -3.354767,1.309543 -10.1861,7.434933 -10.587115,6.489373 1.94296,-1.124166 9.721394,-5.516601 3.873142,-2.165133 -2.733225,1.793532 -10.617197,6.312843 -11.208827,4.200543 2.262334,-1.64784 4.524668,-3.295682 6.787003,-4.943529 2.792168,0.207028 7.409892,-2.667588 2.627691,0.108313 -2.448909,1.467356 -6.542245,3.731986 -1.617323,0.877139 3.044255,-1.185645 9.252478,-7.000543 10.911161,-3.220869 -5.490046,4.730383 -13.146801,6.361046 -20.275315,5.875206 -8.148797,0.82525 1.543307,-4.093026 3.96486,-5.88654 5.651053,-2.773638 12.066484,-3.398759 18.246206,-2.586838 -0.28693,4.357148 -8.134714,6.201196 -12.410033,5.909443 -7.83372,0.06247 -15.669075,-0.147138 -23.501548,0.02058 2.557417,-1.850526 5.115604,-3.70067 7.672538,-5.551446 z"
       style="fill:#280b0b" />
    <path
       inkscape:connector-curvature="0"
       id="path3061"
       d="m 22.146249,65.871734 c 2.965108,-0.32733 8.54595,3.549643 3.381435,4.92362 -1.697223,1.107407 -3.394446,2.214812 -5.091669,3.322219 -1.306279,-1.495499 -5.306582,-3.321432 -5.177888,-2.759051 2.29604,-1.828929 4.592082,-3.657859 6.888122,-5.486788 z"
       style="fill:#280b0b" />
  </g>
</svg>
