<?xml version="1.0" encoding="UTF-8" standalone="no"?>
<!-- Created with Inkscape (http://www.inkscape.org/) -->

<svg
   xmlns:dc="http://purl.org/dc/elements/1.1/"
   xmlns:cc="http://creativecommons.org/ns#"
   xmlns:rdf="http://www.w3.org/1999/02/22-rdf-syntax-ns#"
   xmlns:svg="http://www.w3.org/2000/svg"
   xmlns="http://www.w3.org/2000/svg"
   xmlns:xlink="http://www.w3.org/1999/xlink"
   xmlns:sodipodi="http://sodipodi.sourceforge.net/DTD/sodipodi-0.dtd"
   xmlns:inkscape="http://www.inkscape.org/namespaces/inkscape"
   width="744.09448819"
   height="1052.3622047"
   id="svg2"
   version="1.1"
   inkscape:version="0.48.4 r9939"
   sodipodi:docname="piece of coal.svg"
   xmlns:z="http://debeissat.nicolas.free.fr/svg3d/svg3d.rng">
  <script type="text/ecmascript" xlink:href="../jquery/jquery-2.0.3.js"></script>
    <script type="text/ecmascript" xlink:href="../svg3d/svg3d_parsing.js"></script>
    <script type="text/ecmascript" xlink:href="../svg3d/svg3d.js"></script>
    <script type="text/ecmascript" xlink:href="../svg3d/dom_utils.js"></script>
  <script type="text/ecmascript" xlink:href="../svg3d/jquery_svg3d.js"></script>
  <script type="text/ecmascript" xlink:href="js/pieceOfCoal.js"></script>
  <defs
     id="defs4" />
  <sodipodi:namedview
     id="base"
     pagecolor="#ffffff"
     bordercolor="#666666"
     borderopacity="1.0"
     inkscape:pageopacity="0.0"
     inkscape:pageshadow="2"
     inkscape:zoom="0.49497475"
     inkscape:cx="511.66252"
     inkscape:cy="572.03103"
     inkscape:document-units="px"
     inkscape:current-layer="svg2"
     showgrid="false"
     inkscape:window-width="1276"
     inkscape:window-height="761"
     inkscape:window-x="0"
     inkscape:window-y="18"
     inkscape:window-maximized="0" />
  <metadata
     id="metadata7">
    <rdf:RDF>
      <cc:Work
         rdf:about="">
        <dc:format>image/svg+xml</dc:format>
        <dc:type
           rdf:resource="http://purl.org/dc/dcmitype/StillImage" />
        <dc:title />
      </cc:Work>
    </rdf:RDF>
  </metadata>
  <g
     id="g3172">
    <path
       inkscape:connector-curvature="0"
       id="path2991"
       d="m 4.1644769,66.562448 c 7.2037611,-2.45583 8.9519421,5.11388 4.7810748,9.561857 -1.6927714,2.396002 -4.540431,9.36624 0.6923513,7.791357 -1.277916,3.992305 1.723242,4.558296 4.822633,3.240659 2.262574,1.113003 8.154306,4.343949 2.172746,4.072842 -1.259561,5.042293 6.136605,0.98891 3.770051,5.796693 0.1638,1.952895 10.677828,0.315946 7.023205,0.772365 -4.172335,0.214754 2.457859,5.899439 5.169049,3.481189 5.543698,-2.20549 6.633715,6.11503 12.507972,3.7207 4.380361,0.70104 12.449315,-2.98399 11.519244,3.25014 3.492832,0.79412 12.066434,-1.28356 12.666901,0.44795 -5.16308,-0.63284 1.264359,-0.4902 2.874484,-0.48805 1.96385,0 3.9277,0 5.89155,0 -1.180068,0 -5.86255,0 -4.799395,0 4.302497,-0.0781 8.795556,0.23703 12.929365,-0.33216 -1.169869,1.97619 -4.306991,-0.37088 -0.297412,0.33216 2.31642,-0.17967 9.196792,-0.049 3.157058,0.16269 2.614908,0.59696 7.089184,0.56096 5.707006,-3.83466 4.63983,2.67828 0.35271,-6.072904 5.197091,-3.26933 4.806549,2.49619 0.721279,-6.738361 6.317679,-3.266916 4.26151,-0.846932 0.8634,-9.054394 1.91744,-12.838694 -0.008,-1.572742 -0.0197,-3.145466 -0.025,-4.718221"
       style="fill:#280b0b;stroke:#000000;stroke-width:1.07866728px;stroke-linecap:butt;stroke-linejoin:miter;stroke-opacity:1" />
  </g>
</svg>
