<?xml version="1.0" encoding="UTF-8" standalone="no"?>
<!DOCTYPE svg PUBLIC "-//W3C//DTD SVG 1.1//EN" 
         "http://www.w3.org/Graphics/SVG/1.1/DTD/svg11.dtd" [
	<!ENTITY x "478">
	<!ENTITY y "350">
    <!ENTITY x2 "305">
	<!ENTITY y2 "400">
    <!ENTITY x3 "600">
	<!ENTITY y3 "20">
    <!ENTITY rot "0.1">
    
]>
<!-- Created with Inkscape (http://www.inkscape.org/) -->
<svg
   xmlns:dc="http://purl.org/dc/elements/1.1/"
   xmlns:cc="http://web.resource.org/cc/"
   xmlns:rdf="http://www.w3.org/1999/02/22-rdf-syntax-ns#"
   xmlns:svg="http://www.w3.org/2000/svg"
   xmlns="http://www.w3.org/2000/svg"
   xmlns:xlink="http://www.w3.org/1999/xlink"
   xmlns:sodipodi="http://sodipodi.sourceforge.net/DTD/sodipodi-0.dtd"
   xmlns:inkscape="http://www.inkscape.org/namespaces/inkscape"
   width="210mm"
   height="297mm"
   id="svg2523"
   sodipodi:version="0.32"
   inkscape:version="0.45.1"
   sodipodi:docbase="C:\Documents and Settings\utilisateur\Bureau"
   sodipodi:docname="wikio.svg"
   inkscape:output_extension="org.inkscape.output.svg.inkscape"
   xmlns:z="http://debeissat.nicolas.free.fr/svg3d/svg3d.rng"
             onload="svg3d.init(this)" 
          z:xInfinite="0"
          z:yInfinite="0"
          z:rotationTime="170"
          z:sortAlgo="none">
    <script type="text/ecmascript" xlink:href="../svg3d/svg3d.js"></script>
    <script type="text/ecmascript" xlink:href="../svg3d/svg3d_parsing.js"></script>
    <script type="text/ecmascript" xlink:href="../svg3d/dom_utils.js"></script>
  <defs
     id="defs2525">
    <linearGradient
       id="linearGradient3182">
      <stop
         offset="0"
         style="stop-color:#685f5f;stop-opacity:1;"
         id="stop3184" />
      <stop
         offset="1"
         style="stop-color:#ffffff;stop-opacity:0;"
         id="stop3186" />
    </linearGradient>
    <filter
       id="filter6421"
       inkscape:collect="always">
      <feGaussianBlur
         stdDeviation="3.162021"
         id="feGaussianBlur6423"
         inkscape:collect="always" />
    </filter>
    <clipPath
       clipPathUnits="userSpaceOnUse"
       id="clipPath8624">
      <path
         sodipodi:type="arc"
         style="opacity:0.81300815;fill:none;fill-opacity:1;stroke:#000000;stroke-width:1;stroke-linecap:butt;stroke-linejoin:round;stroke-miterlimit:4;stroke-dasharray:none;stroke-opacity:1"
         id="path8626"
         sodipodi:cx="1045.5079"
         sodipodi:cy="69.988831"
         sodipodi:rx="132.32999"
         sodipodi:ry="133.84521"
         d="M 1177.8379 69.988831 A 132.32999 133.84521 0 1 1  913.17795,69.988831 A 132.32999 133.84521 0 1 1  1177.8379 69.988831 z"
         transform="matrix(0.9962117,0,0,0.9887075,46.593089,360.96473)" />
    </clipPath>
    <linearGradient
       inkscape:collect="always"
       id="linearGradient24592">
      <stop
         style="stop-color:#ffffff;stop-opacity:1;"
         offset="0"
         id="stop24594" />
      <stop
         style="stop-color:#ffffff;stop-opacity:0;"
         offset="1"
         id="stop24596" />
    </linearGradient>
    <clipPath
       clipPathUnits="userSpaceOnUse"
       id="clipPath23607">
      <path
         style="fill:none;fill-rule:evenodd;stroke:#000000;stroke-width:1px;stroke-linecap:butt;stroke-linejoin:miter;stroke-opacity:1"
         d="M 122.73353,482.13106 L 135.86552,485.16152 L 279.81226,411.92546 L 281.83256,411.92546 L 289.4087,398.2884 L 209.60665,383.64119 L 145.96704,415.96607 L 122.73353,482.13106 z "
         id="path23609" />
    </clipPath>
    <linearGradient
       id="linearGradient9488"
       inkscape:collect="always">
      <stop
         offset="0"
         style="stop-color:#ffffff;stop-opacity:1;"
         id="stop9490" />
      <stop
         offset="1"
         style="stop-color:#ffffff;stop-opacity:0;"
         id="stop9492" />
    </linearGradient>
    <filter
       id="filter4399"
       width="1.851282"
       y="-0.4232996"
       x="-0.42564098"
       height="1.8465992"
       inkscape:collect="always">
      <feGaussianBlur
         stdDeviation="45.857662"
         id="feGaussianBlur4401"
         inkscape:collect="always" />
    </filter>
    <clipPath
       clipPathUnits="userSpaceOnUse"
       id="clipPath2543">
      <rect
         style="opacity:0.58536568;fill:#676060;fill-opacity:1;stroke:none;stroke-width:1;stroke-linecap:butt;stroke-linejoin:round;stroke-miterlimit:4;stroke-dasharray:none;stroke-opacity:1"
         id="rect2545"
         width="665.71429"
         height="402.85715"
         x="522.85712"
         y="452.36218" />
    </clipPath>
    <clipPath
       clipPathUnits="userSpaceOnUse"
       id="clipPath2209">
      <path
         sodipodi:type="arc"
         style="opacity:0.67886179;fill:none;fill-opacity:1;stroke:#000000;stroke-width:1;stroke-linecap:butt;stroke-linejoin:round;stroke-miterlimit:4;stroke-dasharray:none;stroke-opacity:1"
         id="path2211"
         sodipodi:cx="353.57144"
         sodipodi:cy="705.2193"
         sodipodi:rx="114.28571"
         sodipodi:ry="112.85714"
         d="M 467.85715 705.2193 A 114.28571 112.85714 0 1 1  239.28573,705.2193 A 114.28571 112.85714 0 1 1  467.85715 705.2193 z"
         transform="matrix(1.0256014,0,0,0.988073,1.0881121,7.8593701)" />
    </clipPath>
    <clipPath
       clipPathUnits="userSpaceOnUse"
       id="clipPath4213">
      <path
         sodipodi:type="arc"
         style="opacity:0.67886179;fill:none;fill-opacity:1;stroke:#000000;stroke-width:1;stroke-linecap:butt;stroke-linejoin:round;stroke-miterlimit:4;stroke-dasharray:none;stroke-opacity:1"
         id="path4215"
         sodipodi:cx="347.85715"
         sodipodi:cy="310.21933"
         sodipodi:rx="129.28572"
         sodipodi:ry="130"
         d="M 477.14287 310.21933 A 129.28572 130 0 1 1  218.57143,310.21933 A 129.28572 130 0 1 1  477.14287 310.21933 z"
         transform="translate(5.7142857,398.57143)" />
    </clipPath>
    <clipPath
       clipPathUnits="userSpaceOnUse"
       id="clipPath4830">
      <path
         style="fill:none;fill-rule:evenodd;stroke:#000000;stroke-width:1px;stroke-linecap:butt;stroke-linejoin:miter;stroke-opacity:1"
         d="M 305,215.93361 L 305,229.86218 L 314.46429,237.36218 L 330,237.36218 L 325.89286,221.46932 L 305,215.93361 z "
         id="path4832" />
    </clipPath>
    <linearGradient
       inkscape:collect="always"
       xlink:href="#linearGradient3182"
       id="linearGradient7804"
       gradientUnits="userSpaceOnUse"
       x1="133.57143"
       y1="75.219307"
       x2="163.57143"
       y2="230.93359" />
    <linearGradient
       inkscape:collect="always"
       xlink:href="#linearGradient24592"
       id="linearGradient7813"
       gradientUnits="userSpaceOnUse"
       gradientTransform="matrix(1.042055,0,0,1.0810052,11.14102,194.36373)"
       x1="288.39856"
       y1="19.481201"
       x2="323.24881"
       y2="56.856846" />
    <linearGradient
       inkscape:collect="always"
       xlink:href="#linearGradient24592"
       id="linearGradient7816"
       gradientUnits="userSpaceOnUse"
       gradientTransform="matrix(1.042055,0,0,1.0810052,10.61471,194.36373)"
       x1="126.26907"
       y1="104.33401"
       x2="136.31618"
       y2="157.8721" />
    <linearGradient
       inkscape:collect="always"
       xlink:href="#linearGradient9488"
       id="linearGradient7820"
       gradientUnits="userSpaceOnUse"
       gradientTransform="matrix(1.0710158,0,0,1.0818195,20.74667,-189.6018)"
       x1="172.85715"
       y1="487.36218"
       x2="187.14285"
       y2="388.79074" />
    <filter
       inkscape:collect="always"
       id="filter11765">
      <feGaussianBlur
         inkscape:collect="always"
         stdDeviation="3.5368411"
         id="feGaussianBlur11767" />
    </filter>
    <clipPath
       clipPathUnits="userSpaceOnUse"
       id="clipPath2216">
      <path
         sodipodi:type="arc"
         style="opacity:1;fill:none;fill-opacity:1;stroke:#8f3e3e;stroke-width:1;stroke-linecap:butt;stroke-linejoin:round;stroke-miterlimit:4;stroke-dasharray:none;stroke-opacity:1"
         id="path2218"
         sodipodi:cx="259.60919"
         sodipodi:cy="318.99142"
         sodipodi:rx="117.1777"
         sodipodi:ry="118.18785"
         d="M 376.78689 318.99142 A 117.1777 118.18785 0 1 1  142.4315,318.99142 A 117.1777 118.18785 0 1 1  376.78689 318.99142 z"
         transform="translate(260.61936,-20.20305)" />
    </clipPath>
    <filter
       inkscape:collect="always"
       id="filter5196">
      <feGaussianBlur
         inkscape:collect="always"
         stdDeviation="1.1857143"
         id="feGaussianBlur5198" />
    </filter>
    <clipPath
       clipPathUnits="userSpaceOnUse"
       id="clipPath6209">
      <path
         sodipodi:type="arc"
         style="opacity:1;fill:none;fill-opacity:1;stroke:#000000;stroke-width:1;stroke-linecap:butt;stroke-linejoin:round;stroke-miterlimit:4;stroke-dasharray:none;stroke-opacity:1"
         id="path6211"
         sodipodi:cx="259.64285"
         sodipodi:cy="318.79074"
         sodipodi:rx="132.5"
         sodipodi:ry="134.28572"
         d="M 392.14285 318.79074 A 132.5 134.28572 0 1 1  127.14285,318.79074 A 132.5 134.28572 0 1 1  392.14285 318.79074 z"
         transform="matrix(0.984715,0,0,0.9734821,3.3614861,8.453648)" />
    </clipPath>
  </defs>
  <sodipodi:namedview
     id="base"
     pagecolor="#ffffff"
     bordercolor="#666666"
     borderopacity="1.0"
     inkscape:pageopacity="0.0"
     inkscape:pageshadow="2"
     inkscape:zoom="0.7"
     inkscape:cx="505.68815"
     inkscape:cy="712.43604"
     inkscape:document-units="px"
     inkscape:current-layer="layer1"
     inkscape:window-width="1280"
     inkscape:window-height="740"
     inkscape:window-x="0"
     inkscape:window-y="26"
     showgrid="false" />
  <metadata
     id="metadata2528">
    <rdf:RDF>
      <cc:Work
         rdf:about="">
        <dc:format>image/svg+xml</dc:format>
        <dc:type
           rdf:resource="http://purl.org/dc/dcmitype/StillImage" />
      </cc:Work>
    </rdf:RDF>
  </metadata>
  <g
     inkscape:label="Calque 1"
     inkscape:groupmode="layer"
     id="layer1">
    <g
       id="g5208"
       clip-path="url(#clipPath6209)"
       inkscape:export-filename="C:\Documents and Settings\utilisateur\Bureau\wikio.png"
       inkscape:export-xdpi="90"
       inkscape:export-ydpi="90">
      <g
         id="g2220">
        <g
           id="g11781">
          <path
             sodipodi:ry="130"
             sodipodi:rx="129.28572"
             transform="matrix(1.0250581,0,0,1.032967,53.97077,134.49304)"
             d="M 330 178.07646 A 129.28572 130 0 1 1  71.428558,178.07646 A 129.28572 130 0 1 1  330 178.07646 z"
             sodipodi:type="arc"
             sodipodi:cy="178.07646"
             sodipodi:cx="200.71428"
             id="path2606"
             style="fill:#9d9893;fill-opacity:1;stroke:none;stroke-width:1;stroke-linecap:butt;stroke-linejoin:round;stroke-miterlimit:4;stroke-dasharray:none;stroke-opacity:1;filter:url(#filter6421)" />
          <path
             sodipodi:ry="130"
             sodipodi:rx="129.28572"
             d="M 330 178.07646 A 129.28572 130 0 1 1  71.428558,178.07646 A 129.28572 130 0 1 1  330 178.07646 z"
             sodipodi:type="arc"
             sodipodi:cy="178.07646"
             sodipodi:cx="200.71428"
             id="path2608"
             style="fill:#0c0909;fill-opacity:1;stroke:none;stroke-width:1;stroke-linecap:butt;stroke-linejoin:round;stroke-miterlimit:4;stroke-dasharray:none;stroke-opacity:1"
             transform="translate(58.09711,140.93512)" />
          <path
             sodipodi:ry="130"
             sodipodi:rx="129.28572"
             transform="matrix(0.7568623,8.2626996e-3,-8.1888086e-3,0.7636918,93.35658,167.78621)"
             d="M 330 178.07646 A 129.28572 130 0 1 1  71.428558,178.07646 A 129.28572 130 0 1 1  330 178.07646 z"
             sodipodi:type="arc"
             sodipodi:cy="178.07646"
             sodipodi:cx="200.71428"
             id="path2610"
             style="fill:#484848;fill-opacity:1;stroke:none;stroke-width:1;stroke-linecap:butt;stroke-linejoin:round;stroke-miterlimit:4;stroke-dasharray:none;stroke-opacity:1;filter:url(#filter4399)" />
          <path
             sodipodi:ry="130"
             sodipodi:rx="129.28572"
             transform="translate(58.8114,140.93513)"
             d="M 330 178.07646 A 129.28572 130 0 1 1  71.428558,178.07646 A 129.28572 130 0 1 1  330 178.07646 z"
             sodipodi:type="arc"
             sodipodi:cy="178.07646"
             sodipodi:cx="200.71428"
             id="path2612"
             style="fill:url(#linearGradient7804);fill-opacity:1;stroke:none;stroke-width:1;stroke-linecap:butt;stroke-linejoin:round;stroke-miterlimit:4;stroke-dasharray:none;stroke-opacity:1" />
          <path
             d="M 256.00202,202.42252 C 193.29252,202.42252 142.37389,252.96029 142.37389,315.236 C 142.37389,345.67393 154.55028,373.29948 174.30352,393.60029 C 198.71482,325.11178 272.46362,274.57213 360.66032,271.3547 C 343.41362,230.85171 303.04532,202.42253 256.00202,202.42252 z "
             id="path2620"
             style="opacity:0.28861789;fill:url(#linearGradient7820);fill-opacity:1;stroke:none;stroke-width:5;stroke-linecap:butt;stroke-linejoin:round;stroke-miterlimit:4;stroke-opacity:1" />
          <path
             sodipodi:type="arc"
             style="opacity:0.69105691;fill:none;fill-opacity:1;stroke:#fffcfc;stroke-width:3;stroke-linecap:butt;stroke-linejoin:round;stroke-miterlimit:4;stroke-dasharray:none;stroke-opacity:1"
             id="path2622"
             sodipodi:cx="234.86047"
             sodipodi:cy="497.28336"
             sodipodi:rx="108.08632"
             sodipodi:ry="102.02541"
             d="M 342.94679 497.28336 A 108.08632 102.02541 0 1 1  126.77415,497.28336 A 108.08632 102.02541 0 1 1  342.94679 497.28336 z"
             transform="matrix(1.042055,0,0,1.0810052,11.14102,-226.59462)"
             clip-path="url(#clipPath23607)" />
          <path
             style="opacity:0.69105691;fill:url(#linearGradient7816);fill-opacity:1;fill-rule:evenodd;stroke:none;stroke-width:1px;stroke-linecap:butt;stroke-linejoin:miter;stroke-opacity:1"
             d="M 142.72033,295.68356 L 145.87823,296.22954 C 145.87823,296.22954 139.29926,337.17881 163.50986,372.94115 L 160.87827,374.30613 C 160.87827,374.30613 136.93084,345.36866 142.72033,295.68356 z "
             id="path2624"
             sodipodi:nodetypes="ccscc" />
          <path
             style="opacity:0.69105691;fill:url(#linearGradient7813);fill-opacity:1;fill-rule:evenodd;stroke:none;stroke-width:1px;stroke-linecap:butt;stroke-linejoin:miter;stroke-opacity:1"
             d="M 308.51032,211.60108 L 307.45772,214.60403 C 307.45772,214.60403 350.08932,232.8947 364.03682,284.21777 L 366.93152,283.12578 C 366.93152,283.12578 359.29992,237.26262 308.51032,211.60108 z "
             id="path2626"
             sodipodi:nodetypes="ccscc" />
        </g>
        <g
           id="g11769"
           transform="translate(-261.62951,19.192898)"
           clip-path="url(#clipPath2216)">
          <g
             style="fill:#120e0e;fill-opacity:1;filter:url(#filter11765)"
             transform="translate(53.193272,1.3954284)"
             id="g10746">
            <path
               style="fill:#120e0e;fill-opacity:1;stroke:none;stroke-width:0.98752135;stroke-linecap:butt;stroke-linejoin:round;stroke-miterlimit:4;stroke-opacity:1"
               d="M 477.35935,297.39382 C 445.21989,298.11817 419.35025,320.17352 419.35028,347.25967 C 419.35031,374.80138 446.10218,397.12554 478.99085,397.12551 C 511.58151,397.12548 538.06357,375.20846 538.54079,348.01141 L 513.16182,348.01141 C 512.71941,365.18421 497.19587,379.00007 478.1751,379.00007 C 458.87679,379.00004 443.18838,364.78037 443.18838,347.25967 C 443.18841,329.98471 458.43389,315.91049 477.35935,315.51926 L 477.35935,297.39382 z "
               id="path10748" />
            <path
               style="fill:#120e0e;fill-opacity:1;stroke:none;stroke-width:0.98752135;stroke-linecap:butt;stroke-linejoin:round;stroke-miterlimit:4;stroke-opacity:1"
               d="M 305.52055,218.33318 C 294.18139,218.33318 284.95804,226.71653 284.95805,237.02068 C 284.95805,247.32484 294.1814,255.67694 305.52055,255.67693 C 316.85971,255.67693 326.05181,247.32485 326.0518,237.02068 C 326.0518,226.71653 316.85972,218.33318 305.52055,218.33318 z M 305.2393,225.14568 C 311.89288,225.14568 317.3018,230.46568 317.3018,237.02068 C 317.30179,243.57568 311.89287,248.89568 305.2393,248.89568 C 298.58574,248.89568 293.1768,243.57568 293.1768,237.02068 C 293.1768,230.46568 298.58573,225.14568 305.2393,225.14568 z "
               id="path10750"
               clip-path="url(#clipPath4830)"
               transform="matrix(2.9004534,0,0,2.6728761,-407.27894,-286.34)" />
            <path
               sodipodi:type="arc"
               style="fill:#120e0e;fill-opacity:1;stroke:none;stroke-width:1;stroke-linecap:butt;stroke-linejoin:round;stroke-miterlimit:4;stroke-dasharray:none;stroke-opacity:1"
               id="path10752"
               sodipodi:cx="305"
               sodipodi:cy="237.40683"
               sodipodi:rx="4.0178571"
               sodipodi:ry="3.9732144"
               d="M 309.01786 237.40683 A 4.0178571 3.9732144 0 1 1  300.98214,237.40683 A 4.0178571 3.9732144 0 1 1  309.01786 237.40683 z"
               transform="matrix(2.9004534,0,0,2.6728761,-407.27894,-286.34)" />
            <path
               style="fill:#120e0e;fill-opacity:1;fill-rule:evenodd;stroke:none;stroke-width:1px;stroke-linecap:butt;stroke-linejoin:miter;stroke-opacity:1"
               d="M 477.35935,251.87616 L 477.35935,273.25917 C 477.35935,273.25917 566.90061,265.19416 566.91293,348.0997 L 590.47703,348.72042 C 590.47703,348.72042 591.45086,250.72059 477.35935,251.87616 z "
               id="path10754"
               sodipodi:nodetypes="ccscc" />
          </g>
          <g
             transform="translate(54.548237,4.5713932e-8)"
             id="g8802" 
         onclick="svg3d.toggleRotation()">
            <path
               style="fill:#9f9898;fill-opacity:1;stroke:none;stroke-width:0.98752135;stroke-linecap:butt;stroke-linejoin:round;stroke-miterlimit:4;stroke-opacity:1"
               d="M 477.35935,297.39382 C 445.21989,298.11817 419.35025,320.17352 419.35028,347.25967 C 419.35031,374.80138 446.10218,397.12554 478.99085,397.12551 C 511.58151,397.12548 538.06357,375.20846 538.54079,348.01141 L 513.16182,348.01141 C 512.71941,365.18421 497.19587,379.00007 478.1751,379.00007 C 458.87679,379.00004 443.18838,364.78037 443.18838,347.25967 C 443.18841,329.98471 458.43389,315.91049 477.35935,315.51926 L 477.35935,297.39382 z "
               id="path2860">
                    <z:translation x="&x;" y="-&y;"/>
                    <z:rotation incRotY="&rot;"/>
                    <z:translation x="-&x;" y="&y;"/>
               </path>
            <path
               style="fill:#e48811;fill-opacity:1;stroke:none;stroke-width:0.98752135;stroke-linecap:butt;stroke-linejoin:round;stroke-miterlimit:4;stroke-opacity:1"
               d="M 305.52055,218.33318 C 294.18139,218.33318 284.95804,226.71653 284.95805,237.02068 C 284.95805,247.32484 294.1814,255.67694 305.52055,255.67693 C 316.85971,255.67693 326.05181,247.32485 326.0518,237.02068 C 326.0518,226.71653 316.85972,218.33318 305.52055,218.33318 z M 305.2393,225.14568 C 311.89288,225.14568 317.3018,230.46568 317.3018,237.02068 C 317.30179,243.57568 311.89287,248.89568 305.2393,248.89568 C 298.58574,248.89568 293.1768,243.57568 293.1768,237.02068 C 293.1768,230.46568 298.58573,225.14568 305.2393,225.14568 z "
               id="path4812"
               clip-path="url(#clipPath4830)"
               transform="matrix(2.9004534,0,0,2.6728761,-407.27894,-286.34)">
               </path>
            <path
               sodipodi:type="arc"
               style="fill:#e9800d;fill-opacity:1;stroke:none;stroke-width:1;stroke-linecap:butt;stroke-linejoin:round;stroke-miterlimit:4;stroke-dasharray:none;stroke-opacity:1"
               id="path6772"
               sodipodi:cx="305"
               sodipodi:cy="237.40683"
               sodipodi:rx="4.0178571"
               sodipodi:ry="3.9732144"
               d="M 309.01786 237.40683 A 4.0178571 3.9732144 0 1 1  300.98214,237.40683 A 4.0178571 3.9732144 0 1 1  309.01786 237.40683 z"
               transform="matrix(2.9004534,0,0,2.6728761,-407.27894,-286.34)">
                    <z:translation x="&x2;" y="-&y2;"/>
                    <z:rotation incRotY="&rot;"/>
                    <z:translation x="-&x2;" y="&y2;"/>
               </path>
            <path
               style="fill:#e9800d;fill-opacity:1;fill-rule:evenodd;stroke:none;stroke-width:1px;stroke-linecap:butt;stroke-linejoin:miter;stroke-opacity:1"
               d="M 477.35935,251.87616 L 477.35935,273.25917 C 477.35935,273.25917 566.90061,265.19416 566.91293,348.0997 L 590.47703,348.72042 C 590.47703,348.72042 591.45086,250.72059 477.35935,251.87616 z "
               id="path7747"
               sodipodi:nodetypes="ccscc">
                    <z:translation x="&x;" y="-&y;"/>
                    <z:rotation incRotY="&rot;"/>
                    <z:translation x="-&x;" y="&y;"/>
               </path>
          </g>
        </g>
      </g>
      <g
         transform="translate(-270,-12.857143)"
         id="g5200">
        <g
           id="g4209"
           style="fill:#252222;fill-opacity:1;stroke:none;filter:url(#filter5196)"
           transform="translate(0.8437078,51.071433)">
          <rect
             y="213.07646"
             x="470"
             height="59.285713"
             width="20.000002"
             id="rect4211"
             style="opacity:1;fill:#252222;fill-opacity:1;stroke:none;stroke-width:1;stroke-linecap:butt;stroke-linejoin:round;stroke-miterlimit:4;stroke-dasharray:none;stroke-opacity:1" />
          <rect
             transform="matrix(0,1,-1,0,0,0)"
             y="-510.22772"
             x="232.74989"
             height="59.285713"
             width="20.000002"
             id="rect4213"
             style="opacity:1;fill:#252222;fill-opacity:1;stroke:none;stroke-width:1;stroke-linecap:butt;stroke-linejoin:round;stroke-miterlimit:4;stroke-dasharray:none;stroke-opacity:1" />
        </g>
        <g
           id="g3236"
           style="fill:#ffffff;fill-opacity:1;stroke:none"
           transform="translate(-0.9420048,51.714287)">
          <rect
             y="213.07646"
             x="470"
             height="59.285713"
             width="20.000002"
             id="rect3232"
             style="opacity:1;fill:#ffffff;fill-opacity:1;stroke:none;stroke-width:1;stroke-linecap:butt;stroke-linejoin:round;stroke-miterlimit:4;stroke-dasharray:none;stroke-opacity:1" />
          <rect
             transform="matrix(0,1,-1,0,0,0)"
             y="-510.22772"
             x="232.74989"
             height="59.285713"
             width="20.000002"
             id="rect3234"
             style="opacity:1;fill:#ffffff;fill-opacity:1;stroke:none;stroke-width:1;stroke-linecap:butt;stroke-linejoin:round;stroke-miterlimit:4;stroke-dasharray:none;stroke-opacity:1" />
        </g>
      </g>
    </g>
  </g>
</svg>
