<?xml version="1.0" encoding="utf-8"?>
<!-- Generator: Adobe Illustrator 12.0.0, SVG Export Plug-In . SVG Version: 6.00 Build 51448)  -->
<!DOCTYPE svg PUBLIC "-//W3C//DTD SVG 1.1//EN" "http://www.w3.org/Graphics/SVG/1.1/DTD/svg11.dtd" [
	<!ENTITY ns_svg "http://www.w3.org/2000/svg">
	<!ENTITY ns_xlink "http://www.w3.org/1999/xlink">
]>
<svg  version="1.1" id="Layer_1" xmlns="&ns_svg;" xmlns:xlink="&ns_xlink;" width="223.104" height="207.65"
	 viewBox="0 0 223.104 207.65" overflow="visible" enable-background="new 0 0 223.104 207.65" xml:space="preserve">
<g>
	
		<circle fill-rule="evenodd" clip-rule="evenodd" fill="#FFB0B0" stroke="#000000" stroke-width="4.1569" cx="110.466" cy="105.75" r="94.222"/>
	<path fill-rule="evenodd" clip-rule="evenodd" fill="#FFB0B0" stroke="#000000" stroke-width="4.1569" d="M79.471,54.605
		c0.583-13.561-1.63-38.685-15.254-45.825C43.65-1.997,20.677,36.701,9.769,50.046c-13.067,15.986,2.201,28.751,20.532,35.291
		C61.839,96.585,77.97,89.563,79.471,54.605z"/>
	<path fill-rule="evenodd" clip-rule="evenodd" fill="#EF7D7D" stroke="#000000" stroke-width="4.1569" d="M160.35,137.588
		c-22.477-54.687-106.185,14.28-62.174,31.164c9.619,3.692,16.547-3.225,25.343-3.642c7.984-0.379,14.146,4.503,21.723,4.783
		C165.925,170.653,167.325,154.697,160.35,137.588"/>
	<path fill-rule="evenodd" clip-rule="evenodd" d="M106.31,155.602c8.754-2.304,20.814-13.792,11.119-20.95
		c-4.406,6.159-0.582,11.575-6.963,18.18"/>
	<path fill-rule="evenodd" clip-rule="evenodd" d="M143.039,136.194c-15.219-1.792-1.18,16.287,6.642,19.188
		c0.231,0.428,1.75-2.332,1.529-2.219c-7.708-2.686-10.206-9.27-5.233-15.612c-1.246-2.614-2.314-0.265-4.322-1.357"/>
	<g>
		<circle fill="#00A23D" cx="159.953" cy="105.551" r="12.019"/>
		<path d="M167.275,105.551c0,4.047-3.276,7.326-7.322,7.326c-4.044,0-7.322-3.279-7.322-7.326c0-4.043,3.278-7.323,7.322-7.323
			C163.999,98.228,167.275,101.508,167.275,105.551z"/>
		<path fill="#FFFFFF" d="M159.953,101.301c0,2.349-1.901,4.25-4.251,4.25c-2.343,0-4.248-1.901-4.248-4.25
			c0-2.342,1.905-4.249,4.248-4.249C158.052,97.052,159.953,98.959,159.953,101.301z"/>
		<ellipse fill="#FFFFFF" cx="157.828" cy="111.308" rx="2.125" ry="2.344"/>
	</g>
	<g>
		<circle fill="#00A23D" cx="89.586" cy="107.135" r="12.019"/>
		<circle cx="89.587" cy="107.135" r="7.323"/>
		<path fill="#FFFFFF" d="M89.587,102.884c0,2.349-1.902,4.251-4.253,4.251c-2.342,0-4.248-1.902-4.248-4.251
			c0-2.342,1.906-4.248,4.248-4.248C87.685,98.636,89.587,100.542,89.587,102.884z"/>
		<ellipse fill="#FFFFFF" cx="87.46" cy="112.891" rx="2.126" ry="2.344"/>
	</g>
	<path fill-rule="evenodd" clip-rule="evenodd" fill="none" stroke="#000000" stroke-width="4.1569" d="M141.112,171.178
		c0.881,4.699-8.048,7.77-11.454,8.502c-7.069,1.524-19.017-1.611-21.49-9.211"/>
	<path fill-rule="evenodd" clip-rule="evenodd" fill="none" stroke="#000000" stroke-width="2.0784" stroke-linecap="round" d="
		M114.19,104.581c4.975-3.008,14.549-4.216,20.174-2.99c2.288,0.499,5.874,2.356,7.103,2.99"/>
	<path fill-rule="evenodd" clip-rule="evenodd" fill="#FFB0B0" stroke="#000000" stroke-width="4.1569" d="M16.418,99.62
		c-4.723,20.728-3.478,47.958,11.475,64.649c11.808,13.182,29.178,14.646,45.559,11.514"/>
	<path fill-rule="evenodd" clip-rule="evenodd" fill="#FFB0B0" stroke="#000000" stroke-width="4.1569" d="M166.264,172.95
		c10.837,14.577,25.762-0.407,31.29-11.004c5.056-9.689,7.831-20.69,8.701-31.554c0.85-10.564-1.491-20.612-1.732-31.125"/>
	<path fill-rule="evenodd" clip-rule="evenodd" fill="#FFB0B0" stroke="#000000" stroke-width="4.1569" d="M191.062,37.626
		c-5.868-1.89-11.688-11.09-13.865-16.512c-3.147-7.843-5.328-14.677-15.516-13.979c-8.978,0.615-16.41,7.412-24.11,11.362"/>
	<path fill-rule="evenodd" clip-rule="evenodd" fill="#FFB0B0" stroke="#000000" stroke-width="4.1569" d="M151.031,18.852
		c6.853-3.023,7.824-3.006,5.758,3.375c-5.157,15.937-6.644,43.34,7.103,55.905c4.532,4.143,11.016,5.92,17.019,6.215
		c11.629,0.568,25.498-3.71,32.262-13.871c12.694-19.067-10.662-22.853-24.316-34.901c-5.916-5.218-8.454-13.66-12.75-20.095
		c-5.208-7.798-14.703-8.358-22.947-5.129"/>
</g>
</svg>
